<?xml version="1.0" encoding="UTF-8"?>
<svg enable-background="new 0 0 3243 2187" version="1.1" viewBox="0 0 3243 2187" xmlns="http://www.w3.org/2000/svg">
 <path d="m591.08 73.64c4.91 7.99 9.15 16.36 13.84 24.48-1.59 8.59-6.51 16.03-10.32 23.75-17.96 32.41-38.04 63.57-57.96 94.78-26.09 40.52-52.83 80.61-79.67 120.63 19.16 1.12 38.12-2.53 56.85-6.1-0.09-0.28-0.26-0.83-0.34-1.11-4.85-3.92-8.28-9.77-8.35-16.1-0.57-11.53 6.28-21.91 14.23-29.65 9.19-9.55 20.79-16.55 33.04-21.43 1.86 15.43 1.71 31.4-2.81 46.39-1.66 5.68-5.02 10.59-8.27 15.46 21.15-5.11 42.04-11.3 62.85-17.68 9.89-3.31 20.06-5.84 29.69-9.88-1.26-0.31-2.51-0.6-3.76-0.87-7.59-5.61-13.03-14.24-13.99-23.71-1.44-12.45 3.99-24.57 10.97-34.57 14.9-20.79 37.29-34.79 60.41-44.85 1.41 12.87 2.5 25.9 1.24 38.84-0.62 13.24-2.94 26.55-8.13 38.81-1.95 4.62-4.92 8.69-7.3199 13.07 17.81-5.74 35.27-12.58 52.51-19.87 12.45-5.37 24.83-10.99 36.7-17.59-7.91-3.95-14.94-10.23-18.14-18.64-5.41-13.66-1.56-28.97 4.86-41.58 7.37-15.38 19.32-27.9 31.88-39.18 5.4-4.57 11.1-8.76 16.92-12.77 6.42 20.91 11.45 42.67 10.37 64.69-0.38 8.03-2.51 15.78-4.69 23.48 13.25-8.73 25.74-18.6 37.25-29.51 8.48-8.47 16.87-17.38 22.65-27.97 1.95 5.06 4.0099 10.08 5.78 15.2 1.2 4.21-1.75 8.02-3.97 11.31-3.61 5.28-8.72 9.2-13.01 13.86 6.82 0.09 13.74-0.41 20.44 1.21 25.48 5.23 47.67 20.43 66.11 38.24-20.71 10.64-42.64 19.85-65.94 22.62-9.73 0.57-19.84 0.85-29.01-2.99-10.3-4.04-18.3-13.2-21.56-23.7-1.6-4.24-2.61-8.78-1.54-13.28-4.85 2.15-9.23 5.16-13.81 7.8-18.54 10.73-37.47 20.74-56.47 30.61-7.1 4.11-14.91 7.16-21.27 12.44 13.59-0.6 26.73 3.58 39.47 7.77 14.66 4.86 28.83 11.01 43.05 17.01 4.83-5.9 10.99-10.63 18.27-13.06 11.17-3.58 23.24-3.34 34.68-1.23 22.15 4.37 42.69 15.1 60.34 28.99-12.51 8.39-25.48 16.16-39.33 22.15-15.88 6.61-33.43 12.26-50.75 8.69-13.55-2.57-24.4-13.73-28.11-26.8-7.13-2.8-14.58-4.65-21.94-6.72 10.04 23.73 8.61 50.54 2.42 75.07-18.07-10.42-35.44-22.69-49.03-38.66-8.22-9.91-15.25-22.19-14.23-35.51-0.01-5.4 2.11-10.45 4.45-15.2-12.64-2.58-25.12-5.86-37.76-8.46-8.53 6.45-18.59 10.34-28.38 14.44-13.08 5.13-26.33 9.89-39.74 14.08-4.15 1.35-8.29 2.71-12.47 3.91 0.03 0.32 0.1 0.95 0.14 1.26 17.01 5.65 31.63 16.83 44.02 29.56 15.79 16.72 28.35 36.41 37.53 57.46-19.54 2.82-39.32 3.05-59.02 2.48-19.38-1.34-39.13-4.25-56.73-12.89-12.22-6.06-23.18-15.87-28.04-28.87-3.71-9.42-4.14-19.74-3.26-29.71-14.02 3.22-27.75 7.57-41.78 10.77 0.07 0.69 0.14 1.39 0.22 2.09 8.6 3.17 16.01 8.9 22.3 15.46 7.39 7.12 13.09 15.75 18.08 24.67-11.12 2.02-22.38 3.42-33.69 3.43-12.29-0.64-25.65-1.95-35.52-10.1-7.41-6.08-9.87-16.21-9.09-25.43-14.2 2.66-28.13 6.64-42.21 9.86-22.91 30.71-46.75 60.73-70.31 90.95-23.8 30.25-47.76 60.37-71.93 90.33-15.37 19.44-28.93 40.31-40.2 62.4-10.18 21.29-18.45 43.73-21.68 67.2-1.05 9.56-2.46 19.28-0.53 28.83 21.38-3.18 42.5-8.33 62.75-15.96 2.53-0.98 5.09-1.88 7.71-2.58 0.25-0.41 0.73-1.23 0.98-1.64-9.68-6.14-16.66-16.26-18.92-27.49-3.74-16.49 0.61-33.59 7.36-48.7 8.48-18.7 21.6-34.8 35.96-49.28 8.62 14.92 15.09 31.06 20 47.56 5.12 18.36 8.02 38.6 0.62 56.77 9.89-5.71 19.65-11.72 28.98-18.32 1.44-0.81 0.15-2.41-0.58-3.2-8.15-9.02-11.39-21.84-9.54-33.75 2.22-14.04 9.4-26.79 18.29-37.69 18.55-22.13 43.39-38.35 69.96-49.23 1.08 11.98 2.13 23.98 2.23 36.02-0.7 21.28-2.43 43.24-11.68 62.76-5.32 11.58-14.2 22-26.17 26.95-8.44 3.75-17.82 4.2401-26.91 3.77-22.58 18.32-48.09 32.65-73.95 45.75 4.52 3.45 9.25 6.74 12.85 11.22 11.12 13.33 15.94 30.6 18.26 47.5-12.29-1.65-24.32-5.21-35.74-10.03-9.32-4.21-18.76-9.62-24.52-18.36-2.79-4.01-3.89-8.87-4.42-13.64-18.85 8.45-37.69 16.94-56.85 24.68 1.44 12.76 3.26 25.51 3.45 38.37 1.39 12.62 0.7 25.35 1.01 38.02-0.09 13.01-0.04 26.01-0.36 39.02-0.42 4.89-0.89 9.78-0.79 14.71 0.14 6.1-1.02 12.13-1.1 18.23 18.68-0.69 36.83-5.8 54.69-10.91 13.21-3.76 26.06-8.62 39-13.17-3.27-3.73-6.88-7.38-8.57-12.16-5.31-13.56-2.15-28.67 3.05-41.75 6.68-15.87 16.72-30.37 29.32-42.12 10.35 18.26 19.08 38.04 21.24 59.11 0.73 5.86-0.37 11.69-1.06 17.49 9.25-3.71 17.62-9.21 26.61-13.45-0.18-0.61-0.35-1.2-0.52-1.77-11.58-5.46-19.14-17.15-21.99-29.34-3.68-15.65-0.56-31.98 4.43-46.98 9.23-26.17 25.89-49.12 45.22-68.77 11.49 20.08 21.31 41.29 27.23 63.71 3.27 12.27 4.91 25.01 4.32 37.71 3.45-3.3 6.28-7.15 9.12-10.96 11.02-14.37 20.73-29.67 30.24-45.06 1.06-1.72 1.9-3.58 2.7-5.43-9.91-1.86-17.94-9.46-21.64-18.66-5.75-14.03-5.34-29.81-2.27-44.42 1.71-8.66 4.63-17.01 8.06-25.12 11.53 9.54 22.64 19.88 31.39 32.08 3.36 4.55 5.76 9.68 8.55 14.57 5.65-11.28 12.18-22.15 17.24-33.71-2.71-1.89-5.69-3.39-8.2-5.56-4.51-3.79-7.41-9.06-9.67-14.4-4.33-13.52-2.13-28.06 2.48-41.18 4.37-12.24 10.97-23.56 18.61-34.03-4.83-17.11-7.94-34.82-7.63-52.64-0.36-18.57 2.32-37.06 6.41-55.13 3.64 1.29 7.04 3.16 10.38 5.09 16.06 8.71 31.5 18.57 46.06 29.61 16.1 12.28 30.99 26.61 41.56 44.03 0.93-3.17 1.8-6.35 2.71-9.51-7.28-4.68-8.9301-14.15-9.54-22.14 0.35-13.38 8.61-25.04 18.56-33.34 15.33-12.62 34.39-19.87 53.63-24.02 7.14-1.64 14.46-2.19 21.69-3.3-4.49 20.22-10.79 40.27-21.35 58.2-6.15 10.08-13.81 19.78-24.47 25.33-7.89 4.27-17.17 5.29-25.93 3.63-2.39 8.32-6.09 16.2-8.46 24.52-1.18 4.85-0.55 9.96-2.03 14.76-1.11 4.43-3.32 8.46-5.59 12.39-1.97 3.39-2.71 7.28-3.69 11.03 10.75-9.77 23.26-17.55 36.83-22.74 18.46-7.28 38.21-10.79 57.95-12.04 16.65-0.25 33.39-0.65 49.9 1.91-12.41 27.11-27.41 53.26-46.59 76.18-10.98 13.07-23.66 25.03-38.71 33.3-12.61 6.83-27.37 10.63-41.68 8.05-9.93-1.45-19.13-5.81-27.59-11.04 0.04 17.83 3.3 35.54 7.82 52.75 4.0099 14.54 9.18 28.82 16.23 42.18 1.64 3.09 3.41 6.19 6.08 8.54 5.09-14.38 16.04-25.55 26.94-35.78 21.51-18.74 45.67-34.58 71.89-45.93 36.84-16.38 76.39-25.23 115.7-33.42 9.1-2.19 18.6-3.57 26.99-7.9 10.8-6.69 20.67-14.75 30.85-22.32 5.94-4.8 12.3-9.13 17.79-14.47-4.54-2.32-9.12-4.78-12.74-8.43-6.89-7.0601-10.68-16.6-12.17-26.24-1.63-14.43 0.18-29.14 4.78-42.89 5.43-17.64 14.75-33.75 25.31-48.77 12.03 15.16 23.04 31.32 30.98 49.05 5.6801 12.77 9.6201 26.54 9.42 40.63 10.6-7.75 20.47-16.48 30.53-24.93 7.04-6.71 14.55-13.39 18.85-22.31 2.2001-4.16 2.8501-8.86 3.88-13.39-12.61 5.49-27.41 6.38-40.27 1.23-14.34-5.58-25.9-16.58-34.73-28.95-20.72-29.73-29.05-66.47-30.19-102.24 28.83 7.12 57.36 16.88 82.83 32.4 10.82 6.52 20.57 14.79 28.65 24.52 1.1 1.43 2.49 2.59 3.99 3.62 3.0601-20.35 13.34-38.53 23.62-56.01-12.05-1.38-23.46-6.88-32.89-14.4-13.94-11.37-21.93-28.67-24.42-46.23-3.91-26.39 2.37-53.2 12.25-77.62 7.94-19.48 18.72-37.7 30.92-54.81 13.8 16.27 25.55 34.25 35.95 52.86 13.01 24.22 24.08 50.8 23.5 78.78 5.8999-5.97 10.99-12.68 16.75-18.78 1.6899-1.75 3.6-3.36 4.8899-5.47-3.87-10.8-2.37-23.06 3.54-32.84 9.38-15.21 24.31-26.21 40.18-33.94 12.52-6.2 25.95-10.55 39.64-13.3-0.65 13.2-3.12 26.26-6.4601 39.03-2.9299 11.27-7.1 22.3-13.14 32.28-5.7899 9.58-14.17 18.21-25.08 21.65-6.5699 2.3-13.59 1.65-20.41 1.39-2.5499 2.34-5.11 4.68-7.4299 7.25 11.77 0.45 23.49 3.53 33.71 9.47 4.9401 2.56 9.72 5.41 14.18 8.75-14.06 9.74-29.62 18.88-47.03 20.34-9.33 1.07-19.38-2.63-24.46-10.82-0.8201-2.1-3.0701-0.86-3.9701 0.45-7.47 8.55-14.8 17.23-21.88 26.11-3.6499 4.91-8.2 9.34-10.37 15.18 26.42-11.78 56.58-11.79 84.43-5.58-10.16 17.06-21.5 33.71-36.15 47.26-7.23 6.83-15.38 12.92-24.7 16.58-7.29 2.68-15.32 4.21-22.99 2.34-5.6901-1.01-10.73-3.94-15.65-6.79-0.6901 17.94 1.16 36.03 6.36 53.25 15.33-13.37 33.07-23.42 50.36-33.95 8.39-5.47 17.39-9.91 25.96-15.09 8.52-4.26 16.37-9.92 25.33-13.25 0.12-4.92-0.54-9.95 0.83-14.76 2.59-9.93 9.54-18.22 17.91-23.9 16.87-11.8 37.68-16.3 57.92-17.66 9.2201-0.06 18.52-0.53 27.68 0.87-7.1899 15.39-14.78 30.73-25.11 44.3-6.84 9.11-14.74 17.64-24.41 23.79-7.4399 4.75-16.3 7.67-25.19 7.05-8.4401-0.6-16.53-4.07-23.17-9.25-7.97 3.3-15.34 7.82-22.9 11.93-5.39 3.29-11.25 5.96-15.99 10.21 8.63 1.32 17.37 2.2 25.69 5.02 10.95 3.25 21.25 8.28 31.17 13.87-13.85 12.08-28.73 23.35-45.63 30.81-10.96 4.63-23.34 8.27-35.17 4.92-10.73-2.83-18.36-12.09-22.9-21.78-0.3 0.09-0.91 0.25-1.21 0.33-8.8101 7.82-18.21 15.01-26.34 23.56 14.04-0.61 27.57 4.71 39.21 12.2 10.49 7.28 20.39 15.6 28.11 25.85-8.78 4.06-18.22 6.23-27.47 8.93-11.88 2.94-24.23 4.42-36.46 3.19-8.1899-1.04-16.47-3.95-22.44-9.84-3.65-3.56-5.87-8.24-7.76-12.89-8.77 8.69-15.99 18.78-23.93 28.21-9.54 13.75-19.6 27.29-26.98 42.37 19.96-5.13 39.79-10.77 59.88-15.41 47.86-11.68 96.1-21.71 144.46-31.09 22.47-5.26 44.75-11.37 66.61-18.8 4.41-1.64 9.2001-2.47 13.19-5.1-1.86-0.51-3.64-0.96-5.48-1.3701-6.11-4.52-11.82-9.75-15.99-16.15-6.16-9.12-9.03-20.29-8.74-31.24 0.75-19.54 9.63-37.75 21-53.29 22.16-29.77 53.31-51.76 86.48-67.74 4.6799 26.37 6.5499 53.26 4.86 80.01-1.5701 18.72-5 37.69-13.7 54.52-2.36 4.71-5.59 8.91-8.2599 13.44 19.36-7.07 38.23-15.46 57.23-23.46 3.1799-1.34 6.34-2.72 9.4-4.34-7.1001 0.07-12.32-5.27-16.52-10.35-6.7001-8.14-10.06-18.93-9.1901-29.43 1.01-15.7 8.67-30.12 18.09-42.39 17.3-22.05 40.78-38.52 65.85-50.64 3.5699 23.27 5.9299 47 2.85 70.46-1.53 12.1-4.34 24.24-10.1 35.07-0.92 1.79-1.7101 3.64-2.4301 5.51 9.54-3.89 18.66-8.71 28.05-12.92 8.72-3.99 17.1-8.7 25.97-12.37-0.7-11.68 3.78-23.52 12.01-31.84 10.85-11.6 26.19-17.81 41.42-21.22 28.18-6.26 57.53-3.15 85.2 4.11-10.47 16.69-22.78 32.19-36.47 46.34-10.77 10.41-22.41 20.29-36.06 26.7-10.13 4.48-21.48 7.3-32.55 5.22-11.38-2-21.71-8.57-29.23-17.21-3.34 0.2-6.0299 2.34-8.88 3.83-10.42 5.6-21.01 10.87-31.66 15.99-3.85 1.9-7.9601 3.43-11.25 6.26 9.14 0.99 18.37 1.77 27.15 4.7 18.65 5.67 35.57 16.01 50.48 28.42 20.33 17.11 37.57 37.79 51.35 60.48-22.58 5.76-45.59 10.09-68.84 11.76-24.56 1.85-50.01 1.18-73.38-7.38-13.89-4.96-26.41-14.15-34.33-26.7-6.9299-11.61-9.7-25.23-9.9199-38.62-0.4501-3.22 1.8999-5.67 3.3199-8.28-8.5 3.02-16.5 7.23-24.81 10.72-11.73 5.19-23.47 10.39-35.26 15.45-2 0.87-3.88 1.98-5.7001 3.15 14.56 3.52 28.44 9.73 40.56 18.58 20.02 14.42 36.43 33.51 49.24 54.51-23.65 6.63-48.19 10.18-72.76 10.36-19.2-0.68-39.65-3.1-55.57-14.82-6.3799-4.38-10.92-10.84-14.22-17.74-4.46-7.92-5.27-17.19-5.78-26.08-25.67 10.45-51.05 21.61-76.67 32.18 6.47 6.9901 15.02 11.46 23.06 16.35 16.93 9.2 34.36 17.44 52.15 24.85 11.66 4.67 23.36 9.23 34.98 13.98 20.79 7.2 41.44 14.85 62.38 21.63 37.98 12.25 76.11 24.14 114.71 34.33-4.02-9.39-6.0601-19.81-4.01-29.94 2.71-14.23 11.27-26.66 21.76-36.36 12.48-12.23 27.94-21 43.9-27.85 21.07-8.92 43.57-14.08 66.25-16.73-4.0199 22.73-10.54 45.05-19.57 66.3-9.4401 21.6-22.5 43.22-43.37 55.42-1.1801 0.76-2.05 1.87-2.92 2.93 19.71 3.02 39.49 5.91 59.42 6.95-2.15-4.14-4.6801-8.11-6.16-12.55-3.7999-10.87-2.3199-23.1 2.62-33.36 6.14-12.68 16.08-23.14 27.25-31.56 21.75-16.71 48.07-26.3 74.64-32.15-1.49 21.25-5.48 42.39-12.3 62.58-4.0901 11.67-9.3701 23.04-16.75 33.01-3.65 5.03-8.6001 8.88-12.63 13.57 13.52-0.5 26.85-3.23 40.01-6.23 2.4-6.29 5.9801-12.17 10.95-16.77 7.33-7.07 17.16-10.98 27.09-12.64 20.91-3.45 42.24 1.74 61.6 9.58 16.99 7.02 32.74 16.84 47.14 28.23-18.83 12.53-38.7 23.75-60.05 31.39-8.9801 3.17-18.21 5.79-27.68 6.91-11.7 1.64-24.07 0.8799-34.87-4.25-12.53-6.15-21.48-18.31-25.37-31.54-12.46 3.46-25.14 6.26-38.07 7.23-50.09 4.0099-100.11-2.9301-149.89-7.72-5.15-0.35-10.33-0.62-15.46 0.04 7.26 5.57 14.7 11.09 20.68 18.09 15.48 16.61 29.15 34.84 42.07 53.49 7.01-4.47 15.21-7.46 23.64-6.69 16.4 1.28 30.53 11.4 41.54 22.98 13.42 14.65 23.1 32.41 29.57 51.13-11.99 1.27-24.05 0.51-36.03-0.4-12.27-1.25-24.53-3.47-36.1-7.84-7.74-3.1-15.36-7.1-21.11-13.28-6.23-6.32-9.88-15.21-9.5699-24.12-0.3-5.29 0.9299-10.45 1.4399-15.67-6.14-5.73-11.22-12.54-17.8-17.8 0.49 16.6-7.6901 32.03-18 44.51-9.76 11.27-21.11 21.3-33.98 28.88-3.89-12.76-6.1101-25.99-7.5-39.24-0.28-9.69-0.7401-19.53 1.4099-29.06 1.88-9.22 5.98-18.33 13.17-24.61 4.88-3.9 10.78-6.33 16.77-7.99-0.11-0.24-0.3401-0.72-0.4501-0.96-16.25-15.41-32.71-30.61-49.27-45.69-6.88-0.37-13.72-1.24-20.55-2.15 3.08 6.19 6.41 12.33 8.16 19.07 6.4099 22.52 3.63 46.57-2.77 68.76-5.04 17.31-12.46 33.9-21.63 49.4-13.11-12.9-24.62-27.32-35.44-42.16-5.97-8.31-10.82-17.32-15.5-26.39-5.1899-11.01-9.73-22.55-10.92-34.76-0.4701-8.7599-0.5901-17.8 2.65-26.1 3.0099-9.33 9.99-16.42 16.37-23.53-39.36-12.33-78.14-26.42-116.76-40.88-41.34-15.62-82.48-31.76-123.35-48.57-3.0599-1.53-6.2599 0.36-9.25 1.08-68.47 19.75-137.06 39.11-205.88 57.6-21.65 5.98-43.44 11.49-65.08 17.52-26.42 7.45-52.2 17.18-76.87 29.25-22.59 11.41-44.32 24.85-63.37 41.6-10.91 9.41-20.84 20.03-29.09 31.86-1.27 1.75-2.23 3.71-2.6801 5.84 26.83 13.8 55.43 24.23 85.01 30.28-3.75-9.7-6.76-20.17-5.02-30.64 1.75-14.69 10.04-27.77 20.4-37.98 16.96-16.07 38.61-26.25 60.79-32.9 25.12-7.51 51.45-10.35 77.61-10.1-6.98 21.22-15.34 42.05-26.08 61.67-9.98 18.1-21.76 35.57-37.38 49.31-3.93 3.47-8.41 6.2401-12.36 9.6801 17.1 0.65 34.24-0.15 51.27-1.6801-0.7401-11.27 5.06-22.26 13.84-29.09 7.67-6.16 16.88-10.14 26.37-12.52 23.08-5.8 47.52-4.07 70.44 1.68-9.73 15.08-20.24 29.85-33.4 42.16-6.72 6.71-14.4 12.52-22.83 16.92-7.95 3.85-16.95 6.57-25.85 5.14-9.56-1.18-18.33-6.35-24.74-13.42-8.24 0.59-16.28 2.8-24.54 3.29 13.36 12.09 19.82 29.88 22.03 47.38 1.32 8.23 1.05 16.6 0.96 24.91-17.57-6.32-35.05-13.98-49.48-26.07-7.4-6.16-13.91-14.09-16.22-23.62-1.71-7.39-0.17-15.06 3.01-21.83-21.93-0.69-43.79-2.7-65.62-4.91 4.23 6.66 8.87 13.11 12.07 20.37 10.79 23.42 14.89 49.52 14.35 75.17 0 3.69-0.02 7.38-0.11 11.07-18.47-6-36.31-13.93-53.27-23.38-16.87-9.67-33.19-21.3-44.78-37.16-7.99-11-12.68-24.99-10.46-38.62 0.84-6.4 3.34-12.39 5.94-18.24-13.43-2.34-26.87-4.66-40.21-7.44-4.04 11.31-11.42 20.98-17.99 30.9-26.26 37.29-54.78 72.92-83.41 108.41-3.27 4.05-6.74 7.95-9.63 12.29 9.55 6.12 19.85 10.93 30.31 15.29 3.43 1.34 6.75 3.18 10.45 3.69 2.72-8.05 5.25-16.19 8.93-23.88 14.18 11.52 27.63 24.04 39.16 38.25 2.44 3.73 7.34 3.58 11.14 4.92 11.64 3.14 23.36 5.95 35.13 8.55-0.08-10.66 4.49-20.71 10.74-29.12 8.19-11.05 19.13-19.87 30.97-26.75 3.6 14.05 5.8 28.64 4.76 43.17-0.52 7.1301-2.48 14.05-5.4 20.56 37.17 5.96 75.08 9.71 112.66 5.8-0.05-0.27-0.17-0.8301-0.23-1.11-8.43-6.79-9.63-18.85-7.3-28.76 4.44-18.62 18.01-33.09 32.05-45.27 0.28 0.71 0.83 2.13 1.1 2.83 4.36 10.43 7.81 21.27 9.59 32.45 1.72 11.34 1.42 23.72-5.12 33.6 12.86-3.5 25.49-7.8101 38-12.38-3.07-3.05-7.04-5.17-9.54-8.77-6.51-8.68-7.75-20.33-5.58-30.72 3.51-17.99 14.06-33.69 26.17-47.09 9.64 16.22 18.12 33.86 19.7 52.92 0.76 8.4-1.57 16.78-5.95 23.92 12.38-4.4 24.2-10.23 36.43-15 0.3-0.4 0.88-1.1801 1.18-1.58-12.65-9.91-21.34-25.12-21.97-41.32-1.33-23.04 9.27-44.91 23.01-62.76 17.69-22.45 40.52-40.62 65.48-54.38 5.38 21.29 7.75 43.24 8.5299 65.14-0.1 22.21-2.36 45.28-13.22 65.1 12.8-5.93 25.15-12.78 37.79-19.03-1.47-9.67 0.26-19.98 6.4-27.8 9.7999-12.71 25.57-19.02 40.84-22.28 20.1-4.32 40.98-2.98 61.06 0.8-7.5499 13.98-16.54 27.23-26.99 39.2-8.86 9.54-18.39 18.9-30.35 24.44-10.8 5.29-24.05 6.01-34.93 0.54-3.9701-1.72-7.0701-4.87-10.86-6.85-3.75 0.78-6.8899 3.14-10.29 4.75-9.13 4.53-18.29 8.98-27.46 13.42-7.96 3.85-16.38 6.98-23.43 12.45-7.33 5.37-16.31 7.28-24.75 10.07-40.09 18.13-80.14 36.35-120.47 53.91-0.48 0.65-0.95 1.3-1.4 1.97 6.58 1.04 13.28 0.4301 19.89 1.16 6.62 0.74 13.29 0.29 19.91 0.99 5.01 0.4701 10.17 1.03 15.08-0.4199 32.45-7.92 64.27-18.11 96.07-28.27 2.64-7 8.12-12.95 15.14-15.67 8.38-3.19 17.66-3.26 26.36-1.41 16.85 3.29 31.97 12.21 45.26 22.78-14.21 9.02-29.47 16.96-46.02 20.53-9.65 1.92-20.48 2.17-29.01-3.4401-5.9-3.46-9.1899-9.75-11.72-15.85-12.68 3.64-25.33 7.35-37.94 11.22-4.31 1.3999-8.87 2.1899-12.84 4.47 18.87 4.6699 35 16.85 47.48 31.44 14.16 16.36 24.61 35.68 32.11 55.91 1.39 3.73 2.64 7.52 3.8999 11.32-25.38 0.53-51-1.34-75.64-7.74-16.4-4.5399-33.12-11.3-44.78-24.17-6.41-7.04-10.43-16.19-11.39-25.65-1.14-6.58 0.52-13.15 1.03-19.7-7.43 0.5801-15.61-1.45-22.25 2.8301-13.2 7.13-24.19 17.75-33.74 29.2-6.3 7.67-12.03 15.9-16.13 24.98-2.35 5.4401-4.52 11.62-2.23 17.47 1.22 1.1699 2.44 2.37 3.66 3.58 20.87 3.6899 41.28 9.48 61.82 14.58 74.1 19.36 147.92 39.82 221.72 60.28 5.1899 0.6801 10.2-1.84 15.28-2.6799 5.72-1.01 11.14-3.02 16.31-5.64-1.8099-7.62-1.3099-15.85 2.5701-22.77 6.7699-12.42 19.31-20.52 32.19-25.55 8.74-3.4199 17.96-5.45 27.24-6.72-3.36 16.77-8.28 33.64-17.79 48.04-2.7599 4.11-6.0399 7.89-9.97 10.92 6.25 4.23 12.91 7.9401 18.44 13.18 6.75 5.42 12.14 12.25 17.57 18.94-16.65 5.27-33.92 9.88-51.55 8.77 0.09 0.34 0.2699 1.02 0.35 1.36 8.6 5.54 16.81 11.71 25.7 16.8 9.65 4.8099 20.24 7.3099 30.73 9.5599 21.11 4.0601 42.57 6.1901 64.03 7.12 25.96 1.5801 52.01 1.15 77.96-0.4399 24.31-1.86 48.96-4.12 72.23-11.87 14.21-4.5 24.94-15.74 33.42-27.53 4.4601-6.25 8.54-12.8 11.8-19.76-7.05 2.86-14.83 4.8-22.4 2.91-15.9-3.42-28.28-15.28-37.94-27.73-17.97-24.15-27.7-53.67-31.27-83.35 23.35 2.86 46.5 8.0199 68.57 16.23 13.95 5.5499 28.01 12.31 38.34 23.52 3.49 3.4399 5.7301 7.84 8.14 12.06 6.28-19.58 11.88-39.39 17.01-59.3 1.15-7.8 3.9401-15.25 4.9301-23.05-5.5 3.33-10.38 7.8-16.48 10.06-6.74 2.52-14.09 3.54-21.22 2.39-9.45-0.6699-17.8-5.45-25.84-10.03-16.03-10.67-28.31-25.98-38.33-42.23-17.95-29.54-28.24-63.31-32.43-97.51 21.77 2.96 43.46 7.02 64.62 13 19.81 5.4 39.16 12.84 57 23.09 4.78 3.13 9.7001 6.13 14 9.95 1.3201 1.16 2.88 2 4.4601 2.83-0.3-18.75-2.53-37.39-4.2001-56.05-6.6899-2.17-13.06-6.08-16.88-12.12-6.34-9.41-6.99-21.41-5.49-32.33 3.3201-21.4 14.44-40.72 28.04-57.24 10.07 14.41 18.87 29.93 24.15 46.77 3.34 11.56 5.37 24.49 0.25 35.86-3.2301 7.64-9.8201 13.23-17.15 16.78-0.03 4.65 1.1899 9.13 2.12 13.65 5.75 34.1 11.92 68.12 17.54 102.24 7.04-5.14 13.57-10.95 20.5-16.23 0.0601-0.64 0.15-1.25 0.28-1.84-7.83-4.3-12.4-13.07-12.53-21.86-0.7799-15.92 6.54-30.98 15.61-43.62 4.1799-6.12 9.5399-11.25 14.52-16.69 9.2301 17.01 16.89 35.69 16.96 55.33 7-4.89 13.12-10.91 20.07-15.89 12.23-10.08 24.46-20.16 36.97-29.87-1.6699-11.4 1.3301-23.51 8.62-32.5 9.9701-12.45 25-19.58 40.16-23.47 29.3-7.33 60.31-4.77 89.26 2.94-11.17 17.36-23.73 33.91-38.37 48.5-10.23 9.72-21.31 18.88-34.24 24.77-9.53 4.38-20.25 6.92-30.73 5.29-10.7-1.62-20.65-7.08-28.12-14.84-0.48 0.06-1.4301 0.18-1.91 0.24-8.97 8.63-18.19 17-27.47 25.29-0.16 0.42-0.48 1.25-0.65 1.66 18.68 0.23 35.73 10.19 48.71 23.01 2.77 2.9501 5.67 5.78 8.3201 8.8501-8.59 4.09-17.64 7.0699-26.9 9.1699-11.37 2.7001-23.5 4.55-34.94 1.22-7.0901-1.5199-13.44-6.2799-16.78-12.71-1.23-2.21-2.27-4.5-3.24-6.8099-0.3401 0.0599-1.02 0.1899-1.36 0.25-23.22 21.56-46.64 42.92-70.03 64.29-0.35 8.5701-2.72 16.9-5.38 25 0.45-0.14 1.36-0.4099 1.8099-0.5499 17.63-8.27 37.85-8.9301 56.89-6.5801 25.4 3.25 49.8 12.16 72.24 24.35-12.71 12.62-26.61 24.13-41.53 34.04-13.53 9.34-28.15 17.32-43.85 22.34-13.07 4-27.4 5.77-40.56 1.25-9.86-3.1-18.08-9.95-24.36-17.99-0.53-0.13-1.6-0.37-2.14-0.5-0.1 0.53-0.3 1.5801-0.4 2.11-13.76 32.44-28.34 64.51-43.35 96.39 48.09-9.9199 96.21-19.7 144.44-28.91 24.06-4.3 48.17-8.62 71.74-15.17 22.67-6.11 44.87-13.84 66.66-22.55 14.68-5.8899 29.04-12.52 43.5-18.91 8.08-4.5701 16.55-8.41 24.79-12.68 5.85-2.27 11.11-5.6899 16.63-8.62 14.27-7.09 27.97-15.24 41.95-22.89 23.25-12.92 45.84-26.97 68.74-40.49 4.51-2.99 9.14-5.8199 13.94-8.33-0.4501-5.13 0.71-10.14 1.01-15.21 0.0599-8.6799 1.9099-17.21 2.0699-25.87 4.0701-46.1 8.16-92.2 12.37-138.29 3.1-30.25 5.27-60.63 9.47-90.76-1.4299-7.65-6.6899-14.07-12.16-19.36-1.3501 6.7-4.8 13.06-10.21 17.33-9.5399 7.74-21.88 10.94-33.87 12.23-12.1 1.23-24.34 0.04-36.18-2.54 9.02-14.97 19.35-29.55 33.3-40.32 3.49-2.75 7.49-4.71 11.46-6.67-3.0601-3.31-7.52-4.65-11.23-7.02-5.1499-2.77-9.7-6.56-15.07-8.89-4.83 9.19-13.91 15.39-23.61 18.55-17.52 5.73-36.52 4.33-54.19 0.06-12.46-2.89-24.35-7.77-35.85-13.31 12.72-13.2 26.89-25.12 42.65-34.54 7.9-4.52 16.12-8.65 24.97-10.98-3.9199-5.27-8.6699-9.83-12.68-15.01-12.67-15.34-23.99-31.79-33.99-48.99-2.99-5.22-6.0801-10.42-8.42-15.97-10.43 3.95-22.19 4.13-32.79 0.79-7.74-3.16-15.21-7.75-20.16-14.64-11.81-15.93-15.12-36.23-15.66-55.6 0.0699-20.35 3.58-40.6 9.45-60.06 5.86-18.22 12.93-36.2 22.79-52.67 14.68 12.93 27.88 27.43 40.54 42.31 11.77 14.59 23.06 29.8 31.24 46.75 5.01 9.57 8.6799 19.9 10.53 30.56 2.6901 15.83-1.9099 33.24-13.8 44.4-5.76 5.15-12.28 9.43-19.11 13.02 3.64 8.05 8.9299 15.16 13.7 22.56 3.1 3.73 6.17 7.5 8.97 11.48 0.4801 0.2 1.4401 0.61 1.92 0.81 3.41-17.83 14.72-32.92 27.08-45.69 4.1801 8.13 8.7001 16.17 11.44 24.94 4.02 12.25 7.12 25.75 3.17 38.42-1.5901 5.56-5.51 9.97-9.7401 13.73 11.88 9.42 23.88 18.76 36.83 26.68-1.13-21.76 5.64-43.2 16.02-62.12 12.53 12.72 24.55 26.33 32.63 42.41 5.22 10.53 9.0399 22.67 6.2999 34.46-1.0499 5.09-3.85 9.54-6.65 13.83 9.0601 4.05 17.77 8.8799 27.05 12.46 4.99-20.99 8.11-42.37 12.95-63.4 2.7001-12.72 4.8201-25.6 5.8101-38.57-8.85 3.15-18.51 4.39-27.74 2.33-18.66-3.62-34.1-16.48-45.29-31.31-4.1699-5.92-8.04-12.06-11.66-18.32-7.84-14.87-13.24-30.9-17.01-47.25 23.36 1.86 46.86 5.2599 69 13.25 12.07 4.25 23.44 10.44 33.35 18.54-2.1901-15.6-6.16-30.86-9.38-46.26-8.88 4.32-18.13 8.23-28.05 9.19-13.23 1.23-26.85-1.03-38.88-6.69-22.66-11.04-40.56-30.06-53.32-51.52-9.7101-15.07-16.5-31.8-22.18-48.74-2.5499-8.5-5.5499-16.98-6.48-25.86 23.59 1.99 47.19 5.1 70.1 11.22 9.4301 2.09 18.64 5.13 27.61 8.74 4.9501 1.54 9.3401 4.45 14.37 5.77-1.5699-3.3-3.37-6.46-5.0599-9.69-8.88-14.82-18.13-29.47-28.66-43.19-11.05 1.29-22.79-0.41-32.05-6.91-13.82-9.44-21.04-25.75-24.13-41.72-2.3501-10.63-2.17-21.57-1.9401-32.38 1.02-19.45 5.92-38.49 12.63-56.71 15.62 10.38 29.64 23.05 42.52 36.64 10.62 11.85 20.59 24.81 26.02 39.94 4.1699 11.28 5 24.22 0.25 35.45-2.98 7.32-8.05 13.54-13.62 19.04 5.48 3.86 9.48 9.34 14.64 13.58-1.79-22.69 6.2899-44.9 17.83-64.1 19-31.31 46.73-56.55 77.32-76.3 7.4299 23.43 12.95 47.52 15.48 71.99 2.0801 21.95 2.1902 44.6-4.52 65.83-4.3699 13.61-12.13 26.63-23.92 35.04-14.28 10.54-32.67 14.06-50.11 13.48 3.16 4.9 5.0599 10.46 8.16 15.4 1.8099 2.99 2.99 6.3 4.48 9.47 7.12 12.92 12.52 26.73 17.42 40.63 2.04 4.17 3.1201 8.7401 5.3301 12.84 19.78-30.6 51.05-52.09 84.25-65.95 3.1199 22.94 3.79 46.3 0.79 69.3-2.1802 15.65-5.9102 31.51-14.26 45.11-4.96 8.06-11.71 15.18-20.08 19.71-9.8499 5.39-21.39 6.92-32.46 6.27 1.73 16.88 0.6399 33.87-1.0901 50.7 0.4102-0.17 1.23-0.5 1.6401-0.67 15.48-12.24 33.83-20.38 52.61-26.11 13.76-4.3 28-6.68 42.26-8.57-2.8699 17.37-7.6799 34.42-13.76 50.94-6.3098 16.45-14.07 32.68-25.58 46.17-9.0701 10.86-21.35 19.86-35.6 22.05-10.88 2.03-21.99-0.54-32.16-4.4-2.3301 20.9-5.9402 41.63-8.6401 62.48-5.5204 36.89-9.4004 74.02-12.29 111.19-0.3 9.38-1.4301 18.71-1.55 28.11-1.21 8.88-0.41 17.88-1.5 26.78-0.4199 8.38-0.27 16.78-0.49 25.18-1.13 12.62-0.5699 25.33-0.72 38 0.1799 7.95-0.42 15.96 0.9399 23.85 0.6901-0.29 1.4-0.5601 2.14-0.8201 3.41-6.4299 8.96-11.29 13.39-16.97 11.24-12.45 24.09-23.36 37.7-33.13 11.54-8.4 21.15-18.99 31.22-29.01 7.3101-8.4 14.37-17.02 21.03-25.95 5.1299-7.89 10.81-15.41 15.91-23.32 3-4.88 6.79-9.23 9.5901-14.24 3.9099-6.64 8.25-13.02 12.78-19.26 6.4099-10.75 14.34-20.49 21.04-31.06 18.7-28.97 33.75-60.13 46.99-91.92 13.36-27.66 28.62-54.35 44-80.93-11.93 1.15-24.11 0.0099-35.32-4.34-13.39-5.45-25.44-14.29-34.17-25.86-18.43-23.58-26.35-53.63-28.9-83.01-1.76-22.4-0.3999-44.96 3.05-67.13 14.82 6.29 28.92 14.17 42.69 22.49 20.69 12.15 40.19 26.6 56.8 43.99 12.07 13.06 22.71 28.23 26.86 45.78 1.4302 5.31 1.28 10.84 1.76 16.29 0.4502-0.36 1.3401-1.06 1.78-1.41 6.05-9.19 12.59-18.03 18.9-27.04-13.87-3.6-26.4-12.82-33.27-25.47-8.8801-15.16-9.8801-33.57-7.73-50.62 3.6799-26.6 15.19-51.54 29.96-73.75 7.6099 9.77 15.85 19.11 22.52 29.59 14.15 20.22 26.01 43.06 28.63 67.94 9.46-10.51 18.18-21.66 27.55-32.26 2.6599-2.79 5.1699-5.75 7.3301-8.96-3.5601 1.24-6.9202 3.74-10.86 3.12-14.02-1.08-28.14-6.36-38.1-16.53-11.17-10.75-17.18-25.81-19.7-40.86-3.48-19.76-1.3599-40.08 3.1501-59.49 6.3599-27.26 18.35-52.89 32.98-76.64 18 19.22 34.48 39.98 47.91 62.68 10.54 18.01 19.33 37.52 22.13 58.36 0.6499 6.45 0.3 12.95 0.21 19.42 6.0601-3.23 11.9-6.87 18.25-9.53 5.5801-2.08 8.8301-7.36 13.41-10.86 4.8801-3.71 8.8101-8.46 13.34-12.56-10.46-5-20.56-11.09-28.85-19.27-12.7-12.74-18.29-31.65-15.77-49.34 3.6602-25.43 16.62-48.27 30.99-69.13 12.97-18.68 28.03-35.8 43.64-52.29 9.3599-9.45 18.81-18.82 28.9-27.49 5.1702 8.76 8.6301 18.47 12.41 27.9 10.14 26.94 16.8 55.29 18.67 84.05 1.45 24.03-0.3801 48.8-9.25 71.39-4.6001 11.6-11.57 22.56-21.53 30.26-8.2 7.05-19.09 10.09-29.71 10.63-4.3201 0.18-8.53-1.27-12.82-0.85-2.99 1.11-5.02 3.77-6.9199 6.19 31.55-5.12 64.04-4.56 95.4 1.7-8.75 15.74-17.86 31.32-28.46 45.91-14.22 19.71-30.29 38.49-50.22 52.64-11.58 8.19-24.76 14.69-38.94 16.55-14.85 2.25-30.23-1.78-42.83-9.74-6.95-4.47-13.66-9.56-18.89-16.01-14.33 18.22-29.06 36.12-42.85 54.74-29.17 38.61-57.48 77.92-83.3 118.86-11.86 19.45-24.33 38.91-31.54 60.68-0.0898 3.08-1.22 8.53 3.4102 8.63 19.44-0.84 38.28-6.39 56.94-11.53 7.49-2.44 14.95-5 22.46-7.4-4.4299-4.29-9.45-8.08-12.7-13.43-9.3501-13.72-9.48-31.7-4.6799-47.11 7.8098-25.46 25.3-46.73 44.85-64.25 10.32-9.2599 21.63-17.41 33.46-24.65 0.26-0.29 0.77-0.88 1.02-1.17 5.6902 18.5 9.05 37.68 10.95 56.93 0.2698 8.4 1.46 16.81 0.45 25.22-0.3 10.4-1.95 20.75-4.98 30.7 6.78-3.22 13.1-7.43 20.24-9.9 13.06-4.84 27.23-7.61 41.16-5.81 1.9299 0.15 3.8899 0.18 5.8701 0.28-3.1902-6.12-6.8801-12.03-8.8201-18.71-5.73-16.67-2.29-35.03 5.0701-50.61 11.47-22.33 30.51-39.84 51.48-53.17 22.35-13.89 46.83-24.43 72.33-30.99-0.74 26.53-4.0999 53.08-10.79 78.79-2.2898 9.13-5.6599 17.92-8.72 26.8 30.45-6.35 62.08-1.54 91.33 8.03-10.3 13.66-21.2 26.94-33.58 38.77-14.18 13.12-29.81 25.62-48.48 31.54-12.21 3.86-26.05 3.73-37.49-2.41-5.8599-3.02-11.11-7.17-15.52-12.03-13.1 3.02-26.64 2.97-39.96 2.14 3.45 2.7 7.71 3.9301 11.57 5.9301 20.86 10.58 38.75 26.18 54.3 43.5 10.13 11.58 19.44 23.92 27.38 37.12-24.49 6.68-49.69 10.75-75.02 12.32-14.05 0.31-28.2 0.65-42.13-1.63-13.67-1.84-26.96-6.37-39.02-13.06-12.29-7.39-21.69-19.29-26.11-32.92-2.97-7.76-3.5598-16.11-4.23-24.3-17.42 9.84-35.78 17.87-54.41 25.08-0.0701 0.56-0.21 1.66-0.29 2.21 9.8501 5.86 18.35 13.87 24.68 23.43 6.9102 9.71 12.53 20.36 16.24 31.7 1.03 2.4901 1.9402 5.03 2.8801 7.58-23.27-0.07-47.25-2.23-68.64-12.09-7.9399-4.1201-15.73-9.4301-20-17.54-3.3198-5.01-3.8999-11.05-4.6899-16.83-20.36 7.36-40.98 13.99-61.61 20.55-0.3201 1.41-0.55 2.85-0.8401 4.27-5.1499 16.78-11.73 33.09-19.28 48.93-5.29 10.58-10.2 21.41-16.47 31.46-0.02 0.49-0.04 1.48-0.05 1.98 8.6101 0.16 17.18 1.14 25.8 1.13 9.72 1.03 19.53 0.58 29.24 1.76 6.6799 0.08 13.36 0.23 20.03 0.93 10.68 0.1 21.31 1.22 31.99 1.42 7.21 1.04 14.52 0.5099 21.77 1.16 7.98 0.84 16.04 0.37 24.01 1.48 6.9399 0.08 13.89 0.28 20.82 0.97 10.3-0.03 20.53 1.33 30.84 1.37 26.98 3.23 54.17-2.32 79.67-10.97 18.83-6.45 36.76-15.24 54.16-24.86 18.3-10.22 35.31-22.5 52.59-34.32 31.21-21.25 62.51-42.36 93.9-63.34 24.05-15.7 47.81-31.86 72.08-47.22 10.87-27.89 21.39-55.93 32.06-83.9-9.98 1.54-20.65-0.2-28.87-6.29-15.04-10.89-22.83-28.87-27.07-46.41-4.6399-19.24-4.75-39.31-2.51-58.88 0.23 0.2 0.6899 0.6 0.9199 0.81 17.85 7.8 34.77 17.95 49.83 30.34 9.78 9.05 20.09 18.63 24.56 31.56 0.45 0.33 1.3499 0.98 1.8 1.31 4.98-14.17 11.13-27.9 16.07-42.09-4.52 2.2-8.5398 5.28-13.03 7.5-3.0298 1.78-6.5898 0.42-9.7-0.27-15.14-3.74-29.21-12.68-37.91-25.75-12.35-17.87-15.69-40.44-14.54-61.73 2.6001-37.9 17.82-73.78 37.49-105.87 14.35 16.39 27.57 33.8 38.8 52.49 11.99 20.06 22.16 41.73 25.77 65l1.21-0.03c1.95-5.49 4.3601-10.78 6.6399-16.13 1.3501-2.68 0.3101-5.66 0.0701-8.45-3.3398-29.21-7.0801-58.38-11.39-87.46-0.54-0.17-1.6201-0.5-2.1702-0.67-9.4099-3.22-17.78-9.55-23-18.07-5.1499-8.35-7.0298-18.23-7.47-27.91 0.1802-19.56 6.4202-38.59 15.55-55.73 8.46-16.65 20.12-31.39 32.63-45.15 15.29 28.11 28.5 58.51 30.22 90.88 0.1499 12.47-2 25.48-9.25 35.91-6.5701 9.88-17.36 15.88-28.37 19.52 5.6001 20.17 12.09 40.15 16.45 60.66 5.3301-1.53 8.28-6.63 11.53-10.72 20.12-28.79 37.33-59.54 58.48-87.61-2.5598-6.27-5.03-12.8-4.6199-19.69-0.5701-10.22 3.6599-20.03 9.52-28.19 9.8799-13.03 23.62-22.63 38.37-29.42 22.47-10.12 47.06-15.65 71.7-16.17-6.22 22.45-14.19 44.59-26.01 64.75-8.4099 13.93-18.71 27.47-33.14 35.59-10.61 6.03-23.58 7.69-35.32 4.33-3.9199-0.91-7.45-2.93-11.36-3.73-2.3601 1.98-4.0601 4.59-5.96 6.96-3.7102 4.93-7.9302 9.53-10.79 15.03 18.25-6.64 38.48-2.29 55.23 6.46 12.04 6.09 22.94 14.3 32.68 23.6-17.73 9.92-36.62 18.39-56.75 21.91-11.79 1.94-24.73 1.84-35.27-4.46-7.03-4.04-11.71-11.09-14.55-18.51-0.4199 0.03-1.27 0.1-1.7 0.14-12.34 20.47-24.36 41.25-34.06 63.12 6.5801-3.38 12.97-7.24 20.08-9.48 24.75-8.52 51.73-7.58 77.06-2.24 23.11 4.91 45.31 13.58 66.21 24.53-14.33 14.79-30.13 28.17-46.75 40.33-8.0801 5.6-16.02 11.53-24.91 15.78 3.01 26.39 2.29 53.8-6.6301 79.07 18.2-8.57 35.67-18.74 54.25-26.53 0.6101-10.01 4.6501-19.84 11.72-27.02 11.67-12.3 28.51-18.03 44.88-20.68 25.76-4.15 52.16-0.37 77.03 6.86 2.54 0.78 5.0999 1.59 7.6699 2.41-11.65 15.15-23.76 30.08-38.09 42.8-11.64 10.34-24.33 19.97-38.96 25.64-9.6399 3.66-20.26 5.84-30.5 3.58-11.16-1.98-20.72-8.8-28.45-16.79-0.0701-0.55-0.23-1.65-0.3-2.2-3.96-0.78-7.3 1.67-10.67 3.25-3.8201 1.88-7.77 3.55-11.16 6.15 16.6 2.36 30.3 13.5 40.32 26.37 9.73 12.69 16.52 27.44 21.2 42.68-21.12 0-42.66-1.99-62.54-9.52-10.87-4.27-21.7-10.98-26.99-21.8-3.6501-7.02-3.54-15.16-2.8101-22.82-37.92 19.26-75.21 39.82-111.36 62.24-17.33 10.86-34.4 22.17-50.69 34.54-44.13 34.68-88.03 69.67-133.02 103.23-0.1299 0.39-0.3699 1.19-0.5 1.58 29.78 0.78 59.61-0.05 89.27-2.73-4.8999-9.08-8.3799-19.24-7.7-29.68 0.8599-17.27 10.76-32.7 23.03-44.3 14.78-13.77 33-23.33 51.93-30.04 12.31-4.27 24.97-7.63 37.86-9.58-2.6902 19.28-7.2102 38.35-13.76 56.69-4.3701 11.89-9.6902 23.51-16.82 34-3.3401 5.08-7.54 9.49-11.37 14.18 8.3401-1.33 16.53-3.42 24.74-5.43 4.1401-1.05 8.4502-1.88 12.17-4.14 3.9299-2.33 8.1699-4.22 12.69-5.14 3.3699-0.88 6.95-0.63 10.31-1.69 8.8098-3.12 17.13-7.39 25.53-11.46-2.52-8.5-2.8101-17.83 0.9099-26.04 6.6499-15.62 21.46-25.76 36.38-32.65 15.97-7.12 33.31-11.08 50.75-12.14 4.98-0.96 10.09-0.51 15.15-0.8-4.98 17.25-12.32 33.85-21.44 49.31-4.8 7.9-10.18 15.51-16.92 21.88-8.1099 8.67-19 15.5-31.08 16.25-6.75 0.88-13.27-1.41-19.66-3.14-4.05 1.03-7.8899 2.68-11.83 3.99 0.0798 0.33 0.23 0.99 0.2998 1.32 16.09 6.5 30.08 17.29 42.34 29.41-17.51 9.1201-36.05 16.87-55.66 19.96-12.24 1.93-25.74 1.74-36.55-5.01-8.4102-4.99-13.32-14.17-15.55-23.42-8.8101 1.62-17.17 5.04-25.83 7.26-13.4 3.79-26.9 7.38-40.72 9.3-0.05 2.78 0 5.57 0.1301 8.37 4.03 9.76 12.34 16.93 20.99 22.58 23.1 14.66 49.53 22.8 75.59 30.41 6.02 2.18 12.52 0.85 18.72 2.19 12.32 0.89 24.89 0.72 36.97-2.24 4.8799-1.12 9.6199-2.76 14.52-3.91 0.0999-10.97 3.7698-22.18 11.54-30.13 10.89-12.1 26.67-18.4 42.23-21.92 28.05-6.22 57.27-3.16 84.88 3.84-11.12 17.52-23.85 34.07-38.56 48.73-11.52 10.98-24.29 21.22-39.36 26.83-11.05 4.14-23.69 4.85-34.81 0.59-6.75-2.46-12.77-6.61-18.01-11.46-12.09 1.14-24.24 1-36.37 1.04 0.2102 0.38 0.6201 1.12 0.8201 1.5 16.56 14.41 26.75 34.77 33.17 55.47-21.72-0.29-43.93-2.15-64.26-10.33-10.3-4.27-20.43-10.93-25.38-21.27-4.26-8.55-3.7-18.54-1.48-27.57-7.4001-1.02-14.81-1.89-22.17-3.08 9.9199 20.61 11.59 44.25 8.26 66.64-1.79 13.34-5.3401 26.39-9.7202 39.1-15.51-10.88-30.2-23.03-43.07-36.96-10.86-12.06-20.93-25.46-25.86-41.11-3.1399-9.93-3.6299-20.89 0.1001-30.72 2.99-8.2401 8.53-15.24 14.76-21.3-7.53-5.72-14.38-12.39-19.66-20.25-4.4299-6.83-11.08-11.89-18.32-15.41-9.4302-4.32-20.13-4.34-30.24-3.36-23.41 3.07-46.49 8.17-69.61 12.84-15.3 3.45-30.75 6.36-45.73 11.04-8.96 3.57-16.28 10.13-24.17 15.52-17.94 13.24-35.81 26.61-54.6 38.63-11.84 7.48-23.87 14.8-36.77 20.29-10.86 4.85-22.34 8.98-34.35 9.28-39.39 1.34-78.32-6.33-117.56-8.01-8.71 0.21-17.34-1.02-26.02-0.94-8.04-0.09-16.07-0.33-24.1-0.25-17.62-1.15-35.31-0.67-52.96-0.6-9.6699 0.99-19.45 0.23-29.06 1.75-15.42 1.78-31.05 7.16-42.33 18.18-5.8 5.57-8.8901 13.13-13.7 19.46-17.92 25.07-36.93 49.38-57.39 72.43-16.65 18.2-36.22 33.44-56.3 47.64-26.88 18.87-55.17 35.63-83.88 51.53-32.85 18.09-66.46 34.78-100.57 50.36 11.59 9.71 25.96 15.28 40.14 20.06 34.25 10.65 70.07 14.97 105.68 18.07 15.78 1.03 31.57 2.2001 47.4 2.41 18.99 0.6799 38.02 1.28 57.01 0.34 8.76-0.2999 17.6-0.23 26.17-2.34 25.96-5.6801 50.94-15.02 75.7-24.54 17.79-7.2999 35.83-13.99 53.65-21.23-9.8701-6.27-19-14.3-24.33-24.89-9.29-17.7-9.0698-38.87-4.02-57.81 8.73-32.83 29.32-61.1 52.83-85.03 2.48-2.4401 4.77-5.15 7.74-7.03 6.1699 10.73 10.91 22.23 15.53 33.7 9.8601 25.78 17.53 53.12 16.26 80.97-0.55 7.39-1.72 14.79-4.1401 21.82-1.4099 4.09-3.49 7.91-4.9399 11.99 18.73-9.21 36.24-20.71 53.77-32-5.01-3.64-11.04-5.78-15.38-10.33-9.9502-8.52-15.63-21.31-16.56-34.26-1.51-14.99 2.1499-30.03 7.8401-43.82 9.49-22.4 24.53-42.09 41.8-59.06 11.66 21.2 21.26 43.76 26.24 67.51 3.2102 14.95 3.5801 30.6-0.27 45.47 3.4502-2.15 6.2202-5.16 9.2202-7.87 7.2998-6.35 14.14-13.24 20.49-20.54 8.6399-9.09 16.58-18.84 23.96-28.98 2.26-3.3199 5.25-6.35 6.1699-10.39-8.27-10.17-9.78-24.67-5.8-36.92 5.4001-17 17.88-30.77 31.78-41.47 19.68-15.14 42.84-25.39 66.78-31.64 0.3-0.25 0.9099-0.74 1.22-0.98-0.29 23.6-3.6599 47.26-10.74 69.81-5.6899 16.94-14.25 34.09-29.42 44.41-11.84 8.15-27.18 9.22-40.85 5.9199-5.4099 9.55-12.85 17.66-19.34 26.44 9.8098-0.65 19.8-1.13 29.49 0.97 19.99 3.9301 38.42 13.7 54.57 25.92 23.24 17.84 42.44 40.62 57.76 65.51-24.83 6.7-50.36 10.84-76.02 12.35-23.21 0.8099-47.17-0.13-68.93-9.02-13.96-5.65-26.56-15.61-33.56-29.13-4.23-7.9399-6.3899-16.8-7.5-25.68-6.23 4.2001-11.87 9.1801-17.93 13.6-9.21 6.8999-18.59 13.57-28.04 20.15-0.02 0.38-0.0698 1.15-0.0999 1.54 10.96 2.24 20.39 8.9401 28.31 16.59 13.78 14.25 23.09 32.39 28.64 51.32-12.32 0.28-24.64-0.74-36.8-2.66-12.6-2.22-25.31-5.4199-36.4-12.01-7.74-4.72-14.84-11.48-17.7-20.3-1.1299-3.3101-1.5798-6.79-1.9299-10.24-8.27 3.8999-15.62 9.46-23.59 13.92-38.5 23.24-78.06 44.7-118.14 65.07-11.74 5.9199-23.5 11.78-35.44 17.29 0.1499 0.49 0.4399 1.4701 0.5801 1.9501 24.14 21.56 52.1 39.39 83.03 49.36-1.5298-7-2.77-14.25-1.51-21.38 2.1602-15.85 12.31-29.58 24.95-38.91 20.14-15.02 45.19-21.83 69.86-24.52 11.41-1.34 22.91-1.2799 34.38-1.02-6.6301 18.1-14.9 35.64-25.04 52.05-8.71 13.79-18.8 27.05-31.84 37.04-3.6799 2.86-7.9399 4.9-11.44 7.99 7.3101 0.65 14.68 1.12 22 0.22 22.88-0.4399 45.47-5.15 67.31-11.75 1.3-10.62 4.74-21.43 12.51-29.13 11.83-13.18 29.17-19.67 46.17-22.98 31.3-5.79 63.52-0.9301 93.68 8.24-10.06 13.92-20.69 27.51-33.01 39.51-12.78 13.23-27.17 25.19-43.72 33.38-11.08 5.15-23.48 8.83-35.78 7.02-15.03-1.89-28.4-11.16-37.34-23.1-12.7 2.8899-25.16 7.0099-38.09 8.86 0.3601 0.6599 0.76 1.3199 1.1899 2.01 12.34 8.25 21.52 20.35 29.32 32.8 7.78 12.96 13.96 27 17.73 41.66-23.84-0.67-48.03-2.62-70.68-10.59-8.4001-3.0601-16.58-6.9301-23.61-12.5-9.2-6.87-15.42-17.75-16.15-29.26-0.6101-6.9401 1.25-13.7 2.6199-20.42-18.24-1.35-36.45-3.75-54.17-8.34 8.46 24.02 4.51 50.41-3.76 73.91-13.83-9.66-26.61-20.88-37.51-33.75-8.5801-10.62-16.2-23.21-16.32-37.26-0.0999-7.3 3-14.04 6.6401-20.17-21.83-9.35-42.63-21.04-62.21-34.45-9.26-6.5801-18.69-13.07-26.8-21.06-15.96 1.74-31.96 3.4401-48.03 3.13-37.91 0.64-75.71-3.83-113.01-10.26-35.19-6.22-69.97-14.62-104.25-24.69-12.53-3.9601-25.36-7.2001-37.48-12.33-4.12-0.08-7.45 2.5701-11.11 4.02-17.47 7.33-35.88 12.06-54.15 16.89-42.97 10.74-86.47 19.13-130.01 27.15-42.6 7.6899-85.31 14.71-128.1 21.17-25.23 3.6101-50.46 7.99-76.01 8.13-12.92 1.1801-25.92 0.41-38.88 0.63-11.02 0.36-21.98-1.0299-33-0.83-38.01-1.49-75.96-4.36-113.84-7.9301 4.62 5.77 10.32 10.57 15.35 15.98 5.9 5.6599 11.01 12.07 16.81 17.84 7.05-8.09 18.04-11.8 28.61-10.77 18.66 1.76 35.25 12.29 48.66 24.83 0.75 0.92 3.5701 2.78 1.26 3.65-15.28 7.66-31.78 13.68-48.96 14.74 3.03 3.0901 5.74 6.47 8.64 9.6801 0.09 0.47 0.27 1.4199 0.35 1.89 9.2 0.09 18.55 2.24 26.15 7.63 13.7 9.75 23.14 24.38 29.16 39.89 5.38 13.96 8.8201 28.75 9.5801 43.71-19.44-4.12-38.86-9.41-56.51-18.74-7.39-3.9301-14.56-8.53-20.36-14.61-5.91-5.7201-10.52-13.11-11.76-21.33-1.9401-10.13 1.6899-20.33 6.51-29.13 0.7999-0.59 1.62-1.1699 2.45-1.73-0.16-0.61-0.48-1.83-0.64-2.4399-5.51-5.6001-10.19-11.95-15.53-17.7-7.4401-8.6-15.22-16.91-22.96-25.23-0.28-0.12-0.85-0.37-1.14-0.49-0.89 16.65-10.41 31.35-21.39 43.3-3.4099 3.84-7.3199 7.1899-11.26 10.47-5.29-12.39-9.6801-25.29-11.42-38.7-0.98-9.4099-0.9301-19.46 3.53-28.06 2.86-5.61 7.8999-9.86 13.67-12.26-0.08-0.6-0.23-1.78-0.3099-2.37-18.66-17.5-38.26-34.1-59.51-48.4-9.9401-6.08-19.32-13.06-29.76-18.3-36.9-18.98-77.24-29.89-117.37-39.68-24.28-5.5-48.72-10.35-73.27-14.47-1.65-0.22-3.3-0.1901-4.93-0.14 2.84 2.64 6.12 4.72 9.31 6.92-16.77 11.78-35.6 22.57-56.51 23.8 13.84 16.59 27.93 32.97 41.43 49.84 5.84-2.8899 12.67-1.85 18.71-0.1899 11.96 3.41 20.65 14.01 24.63 25.44 5.88 16.96 5.12 35.53 1.33 52.86-2.45 11.01-6.02 21.79-10.79 32.02-0.51 1.3401-1.78-0.2699-2.39-0.62-15.59-13.41-30.47-28.19-41.01-46-7.57-12.55-12.42-28.03-7.58-42.47 2.21-5.23 5.29-10.09 9.55-13.9-0.01-0.3199-0.05-0.96-0.07-1.2899-5.94-6.37-11.08-13.5-17.51-19.4 0.15 17.14-9.4 32.53-20.5 44.88-3.69 4.1899-7.8799 7.9-12.15 11.49-4.8-11.21-8.91-22.81-10.87-34.87-1.6-10.12-2.01-21 2.27-30.53 3.14-7.11 9.61-12.37 17-14.57-0.03-0.36-0.1-1.1001-0.14-1.4701-13.34-12.02-27.14-23.55-41.82-33.91-14.97-10.22-30.27-20.36-47.35-26.71-3.68-1.39-7.38-2.7-11.08-4.0199-40.41-12.7-83.11-16.22-125.28-15.59-51.93-0.08-103.63 6.5601-154.73 15.48-46.28 8.37-92.11 19.24-137.17 32.74-29.88 9.25-59.86 18.9-87.89 32.97-6.31 3.2899-12.49 7.21-17.01 12.8-6.5 7.65-10.49 17.03-13.42 26.54-6.24 23.48-6.28 48.15-3.73 72.16 2.47 23.62 7.4 47.06 15.43 69.44 13.07 40.12 26.36 80.16 39.47 120.27 34.315 104.99 66.692 210.65 99.916 315.99 16.698 52.942 33.385 105.89 50.075 158.83 8.345 26.472 16.691 52.944 25.038 79.416 1.9556 6.2014 4.8212 12.685 6.0154 19.07 1.6012 8.5608-2.5628 6.7754-10.586 7.3821-13.752 1.04-27.51 2.0024-41.275 2.8472-77.19 4.7354-154.48 4.6133-231.67 5.9939-12.236 0.219-23.341-1.749-27.535-14.64-1.6749-5.1479-1.7565-10.658-1.8227-16.072-0.288-26.496 1.3976-53.957-0.9766-80.336-2.3033-25.59 1.9615-51.32 1.3793-77.099 0.4717-26.236-0.6829-52.112 0.0678-78.427 3.1215-109.42 0.8247-219.11-3.0332-328.53-1.2148-34.454-0.9307-69.11-6.6506-103.2-3.5725-21.289-7.9426-42.444-13.099-63.405-4.906-19.943-4.0551-37.99-2.7665-58.602 2.3611-37.768 7.7397-75.351 18.288-111.75 7.1622-24.712 31.793-37.64 51.613-52.286-5.36-34.95-12.01-69.71-17.64-104.62-0.34 0.04-1.01 0.13-1.35 0.17 0.07 2.64-20.54-25.63-20.95-61.42-1.23-15.31-0.43-30.71-1.11-46.05-0.53-6.09-0.93-12.27-0.36-18.37 2.43-9.76 5.17-19.46 6.96-29.37 0.99-4.67 1.29-9.47 2.57-14.08 1.39-9.22 1.49-18.52 1.75-27.81 1.23-6.06-0.37-12.12-0.2-18.21 0.02-12.7-0.78-25.39-2.37-37.98-1.07-15.14-2.88-30.24-5-45.28-3.73-1.85-7.52-3.63-10.97-5.97 0.1-9.98-1.19-19.88-1.16-29.85 6.15 4.1201 12.65 7.64 19.25 10.96 0.3-9.76 2.93-19.23 5.26-28.65 10.02-37.42 25.31-73.42 45.44-106.52 9.84-16.52 20.52-32.52 31.38-48.37 5.63-8.86 12.13-17.48 14.66-27.86-10.62 2.3-22.16 1.47-31.81-3.77-14.62-7.51-24.26-21.97-29.98-36.97-5.71-15.21-8.31-31.56-8.02-47.79 0.02-7.24-0.17-14.53 1.03-21.7 23.88 9.92 47.49 21.99 66.26 40.09 6.75 6.27 11.54 14.16 16.27 21.96 2.59-12.04 5.79-23.94 8.86-35.86-9.64 2.28-20-1.46-26.87-8.38-9.25-8.42-14.67-20.16-18.16-31.98-3.2-11.3-4.45-23.08-4.37-34.8 15.96 5.1 31.97 10.91 45.78 20.62 4.19 2.77 7.48 6.64 11.49 9.63-0.07-1.58-0.15-3.14-0.23-4.71-6.07-13.23-17.29-23.16-23.8-36.13-4.74-8.46-8.82-17.26-12.87-26.06-7.2-14.8-8.97-31.47-10.19-47.67 0.25-10.13-1.62-20.21-0.62-30.33 0.77-6.21 0.39-12.47 0.62-18.71 1.13-19.97 2.97-39.89 5.43-59.75 7.26 0.02 14.45 1.09 21.65 1.92-2.56 5.63-3.7 11.73-4.8 17.78-2.42 14.57-3.79 29.31-4.45 44.06-1.05 9.27-0.77 18.63-0.73 27.94 2.48 23.24 14.28 44.63 29.99 61.59 6.09 6.08 11.86 12.73 19.37 17.11 1.03-7.81 3.86-15.19 6.36-22.6 15.31-41.27 34.7-80.86 54.11-120.31 1.23 10.67 2.95 21.34 3.83 32.03-13.42 21.8-23.03 45.74-30.38 70.21-2.76 9.72-5.66 19.41-7.71 29.32 18.61-10.15 40.73-10.15 61.07-6.34-6.56 12.27-14.9 23.65-24.86 33.38-8.46 7.95-19.21 15.38-31.39 14.42-4.52 0.05-8.61-2.03-12.66-3.72-5.39 31.92-9.08 64.15-10.65 96.47 4.22-4.97 7.31-10.76 11.15-16.01 29.25-41.64 62.48-80.32 97.06-117.58 25.65-29.27 47.88-61.31 69.18-93.82 31.17-48.17 59.94-97.87 87.04-148.43m2273.9 468.89c-7.4199 18.77-15.3 37.36-22.34 56.28-6.23 17.09-12.87 34.09-17.71 51.64 5.03-2.86 9.8601-6.16 15.31-8.24 19.81-8.06 41.82-8.14 62.75-5.44-6.8499 14.55-15.04 28.55-25.14 41.09-3.1301 4.02-7.21 7.25-9.8601 11.64 1.25-0.51 2.51-1.06 3.8-1.64 17.21-9.38 34.16-19.26 51.61-28.19-4.0801-4.32-8.6602-8.38-11.11-13.91-5.26-10.15-4.5601-22.35-0.5801-32.81 6.1902-16.56 18.27-30.21 31.68-41.4 0.3999-0.08 1.2-0.25 1.5898-0.34 0.49-1.07 1.04-2.12 1.6201-3.16-14.51 3.98-30.24 5.55-44.81 1.08-14.53-4.33-26.63-14.71-34.88-27.22-0.4801 0.15-1.4501 0.46-1.9301 0.62m-2271.3 61.87c-8.18 3.53-17.44 5.2-26.21 3.03 0.52 8.8 0.77 17.91-2.48 26.27-3.44 10.31-12.17 17.95-21.88 22.29-1.79 4.76-4.23 9.23-6.32 13.86 15.42-4.95 32.02-3.98 47.57-0.14-6.41 11-14.73 20.87-24.26 29.3-7.3 6.06-16.23 11.51-26.1 10.76-5.53 0.21-10.41-2.75-14.93-5.56-10.07 20.35-20.85 40.35-31.34 60.49-2.73 5.42-6.04 10.56-8.13 16.29 13.62-5.64 26.87-12.15 40.3-18.22-0.29 3.88-0.3 7.87-1.61 11.59-1.77 2.89-4.31 5.2-6.51 7.75 17.32 3.9 33.24 12.43 47.43 22.94-5.9 4.2-12.04 8.04-18.35 11.57-13.95 7.59-28.87 14.2-44.84 15.76-9.46 0.82-19.73-0.93-27.13-7.24-3.12-2.54-5.35-5.92-7.98-8.9-7.15 3.14-13.6 7.72-20.59 11.22-19.13 10.47-38.42 20.65-57.92 30.42-0.05 0.31-0.14 0.94-0.19 1.25 11.22 1.12 20.86 8.42 27.25 17.38 9.26 12.94 14.05 28.72 15.54 44.44-16.35-2.64-32.68-7.39-46.89-16.1-7.81-5.13-15.37-12.35-16.92-21.99-1.18-4.78 0.26-9.61 1-14.33-5.41 1.9399-10.44 4.77-15.62 7.23-10.9 5.51-21.96 10.67-32.95 15.99-3.3 1.66-7.05 2.81-9.43 5.81 30.56 11.94 54.31 36.29 72.64 62.83-17.13 5.39-34.82 9-52.66 11.03-18.94 2-38.59 2.21-56.86-3.82-6.19-1.92-11.72-5.33-17.22-8.65-2.34 6.97-4.95 13.86-7.78 20.65 10-3.64 20.93-3.92 31.3-1.85 18 3.49 34.59 12.27 49.13 23.25-11.94 8.44-24.76 15.72-38.38 21.07-11.8 4.41-24.68 7.9901-37.32 5.59-7.37-1.1-13.78-5.34-18.96-10.51-3.72 10.79-7.92 21.42-11.95 32.11-0.84 1.86-0.6 3.9399-0.16 5.89 3.89 16.87 7.43 33.82 11.16 50.72 1.85 9.47 4.51 18.79 5.86 28.35 16.66-12.95 35.03-23.42 53.29-33.9 37.29-21 75.18-40.99 113.99-59.06 7.66-3.9401 14.59-9.12 21.45-14.3 20.27-15.63 38.66-33.48 57.26-51.01 15.44-15.57 31.27-30.79 46.14-46.91 18.72-18.02 33.91-39.28 48.01-61 15.66-24.49 30.13-49.77 43.12-75.77-10.6-20.85-15.84-44.04-17.67-67.25-1.89-20.9-1.27-41.98 0.53-62.85 1.68-9.06-1.25-18.07-0.53-27.15 0.55-8.47 2.56-16.86 6.31-24.49 2.51-4.89 2.88-10.45 3.94-15.75-4.9301 3.3798-9.5801 7.3198-15.15 9.6198m2219 91.23c-1.98 8.95-3.4302 18.09-3.1301 27.29 11.14-6.43 22.65-12.28 33.42-19.33-5.5498 0.23-11.28 0.8199-16.64-0.94-4.99-1.41-9.3501-4.25-13.65-7.02m-2598.7 242.37c-4.78 13.41-8.46 27.17-12.07 40.94-0.63 2.35-0.5 4.82-0.04 7.2 2.05 10.77 4.25 21.51 6.26 32.29 3.55-5.21 5.91-11.09 8.87-16.62 8.55-16.92 16.99-33.88 25.55-50.79-4.79-6.14-7.94-13.44-9.41-21.07-6.69 1.94-12.65 5.66-19.16 8.05m298.51 82.6c-50.22 34.45-100.33 69.09-151.12 102.7-15.08 12.31-30.32 26.08-37.56 44.64-0.12 1-0.36 2.9801-0.48 3.9701 44.86-7.73 89.81-14.9 134.79-21.9 44.39-6.99 88.85-13.63 133.06-21.7 12.05-2.4601 24.3-4.4 35.93-8.42 0.08-0.42 0.22-1.27 0.29-1.6901-12.84-2.95-24.54-10.72-31.57-21.94-12.97-19.8-14.04-44.76-11.09-67.57-20.95-3.6499-41.77-8.0399-62.64-12.15-3.8901-1.29-6.6301 2.25-9.6101 4.06m143.6 21.46c7.3 13.91 12.46 30.12 8.45 45.83 0.38-0.14 1.14-0.4301 1.52-0.5701 7.58-9.34 15.12-18.71 22.02-28.57 2.11-3.14 5-5.97 5.77-9.8-12.42-3.0601-25.17-4.6501-37.76-6.89m53.02 9.3899c-1.86 5.28-4.9901 9.9501-7.3701 14.99 6.02-1.1899 12.24-1.4399 18.32-0.5299 15.95 2.27 30.67 9.7999 43.61 19.14-11.45 8.33-23.9 15.49-37.34 20.09-9.65 3.27-20.46 5.1899-30.35 1.8199-6.23-2.08-10.96-6.95-14.49-12.3-8.73 9.6699-16.63 20.1-25.78 29.41-0.22 0.78-0.42 1.5701-0.61 2.39 11.62-1.62 23.37-0.9099 35.03-0.09 35.85 2.64 71.17 9.74 106.86 13.85 9.32 0.63 19.19 2.8101 28.11-1.0599 2.36-7.5801 7.38-13.84 11.98-20.16 12.11-15.87 25.55-30.66 38.8-45.56-3.51-1.0599-7.19-0.96-10.8-1.25-44.39-4.0499-88.59-10.23-132.56-17.5-7.8498-0.78-15.53-2.84-23.41-3.24m133.01 135.76c1.79 1.5801 3.62 3.12 5.53 4.5901 3.29 2.8999 6.35 6.0499 9.45 9.1599 2.79-4.5399 6.88-7.98 10.95-11.32-8.49-1.8801-17.25-2.4201-25.93-2.4301m301.07 46.75c0.12 0.52 0.35 1.5701 0.47 2.0901 2.02 1.45 4.01 2.95 6.0901 4.34-0.1901-2.42-0.36-4.8201-0.5801-7.22-2.01 0.2199-4 0.4799-5.98 0.7899z" fill="#030303"/>
</svg>
