<?xml version="1.0" encoding="UTF-8" standalone="no"?>
<svg
   version="1.1"
   width="315.39108"
   height="194.93269"
   viewBox="0 0 315.39109 194.93269"
   id="svg41"
   sodipodi:docname="logo2.svg"
   xmlns:inkscape="http://www.inkscape.org/namespaces/inkscape"
   xmlns:sodipodi="http://sodipodi.sourceforge.net/DTD/sodipodi-0.dtd"
   xmlns="http://www.w3.org/2000/svg"
   xmlns:svg="http://www.w3.org/2000/svg">
  <defs
     id="defs45" />
  <sodipodi:namedview
     id="namedview43"
     pagecolor="#ffffff"
     bordercolor="#111111"
     borderopacity="1"
     inkscape:showpageshadow="0"
     inkscape:pageopacity="0"
     inkscape:pagecheckerboard="1"
     inkscape:deskcolor="#d1d1d1"
     showgrid="false" />
  <g
     transform="matrix(7.3891626,0,0,7.3891626,1.0930697e-5,-125.61576)"
     id="g39">
    <defs
       id="SvgjsDefs4487" />
    <g
       id="SvgjsG4488"
       featureKey="symbolFeature-0"
       transform="matrix(0.47425478,0,0,0.47425478,-2.3712802,6.4776547)"
       fill="#000000"
       inkscape:export-filename="Bridge_Icon.svg"
       inkscape:export-xdpi="12.17536"
       inkscape:export-ydpi="12.17536">
      <path
         d="m 77.6179,49.1785 h -3.3847 c -0.5822,0 -1.0547,-0.4725 -1.0547,-1.0547 0,-0.5822 0.4725,-1.0547 1.0547,-1.0547 h 3.3847 c 0.5822,0 1.0547,0.4725 1.0547,1.0547 -1e-4,0.5822 -0.4725,1.0547 -1.0547,1.0547 z m 4.9301,2.9727 c 0,-0.5822 -0.4725,-1.0547 -1.0546,-1.0547 h -3.3861 c -0.5822,0 -1.0547,0.4725 -1.0547,1.0547 0,0.5822 0.4725,1.0547 1.0547,1.0547 h 3.3861 c 0.5836,-10e-5 1.0546,-0.4726 1.0546,-1.0547 z m 5.0779,7.2799 c 0,-0.5822 -0.4725,-1.0547 -1.0547,-1.0547 h -3.3847 c -0.5822,0 -1.0547,0.4725 -1.0547,1.0547 0,0.5822 0.4725,1.0547 1.0547,1.0547 h 3.3847 c 0.5822,-0.0014 1.0547,-0.4725 1.0547,-1.0547 z M 18.1916,58.0783 c 0,-0.5822 -0.4725,-1.0547 -1.0547,-1.0547 h -3.3861 c -0.5822,0 -1.0547,0.4725 -1.0547,1.0547 0,0.5822 0.4725,1.0547 1.0547,1.0547 h 3.3861 c 0.5822,-0.0014 1.0547,-0.4725 1.0547,-1.0547 z m 3.3848,-4.4225 c 0,-0.5822 -0.4725,-1.0547 -1.0547,-1.0547 H 17.137 c -0.5822,0 -1.0547,0.4725 -1.0547,1.0547 0,0.5822 0.4725,1.0547 1.0547,1.0547 h 3.3847 c 0.5836,0 1.0547,-0.4711 1.0547,-1.0547 z M 5.0703,31.2732 C 4.8636,30.7276 5.1378,30.1201 5.682,29.912 c 6.671,-2.5368 13.8961,-4.483 21.4714,-5.7879 0.5779,-0.0942 1.0624,0.324 1.2192,0.8606 0.0337,0.1153 0.0464,0.2966 0.0464,0.4169 v 7.1176 c 4.2777,-0.7003 8.62,-1.1756 12.9891,-1.4526 v -6.4882 c -2.6704,0.1716 -5.3422,0.4205 -8.0041,0.7523 -0.5765,0.0816 -1.1053,-0.3375 -1.177,-0.9154 -0.0717,-0.5779 0.3375,-1.1053 0.9154,-1.177 21.1775,-2.6394 42.8991,-0.27 61.1686,6.6753 0.5442,0.2081 0.8184,0.8156 0.6117,1.3612 -0.1603,0.4205 -0.5597,0.6792 -0.9857,0.6792 -0.1252,0 -0.2503,-0.0225 -0.3741,-0.0689 -1.5721,-0.5976 -3.1808,-1.1489 -4.8036,-1.6776 v 6.3898 c 1.6804,0.5358 3.3426,1.1067 4.978,1.717 0.5456,0.2039 0.8226,0.8114 0.6201,1.357 -0.1603,0.4247 -0.5611,0.6862 -0.9886,0.6862 -0.1223,0 -0.2475,-0.0211 -0.3684,-0.0675 C 66.8801,30.5422 33.1227,30.5436 7.0039,40.29 6.4569,40.4939 5.8494,40.2169 5.6469,39.6713 5.443,39.1255 5.72,38.518 6.2656,38.3141 7.8954,37.7052 9.5519,37.1385 11.2267,36.6027 v -6.401 c -1.627,0.5287 -3.2286,1.087 -4.7952,1.6832 -0.1237,0.0464 -0.2503,0.0689 -0.3755,0.0689 -0.4246,0 -0.8254,-0.2587 -0.9857,-0.6806 z m 66.5009,1.2431 V 26.0407 C 67.3259,25.339 62.9948,24.8539 58.6158,24.5768 v 6.4896 c 4.3579,0.2771 8.689,0.751 12.9554,1.4499 z M 86.6528,29.5295 C 82.4609,28.2569 78.1185,27.2261 73.6791,26.4133 v 6.47 c 4.4197,0.8001 8.755,1.8351 12.9737,3.0922 0,1e-4 0,-6.446 0,-6.446 z m -43.1354,1.4034 c 4.3255,-0.2067 8.6665,-0.2053 12.9905,0.0014 v -6.484 C 52.2063,24.2464 47.864,24.2576 43.5174,24.4686 Z m -17.2092,1.9533 v -6.4475 c -4.4731,0.8156 -8.8057,1.866 -12.9723,3.1288 v 6.4137 c 4.2187,-1.2585 8.5526,-2.2949 12.9723,-3.095 z M 6.0561,47.5866 c 0.1252,0 0.2517,-0.0225 0.3755,-0.0689 26.4648,-10.0586 60.6665,-10.0614 87.1313,0 0.547,0.2067 1.1531,-0.0661 1.3598,-0.6117 0.2081,-0.5456 -0.0675,-1.1545 -0.6117,-1.3612 -26.919,-10.233 -61.7085,-10.2301 -88.6304,0 -0.5442,0.2081 -0.8184,0.8156 -0.6117,1.3612 0.1617,0.4205 0.5625,0.6806 0.9872,0.6806 z M 93.9439,71.277 c -3.1274,0 -4.7431,1.2993 -6.169,2.4482 -1.3162,1.0589 -2.4552,1.9757 -4.8233,1.9757 -0.6033,0 -1.1362,-0.0802 -1.6439,-0.1997 C 79.2266,60.4197 65.9183,49.1292 50,49.1292 c -15.9197,0 -29.2336,11.2989 -31.3092,26.3861 -0.4851,0.1167 -1.0251,0.1856 -1.6593,0.1856 -2.3709,0 -3.5085,-0.9168 -4.8247,-1.9785 -1.4217,-1.1461 -3.0318,-2.444 -6.1479,-2.444 -0.5822,0 -1.0547,0.4725 -1.0547,1.0547 0,0.5822 0.4725,1.0546 1.0547,1.0546 2.3709,0 3.5085,0.9168 4.8247,1.9785 1.4217,1.1461 3.0332,2.444 6.1493,2.444 3.1161,0 4.7263,-1.2979 6.1479,-2.444 1.3162,-1.0631 2.4538,-1.9785 4.8247,-1.9785 2.3849,0 3.5254,0.9183 4.8472,1.9828 1.4217,1.1446 3.0346,2.4412 6.1465,2.4412 3.1162,0 4.7277,-1.2979 6.1493,-2.444 1.3162,-1.0631 2.4538,-1.9785 4.8247,-1.9785 2.3849,0 3.5254,0.9183 4.8472,1.9827 1.4217,1.1446 3.0332,2.4412 6.1451,2.4412 3.1162,0 4.7277,-1.2993 6.1507,-2.444 1.3162,-1.0631 2.4524,-1.9785 4.8233,-1.9785 0.7622,0 1.4329,0.0942 2.0474,0.2869 0.5583,0.173 1.1489,-0.1392 1.3218,-0.6933 0.173,-0.5569 -0.1378,-1.1489 -0.6933,-1.3218 -0.8226,-0.2559 -1.6973,-0.3797 -2.676,-0.3797 -3.1161,0 -4.7263,1.2979 -6.1493,2.444 -1.3162,1.0603 -2.4524,1.9785 -4.8247,1.9785 -2.3695,0 -3.5071,-0.9168 -4.8233,-1.9757 -1.4259,-1.1489 -3.0416,-2.4482 -6.169,-2.4482 -3.1162,0 -4.7263,1.2979 -6.1479,2.444 -1.3162,1.0631 -2.4538,1.9785 -4.8247,1.9785 -2.3695,0 -3.5057,-0.9168 -4.8233,-1.9757 -1.4259,-1.1489 -3.0416,-2.4482 -6.169,-2.4482 -3.1162,0 -4.7277,1.2979 -6.1493,2.444 -0.2855,0.2306 -0.5625,0.4514 -0.8451,0.6595 C 23.5633,61.0553 35.6483,51.24 50.0042,51.24 c 15.1026,0 27.7107,10.8475 29.3278,25.233 0.0042,-0.0014 0.0056,-0.0028 0.0084,-0.0042 0.0436,0.3895 0.2967,0.7425 0.6933,0.8803 0.8887,0.3108 1.8435,0.4598 2.9193,0.4598 3.1119,0 4.7234,-1.2965 6.1451,-2.4412 1.3218,-1.0645 2.4637,-1.9827 4.8472,-1.9827 C 94.5275,73.385 95,72.9125 95,72.3303 94.9986,71.7481 94.5261,71.277 93.9439,71.277 Z"
         id="path28" />
    </g>
  </g>
</svg>
