<?xml version="1.0" encoding="UTF-8" standalone="no"?>
<svg
   version="1.1"
   width="315.39108"
   height="194.93268"
   viewBox="0 0 315.39109 194.93268"
   id="svg36"
   sodipodi:docname="Bruecke_ohne.svg"
   inkscape:export-filename="test"
   inkscape:export-xdpi="96"
   inkscape:export-ydpi="96"
   xmlns:inkscape="http://www.inkscape.org/namespaces/inkscape"
   xmlns:sodipodi="http://sodipodi.sourceforge.net/DTD/sodipodi-0.dtd"
   xmlns="http://www.w3.org/2000/svg"
   xmlns:svg="http://www.w3.org/2000/svg">
  <sodipodi:namedview
     id="namedview204"
     pagecolor="#ffffff"
     bordercolor="#111111"
     borderopacity="1"
     inkscape:showpageshadow="0"
     inkscape:pageopacity="0"
     inkscape:pagecheckerboard="1"
     inkscape:deskcolor="#d1d1d1"
     showgrid="false" />
  <defs
     id="defs40" />
  <g
     transform="matrix(7.3891626,0,0,7.3891626,1.0307972e-5,-125.61576)"
     id="g34">
    <defs
       id="SvgjsDefs4487" />
    <g
       id="SvgjsG4488"
       featureKey="symbolFeature-0"
       transform="matrix(0.47425478,0,0,0.47425478,-2.3712802,6.4776547)"
       fill="#000000">
      <path
         d="m 77.6179,49.1785 h -3.3847 c -0.5822,0 -1.0547,-0.4725 -1.0547,-1.0547 0,-0.5822 0.4725,-1.0547 1.0547,-1.0547 h 3.3847 c 0.5822,0 1.0547,0.4725 1.0547,1.0547 -1e-4,0.5822 -0.4725,1.0547 -1.0547,1.0547 z m 4.9301,2.9727 c 0,-0.5822 -0.4725,-1.0547 -1.0546,-1.0547 h -3.3861 c -0.5822,0 -1.0547,0.4725 -1.0547,1.0547 0,0.5822 0.4725,1.0547 1.0547,1.0547 h 3.3861 c 0.5836,-10e-5 1.0546,-0.4726 1.0546,-1.0547 z m 5.0779,7.2799 c 0,-0.5822 -0.4725,-1.0547 -1.0547,-1.0547 h -3.3847 c -0.5822,0 -1.0547,0.4725 -1.0547,1.0547 0,0.5822 0.4725,1.0547 1.0547,1.0547 h 3.3847 c 0.5822,-0.0014 1.0547,-0.4725 1.0547,-1.0547 z M 18.1916,58.0783 c 0,-0.5822 -0.4725,-1.0547 -1.0547,-1.0547 h -3.3861 c -0.5822,0 -1.0547,0.4725 -1.0547,1.0547 0,0.5822 0.4725,1.0547 1.0547,1.0547 h 3.3861 c 0.5822,-0.0014 1.0547,-0.4725 1.0547,-1.0547 z m 3.3848,-4.4225 c 0,-0.5822 -0.4725,-1.0547 -1.0547,-1.0547 H 17.137 c -0.5822,0 -1.0547,0.4725 -1.0547,1.0547 0,0.5822 0.4725,1.0547 1.0547,1.0547 h 3.3847 c 0.5836,0 1.0547,-0.4711 1.0547,-1.0547 z M 5.0703,31.2732 C 4.8636,30.7276 5.1378,30.1201 5.682,29.912 c 6.671,-2.5368 13.8961,-4.483 21.4714,-5.7879 0.5779,-0.0942 1.0624,0.324 1.2192,0.8606 0.0337,0.1153 0.0464,0.2966 0.0464,0.4169 v 7.1176 c 4.2777,-0.7003 8.62,-1.1756 12.9891,-1.4526 v -6.4882 c -2.6704,0.1716 -5.3422,0.4205 -8.0041,0.7523 -0.5765,0.0816 -1.1053,-0.3375 -1.177,-0.9154 -0.0717,-0.5779 0.3375,-1.1053 0.9154,-1.177 21.1775,-2.6394 42.8991,-0.27 61.1686,6.6753 0.5442,0.2081 0.8184,0.8156 0.6117,1.3612 -0.1603,0.4205 -0.5597,0.6792 -0.9857,0.6792 -0.1252,0 -0.2503,-0.0225 -0.3741,-0.0689 -1.5721,-0.5976 -3.1808,-1.1489 -4.8036,-1.6776 v 6.3898 c 1.6804,0.5358 3.3426,1.1067 4.978,1.717 0.5456,0.2039 0.8226,0.8114 0.6201,1.357 -0.1603,0.4247 -0.5611,0.6862 -0.9886,0.6862 -0.1223,0 -0.2475,-0.0211 -0.3684,-0.0675 C 66.8801,30.5422 33.1227,30.5436 7.0039,40.29 6.4569,40.4939 5.8494,40.2169 5.6469,39.6713 5.443,39.1255 5.72,38.518 6.2656,38.3141 7.8954,37.7052 9.5519,37.1385 11.2267,36.6027 v -6.401 c -1.627,0.5287 -3.2286,1.087 -4.7952,1.6832 -0.1237,0.0464 -0.2503,0.0689 -0.3755,0.0689 -0.4246,0 -0.8254,-0.2587 -0.9857,-0.6806 z m 66.5009,1.2431 V 26.0407 C 67.3259,25.339 62.9948,24.8539 58.6158,24.5768 v 6.4896 c 4.3579,0.2771 8.689,0.751 12.9554,1.4499 z M 86.6528,29.5295 C 82.4609,28.2569 78.1185,27.2261 73.6791,26.4133 v 6.47 c 4.4197,0.8001 8.755,1.8351 12.9737,3.0922 0,1e-4 0,-6.446 0,-6.446 z m -43.1354,1.4034 c 4.3255,-0.2067 8.6665,-0.2053 12.9905,0.0014 v -6.484 C 52.2063,24.2464 47.864,24.2576 43.5174,24.4686 Z m -17.2092,1.9533 v -6.4475 c -4.4731,0.8156 -8.8057,1.866 -12.9723,3.1288 v 6.4137 c 4.2187,-1.2585 8.5526,-2.2949 12.9723,-3.095 z M 6.0561,47.5866 c 0.1252,0 0.2517,-0.0225 0.3755,-0.0689 26.4648,-10.0586 60.6665,-10.0614 87.1313,0 0.547,0.2067 1.1531,-0.0661 1.3598,-0.6117 0.2081,-0.5456 -0.0675,-1.1545 -0.6117,-1.3612 -26.919,-10.233 -61.7085,-10.2301 -88.6304,0 -0.5442,0.2081 -0.8184,0.8156 -0.6117,1.3612 0.1617,0.4205 0.5625,0.6806 0.9872,0.6806 z M 93.9439,71.277 c -3.1274,0 -4.7431,1.2993 -6.169,2.4482 -1.3162,1.0589 -2.4552,1.9757 -4.8233,1.9757 -0.6033,0 -1.1362,-0.0802 -1.6439,-0.1997 C 79.2266,60.4197 65.9183,49.1292 50,49.1292 c -15.9197,0 -29.2336,11.2989 -31.3092,26.3861 -0.4851,0.1167 -1.0251,0.1856 -1.6593,0.1856 -2.3709,0 -3.5085,-0.9168 -4.8247,-1.9785 -1.4217,-1.1461 -3.0318,-2.444 -6.1479,-2.444 -0.5822,0 -1.0547,0.4725 -1.0547,1.0547 0,0.5822 0.4725,1.0546 1.0547,1.0546 2.3709,0 3.5085,0.9168 4.8247,1.9785 1.4217,1.1461 3.0332,2.444 6.1493,2.444 3.1161,0 4.7263,-1.2979 6.1479,-2.444 1.3162,-1.0631 2.4538,-1.9785 4.8247,-1.9785 2.3849,0 3.5254,0.9183 4.8472,1.9828 1.4217,1.1446 3.0346,2.4412 6.1465,2.4412 3.1162,0 4.7277,-1.2979 6.1493,-2.444 1.3162,-1.0631 2.4538,-1.9785 4.8247,-1.9785 2.3849,0 3.5254,0.9183 4.8472,1.9827 1.4217,1.1446 3.0332,2.4412 6.1451,2.4412 3.1162,0 4.7277,-1.2993 6.1507,-2.444 1.3162,-1.0631 2.4524,-1.9785 4.8233,-1.9785 0.7622,0 1.4329,0.0942 2.0474,0.2869 0.5583,0.173 1.1489,-0.1392 1.3218,-0.6933 0.173,-0.5569 -0.1378,-1.1489 -0.6933,-1.3218 -0.8226,-0.2559 -1.6973,-0.3797 -2.676,-0.3797 -3.1161,0 -4.7263,1.2979 -6.1493,2.444 -1.3162,1.0603 -2.4524,1.9785 -4.8247,1.9785 -2.3695,0 -3.5071,-0.9168 -4.8233,-1.9757 -1.4259,-1.1489 -3.0416,-2.4482 -6.169,-2.4482 -3.1162,0 -4.7263,1.2979 -6.1479,2.444 -1.3162,1.0631 -2.4538,1.9785 -4.8247,1.9785 -2.3695,0 -3.5057,-0.9168 -4.8233,-1.9757 -1.4259,-1.1489 -3.0416,-2.4482 -6.169,-2.4482 -3.1162,0 -4.7277,1.2979 -6.1493,2.444 -0.2855,0.2306 -0.5625,0.4514 -0.8451,0.6595 C 23.5633,61.0553 35.6483,51.24 50.0042,51.24 c 15.1026,0 27.7107,10.8475 29.3278,25.233 0.0042,-0.0014 0.0056,-0.0028 0.0084,-0.0042 0.0436,0.3895 0.2967,0.7425 0.6933,0.8803 0.8887,0.3108 1.8435,0.4598 2.9193,0.4598 3.1119,0 4.7234,-1.2965 6.1451,-2.4412 1.3218,-1.0645 2.4637,-1.9827 4.8472,-1.9827 C 94.5275,73.385 95,72.9125 95,72.3303 94.9986,71.7481 94.5261,71.277 93.9439,71.277 Z"
         id="path23" />
    </g>
    <g
       id="SvgjsG4489"
       featureKey="textGroupContainer"
       transform="translate(405)"
       fill="#000000">
      <rect
         y="0"
         height="1"
         width="1"
         opacity="0"
         id="rect26"
         x="0" />
      <rect
         y="0"
         x="-342"
         width="3"
         height="60"
         id="rect28" />
    </g>
    <g
       id="SvgjsG4490"
       featureKey="vMvB0T-0"
       transform="matrix(1.4937705,0,0,1.4937705,79.847556,14.504068)"
       fill="#000000">
      <path
         d="M 4.6582,4.297 V 4.28723 c 2.1582,0 4.1992,0.77148 5.7422,2.3145 2.8125,2.8125 2.8125,8.291 0,11.094 -1.543,1.5332 -3.584,2.3047 -5.7422,2.3047 H 0.7715 V 4.2974344 H 4.6582 Z M 4.668,16.8457 h 0.00977 c 1.2891,0 2.4805,-0.36133 3.3984,-1.2793 0.9179,-0.91797 1.2793,-2.1289 1.2793,-3.4277 0,-1.2891 -0.36133,-2.5 -1.2891,-3.4277 C 7.1484,7.78327 5.93747,7.4219 4.64837,7.4219 H 3.92571 v 9.4238 H 4.6679 Z M 13.681641,20 V 4.258 h 3.1543 V 20 Z M 18.398437,4.258 h 9.4434 v 3.1445 h -6.2891 v 3.1543 h 4.7168 v 3.1445 h -4.7168 v 3.1445 h 6.2891 v 3.1543 h -6.2891 -3.1543 V 4.2581 Z M 39.091766,4.307 H 39.082 c 2.1094,0 3.877,1.748 3.916,3.8379 0,0.41992 -0.14648,0.9082 -0.27344,1.2988 1.7969,0.78125 3.4082,2.5586 3.4082,5.0488 0,1.5039 -0.53711,2.793 -1.6113,3.8672 -1.07419,1.0742 -2.3633,1.6113 -3.8672,1.6113 h -5.4785 V 4.307 h 3.916 z m -0.791,5.009 h 0.78125 c 0.52734,0 0.94727,-0.40039 0.94727,-0.91797 0,-0.52734 -0.41992,-0.9668 -0.94727,-0.9668 h -0.78125 v 1.8848 z m 2.3438,7.5199 c 1.2891,0 2.3535,-1.0547 2.3535,-2.334 0,-0.6543 -0.23438,-1.2109 -0.69336,-1.6699 -0.45898,-0.459 -1.0156,-0.48828 -1.6602,-0.48828 h -2.3438 v 4.4922 h 2.3438 z M 47.314453,20 47.304688,4.238 h 5.1172 c 1.5137,0 3.0078,0.52734 4.0918,1.6113 1.084,1.08396 1.5234,2.0996 1.5234,3.6133 v 0.48828 c 0,1.1719 -0.33203,2.0313 -0.99609,2.9688 -0.66406,0.9375 -1.2207,1.2109 -2.2559,1.6016 l 3.5547,5.4785 h -3.8477 l -4.0234,-6.1523 v 6.1523 h -3.1543 z m 3.14455,-8.1836 2.2559,0.0098 c 0.6543,0 0.98633,-0.16602 1.4453,-0.625 0.45897,-0.45898 0.625,-0.98633 0.625,-1.6406004 0,-0.64453 -0.16602,-1.0742 -0.625,-1.543 -0.45898,-0.4688 -1.2793,-0.63477 -1.9336,-0.63477 h -1.7676 V 11.816396 Z M 63.974637,0.332 c 0.644531,0 1.1719,0.52734 1.1719,1.1719 0,0.64456 -0.52734,1.1719 -1.1719,1.1719 -0.64456,0 -1.1719,-0.52734 -1.1719,-1.1719 0,-0.64456 0.52734,-1.1719 1.1719,-1.1719 z m 4.375,0 c 0.644531,0 1.1719,0.52734 1.1719,1.1719 0,0.64456 -0.52734,1.1719 -1.1719,1.1719 -0.644559,0 -1.171899,-0.52734 -1.171899,-1.1719 0,-0.64456 0.52734,-1.1719 1.171899,-1.1719 z m 0.9378,3.926 h 3.1738 v 6.3281 3.1641 c 0,1.748 -0.61523,3.2422 -1.8555,4.4824 -1.24027,1.2402 -2.7344,1.8555 -4.4727,1.8555 -1.748,0 -3.2422,-0.61523 -4.4824,-1.8555 -1.2402,-1.24027 -1.8555,-2.7344 -1.8555,-4.4824 V 10.5861 4.258 h 3.1738 v 6.3281 2.832 0.32227 c 0,0.86914 0.3125,1.6113 0.92773,2.2266 0.61523,0.6153 1.3574,0.92773 2.2266,0.92773 0.85938,0 1.6016,-0.3125 2.2266,-0.92773 0.625,-0.61523 0.9375,-1.3574 0.9375,-2.2266 V 13.4181 10.5861 4.258 Z m 12.284785,-0.078 -0.0098,0.039063 c 1.0938,0 2.1191,0.20508 3.0859,0.625 0.9668,0.41992 1.8164,0.98633 2.5488,1.6992 l -2.2461,2.2461 c -0.94727,-0.9375 -2.0703,-1.4063 -3.3691,-1.4063 -1.3184,0 -2.4414,0.46875 -3.3691,1.4063 -0.9277,0.93755 -1.3965,2.0605 -1.3965,3.3691 0,1.3184 0.46875,2.4414 1.3965,3.3691 0.92775,0.9277 2.0508,1.3965 3.3691,1.3965 1.3183,0 2.4414,-0.46875 3.3789,-1.4063 l 2.2461,2.2461 c -0.73242,0.72266 -1.582,1.2891 -2.5488,1.709 -0.9668,0.4199 -1.9922,0.625 -3.0859,0.625 -2.1875,0 -4.0625,-0.78125 -5.6152,-2.334 -1.5527,-1.55275 -2.334,-3.4277 -2.334,-5.6152 0,-2.1875 0.78125,-4.0625 2.334,-5.625 1.55275,-1.5625 3.4277,-2.3438 5.6152,-2.3438 z m 6.796919,0.078 h 3.1543 v 5.9766 l 3.4668,-5.9766 h 3.6426 l -4.6484,7.998 5.4004,7.7441 h -3.8379 l -4.0234,-5.7813 v 5.7813 h -3.1543 V 4.2581 Z m 12.187499,0 h 9.4434 v 3.1445 h -6.2891 v 3.1543 h 4.7168 v 3.1445 h -4.7168 v 3.1445 h 6.2891 v 3.1543 h -6.2891 -3.1543 V 4.2581 Z m 10.9082,-0.293 9.4434,8.9941 V 4.2579 h 3.1543 v 16.035 l -9.4434,-9.0039 v 8.7109 h -3.1543 V 3.9649 Z m 18.08591,0.342 h -0.01 c 2.1094,0 3.877,1.748 3.916,3.8379 0,0.41992 -0.14648,0.9082 -0.27344,1.2988 1.7969,0.78125 3.4082,2.5586 3.4082,5.0488 0,1.5039 -0.53711,2.793 -1.6113,3.8672 -1.07419,1.0742 -2.3633,1.6113 -3.8672,1.6113 h -5.4785 V 4.307 h 3.916 z m -0.791,5.009 h 0.78125 c 0.52734,0 0.94727,-0.40039 0.94727,-0.91797 0,-0.52734 -0.41992,-0.9668 -0.94727,-0.9668 h -0.78125 v 1.8848 z m 2.3438,7.5199 c 1.2891,0 2.3535,-1.0547 2.3535,-2.334 0,-0.6543 -0.23438,-1.2109 -0.69336,-1.6699 -0.45898,-0.459 -1.0156,-0.48828 -1.6602,-0.48828 h -2.3438 v 4.4922 h 2.3438 z m 12.02144,-2.041 h 2.7832 l -1.3867,-3.2715 z m -1.289,2.7832 -0.0195,-0.0098 c -0.35156,0.80078 -0.71289,1.5918 -1.0742,2.3926 h -3.3887 l 7.1387,-15.9959996 7.1582,15.9959996 h -3.3984 c -0.35156,-0.79102 -0.70313,-1.5918 -1.0547,-2.3828 h -5.3613 z M 161.06478,4.258 h 3.1738 v 6.3281 3.1641 c 0,1.748 -0.61523,3.2422 -1.8555,4.4824 -1.24027,1.2402 -2.7344,1.8555 -4.4727,1.8555 -1.748,0 -3.2422,-0.61523 -4.4824,-1.8555 -1.2402,-1.24027 -1.8555,-2.7344 -1.8555,-4.4824 V 10.5861 4.258 h 3.1738 v 6.3281 2.832 0.32227 c 0,0.86914 0.3125,1.6113 0.92773,2.2266 0.61523,0.6153 1.3574,0.92773 2.2266,0.92773 0.85938,0 1.6016,-0.3125 2.2266,-0.92773 0.625,-0.61523 0.9375,-1.3574 0.9375,-2.2266 V 13.4181 10.5861 4.258 Z m 4.72624,0 h 9.4434 v 3.1445 h -6.2891 v 3.1543 h 4.7168 v 3.1445 h -4.7168 v 3.1445 h 6.2891 v 3.1543 h -6.2891 -3.1543 V 4.2581 Z m 10.9082,15.742 -0.01,-15.762 h 5.1172 c 1.5137,0 3.0078,0.52734 4.0918,1.6113 1.084,1.08396 1.5234,2.0996 1.5234,3.6133 v 0.48828 c 0,1.1719 -0.33203,2.0313 -0.99609,2.9688 -0.66406,0.9375 -1.2207,1.2109 -2.2559,1.6016 l 3.5547,5.4785 h -3.8477 l -4.0234,-6.1523 v 6.1523 h -3.1543 z m 3.14455,-8.1836 2.2559,0.0098 c 0.6543,0 0.98633,-0.16602 1.4453,-0.625 0.45897,-0.45898 0.625,-0.98633 0.625,-1.6406004 0,-0.64453 -0.16602,-1.0742 -0.625,-1.543 -0.45898,-0.4688 -1.2793,-0.63477 -1.9336,-0.63477 h -1.7676 V 11.816396 Z M 189.18945,20 V 4.258 h 3.1543 V 20 Z m 4.7168,-16.035 9.4434,8.9941 V 4.2579 h 3.1543 v 16.035 l -9.4434,-9.0039 v 8.7109 h -3.1543 V 3.9649 Z"
         id="path31" />
    </g>
  </g>
  <path
     style="fill:#ffffff;fill-opacity:1;stroke-width:0.261518"
     d="m 36.438429,194.3288 c -2.551174,-0.48421 -5.060026,-1.32849 -7.444966,-2.50536 -2.476597,-1.22211 -4.266109,-2.43112 -8.236405,-5.56458 -4.018937,-3.17186 -5.225496,-3.97927 -7.504708,-5.02201 -2.413297,-1.10408 -4.6605077,-1.64261 -7.7604655,-1.85974 -1.3664331,-0.0957 -2.8643177,-0.32823 -3.3286321,-0.5167 -2.37976948,-0.96601 -2.5365555,-4.74673 -0.2545483,-6.13815 1.0528569,-0.64197 3.8136476,-0.68577 7.1448009,-0.11336 5.781079,0.9934 9.499216,2.8613 15.999747,8.03788 3.807885,3.03234 5.964595,4.43846 8.297101,5.40948 3.451181,1.43673 8.428604,1.93953 12.785434,1.29153 l 1.960555,-0.2916 0.1697,-1.21213 c 0.867278,-6.19487 2.862242,-14.00906 5.198029,-20.36046 10.499314,-28.54944 33.162415,-51.50047 62.127019,-62.91635 27.14764,-10.699757 57.05143,-10.700001 84.2089,-6.9e-4 35.20291,13.869 60.83155,44.83994 66.92824,80.87946 0.30331,1.79294 0.64051,3.34891 0.7493,3.45772 0.63502,0.63501 6.78713,0.92806 9.73188,0.46357 4.43234,-0.69913 7.09052,-2.07492 13.20516,-6.83453 4.68026,-3.64308 7.53698,-5.40418 10.51311,-6.48107 3.1048,-1.12345 5.45051,-1.59902 8.72166,-1.76823 2.26878,-0.11736 2.90827,-0.0647 3.60747,0.29681 1.7648,0.91262 2.40492,3.33001 1.34302,5.07176 -0.69825,1.14525 -1.71137,1.51585 -4.70063,1.71948 -5.12121,0.34886 -8.71934,1.80471 -13.4229,5.43109 -1.55726,1.20064 -3.79324,2.91751 -4.96885,3.81528 -2.89218,2.20868 -7.24416,4.3648 -10.50603,5.20505 -4.98166,1.28326 -12.40365,1.13019 -16.99869,-0.35058 -2.70587,-0.87199 -3.07591,-1.42539 -3.66091,-5.47505 C 257.2234,166.41021 247.78161,147.49921 232.48484,132.20244 204.4945,104.2121 161.903,94.440411 123.5674,107.21372 89.6272,118.52249 64.219519,146.07727 56.654744,179.7809 c -0.369667,1.64698 -0.617673,3.04896 -0.551127,3.11551 0.06655,0.0666 0.856925,-0.45442 1.756397,-1.1577 9.524282,-7.44691 13.369707,-9.14586 21.400393,-9.45495 4.478052,-0.17236 7.895913,0.28924 11.468402,1.54886 3.866922,1.36344 6.377025,2.88891 11.547991,7.01812 6.93646,5.53901 11.10585,7.07059 18.26142,6.70815 6.44916,-0.32666 8.84917,-1.46505 17.61618,-8.35584 3.19471,-2.51103 5.68623,-3.98314 8.61345,-5.08927 3.96173,-1.49705 5.53813,-1.74474 11.05845,-1.73758 4.54656,0.006 5.19058,0.0658 7.57789,0.70454 1.43497,0.38396 3.81506,1.28716 5.28908,2.00712 2.48256,1.21256 4.0296,2.28227 10.44708,7.2237 2.89508,2.22919 5.82026,3.79011 8.60598,4.59226 1.78892,0.51512 2.67648,0.59818 6.3924,0.59818 3.71592,0 4.60349,-0.0831 6.3924,-0.59818 2.72063,-0.78341 5.5072,-2.25669 8.25263,-4.36324 1.2226,-0.93809 3.45858,-2.65382 4.96885,-3.81273 3.33781,-2.56129 7.51698,-4.68425 11.11452,-5.64604 2.3863,-0.63797 3.05007,-0.70039 7.58404,-0.71322 4.32162,-0.0122 5.27475,0.0629 7.31739,0.57678 2.67453,0.67285 3.35161,1.04228 4.07016,2.22073 1.18596,1.94503 0.14468,4.50596 -2.09308,5.14774 -0.63532,0.18221 -1.40971,0.1019 -3.10888,-0.32241 -3.18854,-0.79623 -9.16545,-0.78503 -12.20052,0.0229 -2.97457,0.79179 -5.89049,2.34393 -9.03944,4.81168 -8.80002,6.89638 -11.69927,8.44375 -17.81477,9.50798 -3.59603,0.6258 -9.92587,0.39286 -13.29185,-0.48913 -4.5783,-1.19966 -7.31963,-2.70301 -12.92239,-7.08664 -6.61164,-5.173 -9.39734,-6.57352 -14.40404,-7.24168 -2.69221,-0.35929 -6.65583,-0.17907 -9.25997,0.42102 -2.4196,0.55757 -6.03947,2.40349 -8.65326,4.41264 -1.2226,0.93977 -3.45858,2.65544 -4.96885,3.81258 -6.10397,4.67677 -11.49339,6.53805 -18.92896,6.53727 -3.85614,-5.2e-4 -6.70265,-0.42104 -9.73303,-1.43831 -3.98984,-1.33934 -6.0069,-2.59861 -13.873662,-8.66142 -4.504381,-3.47146 -8.205992,-4.92986 -13.298509,-5.23949 -5.011206,-0.30468 -9.819205,0.80778 -13.518904,3.12798 -1.050872,0.65904 -3.264034,2.27938 -4.918137,3.60076 -5.716762,4.56684 -9.247863,6.5459 -13.829381,7.75086 -2.124504,0.55876 -3.22689,0.67578 -7.092084,0.75285 -3.123517,0.0623 -5.171564,-0.0217 -6.450574,-0.26444 z"
     id="path344" />
  <path
     style="fill:#ffffff;fill-opacity:1;stroke-width:0.261518"
     d="M 1.9265307,88.283859 C 0.73131974,87.555054 0.26138481,86.738633 0.26249589,85.392918 0.26378518,83.82998 0.96985402,82.724304 2.3891366,82.062675 4.1334674,81.249521 15.46115,77.265342 21.182983,75.452495 57.156657,64.054966 93.995128,57.676795 136.25104,55.529742 c 8.29975,-0.421716 34.58925,-0.421716 42.889,0 37.98758,1.930176 71.59638,7.29583 104.08429,16.617087 5.67788,1.629066 15.89906,4.8144 17.78325,5.541974 0.50342,0.194396 2.79824,1.015942 5.0996,1.825657 6.61275,2.326647 7.88033,2.908305 8.49093,3.896272 1.41782,2.29408 -0.22263,5.374734 -2.86209,5.374734 -0.44235,0 -3.5374,-0.988429 -6.87782,-2.19651 C 270.62958,74.21005 231.71105,66.24633 191.69292,63.432469 169.83018,61.895198 146.84963,61.849369 125.39803,63.30026 84.581133,66.060934 45.238245,74.037632 10.532894,86.588956 7.1924589,87.797037 4.073853,88.785027 3.6026587,88.784488 3.1314647,88.783965 2.3772069,88.558667 1.9265307,88.283859 Z"
     id="path1437" />
  <path
     style="fill:#ffffff;fill-opacity:1;stroke-width:0.261518"
     d="M 3.6457617,62.711225 C 1.8844395,61.22917 1.7214925,59.092296 3.2540475,57.574313 4.1602992,56.676677 4.9032612,56.386423 15.42958,52.817682 l 6.407199,-2.172237 0.06812,-11.383466 0.06812,-11.383468 -5.298485,1.789863 c -2.914166,0.984423 -6.9275626,2.390588 -8.9186581,3.124814 -1.9910956,0.734223 -3.8562421,1.334952 -4.14477,1.334952 -0.9119525,0 -2.3469754,-0.843468 -2.85644526,-1.678938 C -0.25235303,30.797819 0.39621099,28.336424 2.0658546,27.473019 4.1292601,26.40599 15.543598,22.431048 24.974999,19.495113 35.472051,16.227447 46.346686,13.364367 58.187824,10.750822 65.814522,9.0674772 77.067901,6.9302352 78.304644,6.9302352 c 1.094925,0 2.445468,0.919664 3.066357,2.0880663 0.452788,0.8520633 0.48423,1.7648245 0.48423,14.0566095 v 13.145375 l 0.588416,-0.001 c 0.323629,-5.23e-4 1.647566,-0.172555 2.942081,-0.382167 9.585036,-1.552049 23.399472,-3.15502 34.912692,-4.051125 1.94178,-0.151134 4.3837,-0.343264 5.42651,-0.426958 l 1.89601,-0.152172 V 19.71142 8.2160211 l -1.89601,0.1485152 c -8.19587,0.6419875 -15.35748,1.2947843 -20.46047,1.8650167 -3.30636,0.36947 -6.413917,0.606472 -6.905674,0.526671 -1.71994,-0.279108 -3.147271,-2.3872931 -2.772269,-4.0946719 0.237312,-1.0804752 1.281338,-2.2557492 2.29527,-2.5838166 0.462757,-0.1497347 2.841993,-0.5058878 5.287183,-0.7914567 27.1086,-3.16594963 57.32512,-3.96036144 84.60118,-2.2242195 42.44076,2.7013869 82.86971,10.8408477 119.349,24.0282447 2.92137,1.056093 5.68868,2.115156 6.14953,2.353477 1.67902,0.868259 2.37751,3.244632 1.42679,4.85411 -0.48648,0.823508 -2.09725,1.830249 -2.92838,1.830249 -0.29993,0 -2.34336,-0.65836 -4.54098,-1.463018 -5.36434,-1.964177 -13.01189,-4.551904 -13.45229,-4.551904 -0.29564,0 -0.34431,1.904209 -0.28767,11.257182 l 0.0682,11.257183 6.4072,2.180347 c 10.58205,3.601034 11.27149,3.870926 12.17554,4.766383 1.13297,1.122206 1.35351,2.406245 0.65947,3.839912 -0.62788,1.29704 -1.69265,2.003965 -3.01839,2.003965 -0.52675,0 -3.38429,-0.869232 -6.36685,-1.936728 C 272.25118,50.328809 236.18411,42.714068 199.277,39.495863 c -15.84536,-1.381677 -28.05671,-1.80735 -46.65009,-1.626173 -14.8191,0.1444 -17.9483,0.2602 -29.84401,1.104413 C 84.306149,41.704712 45.51841,49.565712 12.364424,61.352287 5.8607857,63.664394 4.947679,63.806718 3.6457617,62.711225 Z M 35.003211,46.821749 c 10.27767,-2.920432 19.861463,-5.225983 31.553199,-7.590678 l 8.107068,-1.639684 0.06814,-11.429187 0.06814,-11.429188 -0.721939,0.139509 c -17.09782,3.304013 -30.648587,6.546602 -42.89176,10.263655 l -2.157527,0.655029 v 11.377843 c 0,10.716461 0.0266,11.369488 0.457658,11.234092 0.251711,-0.07906 2.73437,-0.79069 5.517021,-1.581391 z m 251.359339,-9.78642 v -11.47632 l -0.58842,-0.128271 c -0.32362,-0.07055 -2.88324,-0.791937 -5.68802,-1.603084 -9.62487,-2.783528 -22.55935,-5.884282 -33.34133,-7.992848 -2.97837,-0.582462 -5.58131,-1.059021 -5.78432,-1.059021 -0.3132,0 -0.35879,1.727949 -0.30098,11.407802 l 0.0681,11.4078 8.10706,1.639684 c 11.89537,2.405879 22.38924,4.946697 32.29751,7.819993 2.66095,0.771649 4.92636,1.415955 5.03423,1.431789 0.10788,0.01585 0.19614,-5.13555 0.19614,-11.447524 z m -52.8267,-12.173466 c 0,-10.59139 -0.0309,-11.367608 -0.45766,-11.494426 C 232.30407,13.137388 222.4491,11.69299 216.92944,11.000586 208.49981,9.9431472 201.58242,9.268864 189.92767,8.3685483 L 187.77015,8.2018816 V 19.699441 31.197 l 2.15752,0.167113 c 7.55055,0.584834 9.49959,0.750495 14.31813,1.216994 6.78439,0.656819 18.8582,2.159148 23.79817,2.961172 2.08561,0.338609 4.17448,0.629681 4.64195,0.646829 l 0.84993,0.03118 z m -75.84031,5.474261 c 5.39382,0 12.77844,0.08851 16.41028,0.196693 l 6.60333,0.196693 V 19.22215 7.7147902 l -0.98069,-0.00501 c -0.53938,-0.00276 -5.33497,-0.1225514 -10.65687,-0.2662108 -9.069,-0.2448086 -32.41718,0.053652 -33.67048,0.43041 -0.42673,0.1282789 -0.45766,0.9050743 -0.45766,11.4931346 v 11.355558 l 6.47258,-0.193272 c 3.55991,-0.1063 10.8857,-0.193273 16.27951,-0.193273 z"
     id="path1439" />
  <path
     style="fill:#ffffff;fill-opacity:1;stroke-width:0.261518"
     d="m 41.076965,113.43316 c -1.81462,-0.9253 -2.534228,-2.8855 -1.702635,-4.63795 0.904716,-1.90655 1.168499,-1.9629 9.193596,-1.964 l 7.117275,-9.8e-4 0.918061,0.80607 c 1.469927,1.29061 1.683893,3.10517 0.567127,4.80957 -0.856044,1.30649 -1.692187,1.44539 -8.698265,1.44495 -5.670005,-3.7e-4 -6.612751,-0.0587 -7.395159,-0.45766 z"
     id="path1441" />
  <path
     style="fill:#ffffff;fill-opacity:1;stroke-width:0.261518"
     d="m 29.060306,128.87363 c -2.428568,-1.1964 -2.462751,-4.96444 -0.05633,-6.20885 1.202876,-0.62203 13.796577,-0.59558 15.118586,0.0318 2.527626,1.19943 2.506197,4.99827 -0.035,6.20415 -1.334618,0.63331 -13.732082,0.61099 -15.027264,-0.0271 z"
     id="path1443" />
  <path
     style="fill:#ffffff;fill-opacity:1;stroke-width:0.261518"
     d="m 241.77368,94.351131 c -0.95789,-0.232709 -2.17668,-1.364215 -2.4891,-2.310844 -0.64029,-1.940088 0.48261,-3.973513 2.50419,-4.534776 1.30685,-0.362829 12.19577,-0.381238 13.4862,-0.0228 1.20757,0.335424 2.24019,1.36607 2.61197,2.606976 0.24717,0.824983 0.20954,1.154725 -0.2505,2.194711 -0.42983,0.971704 -0.7727,1.328853 -1.66411,1.733424 -1.01857,0.462283 -1.70506,0.507278 -7.39918,0.484966 -3.45204,-0.01353 -6.5118,-0.08177 -6.79947,-0.151657 z"
     id="path1445" />
  <path
     style="fill:#ffffff;fill-opacity:1;stroke-width:0.261518"
     d="m 255.37263,108.48117 c -0.28767,-0.0743 -0.90171,-0.42043 -1.36453,-0.76914 -1.79765,-1.35444 -1.74273,-4.10331 0.11023,-5.51688 l 0.95174,-0.72605 h 6.95075 c 6.3478,0 7.02142,0.0428 7.76525,0.49311 2.30508,1.39553 2.30508,4.67926 0,6.07479 -0.73469,0.44479 -1.45504,0.49732 -7.35245,0.53619 -3.59587,0.0237 -6.77332,-0.0177 -7.06099,-0.092 z"
     id="path1447" />
  <path
     style="fill:#ffffff;fill-opacity:1;stroke-width:0.261518"
     d="m 272.7636,133.8441 c -0.65997,-0.24014 -1.77535,-1.40481 -2.10307,-2.196 -0.38781,-0.93625 -0.14572,-2.31914 0.56392,-3.2213 1.0958,-1.39308 1.49078,-1.45969 8.65254,-1.45925 5.78224,3.5e-4 6.72936,0.058 7.51304,0.45765 1.30201,0.66391 1.93639,1.66044 1.93639,3.04181 0,1.35881 -0.55128,2.32731 -1.73587,3.0496 -0.77423,0.47207 -1.33603,0.50812 -7.6352,0.4899 -3.73971,-0.0108 -6.976,-0.0839 -7.19175,-0.16241 z"
     id="path1449" />
  <path
     style="fill:#ffffff;fill-opacity:1;stroke-width:0.00817245"
     d="m 44.253802,106.7203 v -0.13933 l 5.03627,2e-4 c 2.970018,1.2e-4 5.113389,0.003 5.224237,0.008 0.385021,0.0156 0.705798,0.0728 1.044734,0.18614 l 0.140271,0.0469 -5.046486,0.005 c -4.623246,0.004 -5.927603,0.0103 -6.298914,0.0279 l -0.100112,0.005 z"
     id="path2237" />
  <path
     style="fill:#ffffff;fill-opacity:1;stroke-width:0.00817245"
     d="m 56.35311,113.27761 c 0.303127,-0.17311 0.540782,-0.40938 0.792603,-0.78796 0.6448,-0.96938 0.869242,-1.96139 0.661017,-2.92163 -0.09651,-0.44507 -0.305868,-0.89476 -0.601383,-1.29175 -0.212925,-0.28603 -0.393547,-0.46577 -1.017855,-1.01284 -0.270883,-0.23737 -0.490925,-0.43318 -0.488982,-0.43512 0.01196,-0.0119 0.36828,0.15306 0.5239,0.24261 0.504297,0.29021 0.937925,0.69834 1.256841,1.18292 0.309904,0.47089 0.504494,0.99957 0.578448,1.57159 0.02208,0.17081 0.03058,0.55307 0.0163,0.73288 -0.07192,0.90535 -0.451595,1.72045 -1.096341,2.35371 -0.14652,0.1439 -0.265427,0.245 -0.419216,0.35642 l -0.06436,0.0466 -0.103175,-6e-5 -0.103175,-6e-5 z"
     id="path2239" />
  <path
     style="fill:#ffffff;fill-opacity:1;stroke-width:0.00817245"
     d="m 44.253802,113.91614 v -0.0527 l 0.09603,0.004 c 0.272117,0.0112 1.487641,0.0208 3.185211,0.0252 4.602313,0.0117 6.376435,-0.0406 7.543169,-0.22241 0.461255,-0.0719 0.874208,-0.18874 1.140937,-0.32285 l 0.0651,-0.0327 0.101904,0.002 0.101904,0.002 -0.07973,0.0524 c -0.51576,0.33888 -1.123697,0.54191 -1.763254,0.58886 -0.07655,0.006 -1.814919,0.008 -5.25284,0.008 l -5.138426,3e-5 z"
     id="path2241" />
  <path
     style="fill:#ffffff;fill-opacity:1;stroke-width:0.00577879"
     d="m 42.407671,113.96838 c -0.867173,-0.0343 -1.65813,-0.3483 -2.311517,-0.91751 -0.140816,-0.12267 -0.332529,-0.32439 -0.458132,-0.48203 -0.332908,-0.41785 -0.577973,-0.92382 -0.700841,-1.44698 -0.06799,-0.28949 -0.09479,-0.52752 -0.09485,-0.84227 -3.6e-5,-0.2082 0.0047,-0.29162 0.02628,-0.46519 0.08478,-0.68106 0.36564,-1.33558 0.802195,-1.86944 0.222696,-0.27233 0.482861,-0.51147 0.781566,-0.71841 l 0.05573,-0.0386 0.212988,3e-4 0.212989,3.1e-4 -0.09535,0.0334 c -0.523108,0.1834 -0.841761,0.4428 -1.12949,0.91946 -0.110256,0.18265 -0.323863,0.60694 -0.408767,0.81192 -0.153856,0.37146 -0.237783,0.72504 -0.265337,1.11787 -0.0087,0.12334 -0.0035,0.43644 0.009,0.54931 0.07157,0.6456 0.307535,1.22513 0.708239,1.73942 0.253109,0.32485 0.587395,0.62819 0.94757,0.85986 0.176896,0.11377 0.402903,0.2356 0.557825,0.30068 0.496892,0.20875 1.199521,0.29551 2.728981,0.33696 l 0.26149,0.007 v 0.0539 0.0538 l -0.900047,-10e-4 c -0.495026,-6.2e-4 -0.91825,-0.002 -0.940499,-0.003 z"
     id="path2243" />
  <path
     style="fill:#ffffff;fill-opacity:1;stroke-width:0.00577879"
     d="m 40.518295,107.18263 c 0.01209,-0.0117 0.189948,-0.11702 0.272851,-0.1616 0.389291,-0.20931 0.822408,-0.34864 1.259391,-0.40514 0.235702,-0.0305 0.22736,-0.0302 1.245624,-0.033 l 0.952056,-0.003 v 0.13915 0.13915 h -0.03323 c -0.04391,0 -0.377546,0.01 -0.587992,0.0174 -1.278076,0.0458 -2.072491,0.13486 -2.626449,0.29447 l -0.06067,0.0175 h -0.213538 c -0.129832,0 -0.211387,-0.002 -0.208049,-0.005 z"
     id="path2245"
     inkscape:export-filename="path2245.svg"
     inkscape:export-xdpi="96"
     inkscape:export-ydpi="96" />
</svg>
