<?xml version="1.0" encoding="UTF-8" standalone="no"?>
<svg
   version="1.1"
   width="315.39108"
   height="194.93268"
   viewBox="0 0 315.39109 194.93268"
   id="svg36"
   xmlns="http://www.w3.org/2000/svg"
   xmlns:svg="http://www.w3.org/2000/svg">
  <defs
     id="defs40" />
  <g
     transform="matrix(7.3891626,0,0,7.3891626,1.0307972e-5,-125.61576)"
     id="g34">
    <defs
       id="SvgjsDefs4487" />
    <g
       id="SvgjsG4488"
       featureKey="symbolFeature-0"
       transform="matrix(0.47425478,0,0,0.47425478,-2.3712802,6.4776547)"
       fill="#000000">
      <path
         d="m 77.6179,49.1785 h -3.3847 c -0.5822,0 -1.0547,-0.4725 -1.0547,-1.0547 0,-0.5822 0.4725,-1.0547 1.0547,-1.0547 h 3.3847 c 0.5822,0 1.0547,0.4725 1.0547,1.0547 -1e-4,0.5822 -0.4725,1.0547 -1.0547,1.0547 z m 4.9301,2.9727 c 0,-0.5822 -0.4725,-1.0547 -1.0546,-1.0547 h -3.3861 c -0.5822,0 -1.0547,0.4725 -1.0547,1.0547 0,0.5822 0.4725,1.0547 1.0547,1.0547 h 3.3861 c 0.5836,-10e-5 1.0546,-0.4726 1.0546,-1.0547 z m 5.0779,7.2799 c 0,-0.5822 -0.4725,-1.0547 -1.0547,-1.0547 h -3.3847 c -0.5822,0 -1.0547,0.4725 -1.0547,1.0547 0,0.5822 0.4725,1.0547 1.0547,1.0547 h 3.3847 c 0.5822,-0.0014 1.0547,-0.4725 1.0547,-1.0547 z M 18.1916,58.0783 c 0,-0.5822 -0.4725,-1.0547 -1.0547,-1.0547 h -3.3861 c -0.5822,0 -1.0547,0.4725 -1.0547,1.0547 0,0.5822 0.4725,1.0547 1.0547,1.0547 h 3.3861 c 0.5822,-0.0014 1.0547,-0.4725 1.0547,-1.0547 z m 3.3848,-4.4225 c 0,-0.5822 -0.4725,-1.0547 -1.0547,-1.0547 H 17.137 c -0.5822,0 -1.0547,0.4725 -1.0547,1.0547 0,0.5822 0.4725,1.0547 1.0547,1.0547 h 3.3847 c 0.5836,0 1.0547,-0.4711 1.0547,-1.0547 z M 5.0703,31.2732 C 4.8636,30.7276 5.1378,30.1201 5.682,29.912 c 6.671,-2.5368 13.8961,-4.483 21.4714,-5.7879 0.5779,-0.0942 1.0624,0.324 1.2192,0.8606 0.0337,0.1153 0.0464,0.2966 0.0464,0.4169 v 7.1176 c 4.2777,-0.7003 8.62,-1.1756 12.9891,-1.4526 v -6.4882 c -2.6704,0.1716 -5.3422,0.4205 -8.0041,0.7523 -0.5765,0.0816 -1.1053,-0.3375 -1.177,-0.9154 -0.0717,-0.5779 0.3375,-1.1053 0.9154,-1.177 21.1775,-2.6394 42.8991,-0.27 61.1686,6.6753 0.5442,0.2081 0.8184,0.8156 0.6117,1.3612 -0.1603,0.4205 -0.5597,0.6792 -0.9857,0.6792 -0.1252,0 -0.2503,-0.0225 -0.3741,-0.0689 -1.5721,-0.5976 -3.1808,-1.1489 -4.8036,-1.6776 v 6.3898 c 1.6804,0.5358 3.3426,1.1067 4.978,1.717 0.5456,0.2039 0.8226,0.8114 0.6201,1.357 -0.1603,0.4247 -0.5611,0.6862 -0.9886,0.6862 -0.1223,0 -0.2475,-0.0211 -0.3684,-0.0675 C 66.8801,30.5422 33.1227,30.5436 7.0039,40.29 6.4569,40.4939 5.8494,40.2169 5.6469,39.6713 5.443,39.1255 5.72,38.518 6.2656,38.3141 7.8954,37.7052 9.5519,37.1385 11.2267,36.6027 v -6.401 c -1.627,0.5287 -3.2286,1.087 -4.7952,1.6832 -0.1237,0.0464 -0.2503,0.0689 -0.3755,0.0689 -0.4246,0 -0.8254,-0.2587 -0.9857,-0.6806 z m 66.5009,1.2431 V 26.0407 C 67.3259,25.339 62.9948,24.8539 58.6158,24.5768 v 6.4896 c 4.3579,0.2771 8.689,0.751 12.9554,1.4499 z M 86.6528,29.5295 C 82.4609,28.2569 78.1185,27.2261 73.6791,26.4133 v 6.47 c 4.4197,0.8001 8.755,1.8351 12.9737,3.0922 0,1e-4 0,-6.446 0,-6.446 z m -43.1354,1.4034 c 4.3255,-0.2067 8.6665,-0.2053 12.9905,0.0014 v -6.484 C 52.2063,24.2464 47.864,24.2576 43.5174,24.4686 Z m -17.2092,1.9533 v -6.4475 c -4.4731,0.8156 -8.8057,1.866 -12.9723,3.1288 v 6.4137 c 4.2187,-1.2585 8.5526,-2.2949 12.9723,-3.095 z M 6.0561,47.5866 c 0.1252,0 0.2517,-0.0225 0.3755,-0.0689 26.4648,-10.0586 60.6665,-10.0614 87.1313,0 0.547,0.2067 1.1531,-0.0661 1.3598,-0.6117 0.2081,-0.5456 -0.0675,-1.1545 -0.6117,-1.3612 -26.919,-10.233 -61.7085,-10.2301 -88.6304,0 -0.5442,0.2081 -0.8184,0.8156 -0.6117,1.3612 0.1617,0.4205 0.5625,0.6806 0.9872,0.6806 z M 93.9439,71.277 c -3.1274,0 -4.7431,1.2993 -6.169,2.4482 -1.3162,1.0589 -2.4552,1.9757 -4.8233,1.9757 -0.6033,0 -1.1362,-0.0802 -1.6439,-0.1997 C 79.2266,60.4197 65.9183,49.1292 50,49.1292 c -15.9197,0 -29.2336,11.2989 -31.3092,26.3861 -0.4851,0.1167 -1.0251,0.1856 -1.6593,0.1856 -2.3709,0 -3.5085,-0.9168 -4.8247,-1.9785 -1.4217,-1.1461 -3.0318,-2.444 -6.1479,-2.444 -0.5822,0 -1.0547,0.4725 -1.0547,1.0547 0,0.5822 0.4725,1.0546 1.0547,1.0546 2.3709,0 3.5085,0.9168 4.8247,1.9785 1.4217,1.1461 3.0332,2.444 6.1493,2.444 3.1161,0 4.7263,-1.2979 6.1479,-2.444 1.3162,-1.0631 2.4538,-1.9785 4.8247,-1.9785 2.3849,0 3.5254,0.9183 4.8472,1.9828 1.4217,1.1446 3.0346,2.4412 6.1465,2.4412 3.1162,0 4.7277,-1.2979 6.1493,-2.444 1.3162,-1.0631 2.4538,-1.9785 4.8247,-1.9785 2.3849,0 3.5254,0.9183 4.8472,1.9827 1.4217,1.1446 3.0332,2.4412 6.1451,2.4412 3.1162,0 4.7277,-1.2993 6.1507,-2.444 1.3162,-1.0631 2.4524,-1.9785 4.8233,-1.9785 0.7622,0 1.4329,0.0942 2.0474,0.2869 0.5583,0.173 1.1489,-0.1392 1.3218,-0.6933 0.173,-0.5569 -0.1378,-1.1489 -0.6933,-1.3218 -0.8226,-0.2559 -1.6973,-0.3797 -2.676,-0.3797 -3.1161,0 -4.7263,1.2979 -6.1493,2.444 -1.3162,1.0603 -2.4524,1.9785 -4.8247,1.9785 -2.3695,0 -3.5071,-0.9168 -4.8233,-1.9757 -1.4259,-1.1489 -3.0416,-2.4482 -6.169,-2.4482 -3.1162,0 -4.7263,1.2979 -6.1479,2.444 -1.3162,1.0631 -2.4538,1.9785 -4.8247,1.9785 -2.3695,0 -3.5057,-0.9168 -4.8233,-1.9757 -1.4259,-1.1489 -3.0416,-2.4482 -6.169,-2.4482 -3.1162,0 -4.7277,1.2979 -6.1493,2.444 -0.2855,0.2306 -0.5625,0.4514 -0.8451,0.6595 C 23.5633,61.0553 35.6483,51.24 50.0042,51.24 c 15.1026,0 27.7107,10.8475 29.3278,25.233 0.0042,-0.0014 0.0056,-0.0028 0.0084,-0.0042 0.0436,0.3895 0.2967,0.7425 0.6933,0.8803 0.8887,0.3108 1.8435,0.4598 2.9193,0.4598 3.1119,0 4.7234,-1.2965 6.1451,-2.4412 1.3218,-1.0645 2.4637,-1.9827 4.8472,-1.9827 C 94.5275,73.385 95,72.9125 95,72.3303 94.9986,71.7481 94.5261,71.277 93.9439,71.277 Z"
         id="path23" />
    </g>
    <g
       id="SvgjsG4489"
       featureKey="textGroupContainer"
       transform="translate(405)"
       fill="#000000">
      <rect
         y="0"
         height="1"
         width="1"
         opacity="0"
         id="rect26"
         x="0" />
      <rect
         y="0"
         x="-342"
         width="3"
         height="60"
         id="rect28" />
    </g>
    <g
       id="SvgjsG4490"
       featureKey="vMvB0T-0"
       transform="matrix(1.4937705,0,0,1.4937705,79.847556,14.504068)"
       fill="#000000">
      <path
         d="M 4.6582,4.297 V 4.28723 c 2.1582,0 4.1992,0.77148 5.7422,2.3145 2.8125,2.8125 2.8125,8.291 0,11.094 -1.543,1.5332 -3.584,2.3047 -5.7422,2.3047 H 0.7715 V 4.2974344 H 4.6582 Z M 4.668,16.8457 h 0.00977 c 1.2891,0 2.4805,-0.36133 3.3984,-1.2793 0.9179,-0.91797 1.2793,-2.1289 1.2793,-3.4277 0,-1.2891 -0.36133,-2.5 -1.2891,-3.4277 C 7.1484,7.78327 5.93747,7.4219 4.64837,7.4219 H 3.92571 v 9.4238 H 4.6679 Z M 13.681641,20 V 4.258 h 3.1543 V 20 Z M 18.398437,4.258 h 9.4434 v 3.1445 h -6.2891 v 3.1543 h 4.7168 v 3.1445 h -4.7168 v 3.1445 h 6.2891 v 3.1543 h -6.2891 -3.1543 V 4.2581 Z M 39.091766,4.307 H 39.082 c 2.1094,0 3.877,1.748 3.916,3.8379 0,0.41992 -0.14648,0.9082 -0.27344,1.2988 1.7969,0.78125 3.4082,2.5586 3.4082,5.0488 0,1.5039 -0.53711,2.793 -1.6113,3.8672 -1.07419,1.0742 -2.3633,1.6113 -3.8672,1.6113 h -5.4785 V 4.307 h 3.916 z m -0.791,5.009 h 0.78125 c 0.52734,0 0.94727,-0.40039 0.94727,-0.91797 0,-0.52734 -0.41992,-0.9668 -0.94727,-0.9668 h -0.78125 v 1.8848 z m 2.3438,7.5199 c 1.2891,0 2.3535,-1.0547 2.3535,-2.334 0,-0.6543 -0.23438,-1.2109 -0.69336,-1.6699 -0.45898,-0.459 -1.0156,-0.48828 -1.6602,-0.48828 h -2.3438 v 4.4922 h 2.3438 z M 47.314453,20 47.304688,4.238 h 5.1172 c 1.5137,0 3.0078,0.52734 4.0918,1.6113 1.084,1.08396 1.5234,2.0996 1.5234,3.6133 v 0.48828 c 0,1.1719 -0.33203,2.0313 -0.99609,2.9688 -0.66406,0.9375 -1.2207,1.2109 -2.2559,1.6016 l 3.5547,5.4785 h -3.8477 l -4.0234,-6.1523 v 6.1523 h -3.1543 z m 3.14455,-8.1836 2.2559,0.0098 c 0.6543,0 0.98633,-0.16602 1.4453,-0.625 0.45897,-0.45898 0.625,-0.98633 0.625,-1.6406004 0,-0.64453 -0.16602,-1.0742 -0.625,-1.543 -0.45898,-0.4688 -1.2793,-0.63477 -1.9336,-0.63477 h -1.7676 V 11.816396 Z M 63.974637,0.332 c 0.644531,0 1.1719,0.52734 1.1719,1.1719 0,0.64456 -0.52734,1.1719 -1.1719,1.1719 -0.64456,0 -1.1719,-0.52734 -1.1719,-1.1719 0,-0.64456 0.52734,-1.1719 1.1719,-1.1719 z m 4.375,0 c 0.644531,0 1.1719,0.52734 1.1719,1.1719 0,0.64456 -0.52734,1.1719 -1.1719,1.1719 -0.644559,0 -1.171899,-0.52734 -1.171899,-1.1719 0,-0.64456 0.52734,-1.1719 1.171899,-1.1719 z m 0.9378,3.926 h 3.1738 v 6.3281 3.1641 c 0,1.748 -0.61523,3.2422 -1.8555,4.4824 -1.24027,1.2402 -2.7344,1.8555 -4.4727,1.8555 -1.748,0 -3.2422,-0.61523 -4.4824,-1.8555 -1.2402,-1.24027 -1.8555,-2.7344 -1.8555,-4.4824 V 10.5861 4.258 h 3.1738 v 6.3281 2.832 0.32227 c 0,0.86914 0.3125,1.6113 0.92773,2.2266 0.61523,0.6153 1.3574,0.92773 2.2266,0.92773 0.85938,0 1.6016,-0.3125 2.2266,-0.92773 0.625,-0.61523 0.9375,-1.3574 0.9375,-2.2266 V 13.4181 10.5861 4.258 Z m 12.284785,-0.078 -0.0098,0.039063 c 1.0938,0 2.1191,0.20508 3.0859,0.625 0.9668,0.41992 1.8164,0.98633 2.5488,1.6992 l -2.2461,2.2461 c -0.94727,-0.9375 -2.0703,-1.4063 -3.3691,-1.4063 -1.3184,0 -2.4414,0.46875 -3.3691,1.4063 -0.9277,0.93755 -1.3965,2.0605 -1.3965,3.3691 0,1.3184 0.46875,2.4414 1.3965,3.3691 0.92775,0.9277 2.0508,1.3965 3.3691,1.3965 1.3183,0 2.4414,-0.46875 3.3789,-1.4063 l 2.2461,2.2461 c -0.73242,0.72266 -1.582,1.2891 -2.5488,1.709 -0.9668,0.4199 -1.9922,0.625 -3.0859,0.625 -2.1875,0 -4.0625,-0.78125 -5.6152,-2.334 -1.5527,-1.55275 -2.334,-3.4277 -2.334,-5.6152 0,-2.1875 0.78125,-4.0625 2.334,-5.625 1.55275,-1.5625 3.4277,-2.3438 5.6152,-2.3438 z m 6.796919,0.078 h 3.1543 v 5.9766 l 3.4668,-5.9766 h 3.6426 l -4.6484,7.998 5.4004,7.7441 h -3.8379 l -4.0234,-5.7813 v 5.7813 h -3.1543 V 4.2581 Z m 12.187499,0 h 9.4434 v 3.1445 h -6.2891 v 3.1543 h 4.7168 v 3.1445 h -4.7168 v 3.1445 h 6.2891 v 3.1543 h -6.2891 -3.1543 V 4.2581 Z m 10.9082,-0.293 9.4434,8.9941 V 4.2579 h 3.1543 v 16.035 l -9.4434,-9.0039 v 8.7109 h -3.1543 V 3.9649 Z m 18.08591,0.342 h -0.01 c 2.1094,0 3.877,1.748 3.916,3.8379 0,0.41992 -0.14648,0.9082 -0.27344,1.2988 1.7969,0.78125 3.4082,2.5586 3.4082,5.0488 0,1.5039 -0.53711,2.793 -1.6113,3.8672 -1.07419,1.0742 -2.3633,1.6113 -3.8672,1.6113 h -5.4785 V 4.307 h 3.916 z m -0.791,5.009 h 0.78125 c 0.52734,0 0.94727,-0.40039 0.94727,-0.91797 0,-0.52734 -0.41992,-0.9668 -0.94727,-0.9668 h -0.78125 v 1.8848 z m 2.3438,7.5199 c 1.2891,0 2.3535,-1.0547 2.3535,-2.334 0,-0.6543 -0.23438,-1.2109 -0.69336,-1.6699 -0.45898,-0.459 -1.0156,-0.48828 -1.6602,-0.48828 h -2.3438 v 4.4922 h 2.3438 z m 12.02144,-2.041 h 2.7832 l -1.3867,-3.2715 z m -1.289,2.7832 -0.0195,-0.0098 c -0.35156,0.80078 -0.71289,1.5918 -1.0742,2.3926 h -3.3887 l 7.1387,-15.9959996 7.1582,15.9959996 h -3.3984 c -0.35156,-0.79102 -0.70313,-1.5918 -1.0547,-2.3828 h -5.3613 z M 161.06478,4.258 h 3.1738 v 6.3281 3.1641 c 0,1.748 -0.61523,3.2422 -1.8555,4.4824 -1.24027,1.2402 -2.7344,1.8555 -4.4727,1.8555 -1.748,0 -3.2422,-0.61523 -4.4824,-1.8555 -1.2402,-1.24027 -1.8555,-2.7344 -1.8555,-4.4824 V 10.5861 4.258 h 3.1738 v 6.3281 2.832 0.32227 c 0,0.86914 0.3125,1.6113 0.92773,2.2266 0.61523,0.6153 1.3574,0.92773 2.2266,0.92773 0.85938,0 1.6016,-0.3125 2.2266,-0.92773 0.625,-0.61523 0.9375,-1.3574 0.9375,-2.2266 V 13.4181 10.5861 4.258 Z m 4.72624,0 h 9.4434 v 3.1445 h -6.2891 v 3.1543 h 4.7168 v 3.1445 h -4.7168 v 3.1445 h 6.2891 v 3.1543 h -6.2891 -3.1543 V 4.2581 Z m 10.9082,15.742 -0.01,-15.762 h 5.1172 c 1.5137,0 3.0078,0.52734 4.0918,1.6113 1.084,1.08396 1.5234,2.0996 1.5234,3.6133 v 0.48828 c 0,1.1719 -0.33203,2.0313 -0.99609,2.9688 -0.66406,0.9375 -1.2207,1.2109 -2.2559,1.6016 l 3.5547,5.4785 h -3.8477 l -4.0234,-6.1523 v 6.1523 h -3.1543 z m 3.14455,-8.1836 2.2559,0.0098 c 0.6543,0 0.98633,-0.16602 1.4453,-0.625 0.45897,-0.45898 0.625,-0.98633 0.625,-1.6406004 0,-0.64453 -0.16602,-1.0742 -0.625,-1.543 -0.45898,-0.4688 -1.2793,-0.63477 -1.9336,-0.63477 h -1.7676 V 11.816396 Z M 189.18945,20 V 4.258 h 3.1543 V 20 Z m 4.7168,-16.035 9.4434,8.9941 V 4.2579 h 3.1543 v 16.035 l -9.4434,-9.0039 v 8.7109 h -3.1543 V 3.9649 Z"
         id="path31" />
    </g>
  </g>
</svg>
