<?xml version="1.0" encoding="UTF-8" standalone="no"?>
<!-- Created with Inkscape (http://www.inkscape.org/) -->

<svg
   width="342.68359"
   height="365.26868"
   viewBox="0 0 342.68359 365.26868"
   version="1.1"
   id="svg5"
   xml:space="preserve"
   inkscape:export-filename="Gespräch.svg"
   inkscape:export-xdpi="96"
   inkscape:export-ydpi="96"
   xmlns:inkscape="http://www.inkscape.org/namespaces/inkscape"
   xmlns:sodipodi="http://sodipodi.sourceforge.net/DTD/sodipodi-0.dtd"
   xmlns="http://www.w3.org/2000/svg"
   xmlns:svg="http://www.w3.org/2000/svg"><sodipodi:namedview
     id="namedview7"
     pagecolor="#ffffff"
     bordercolor="#111111"
     borderopacity="1"
     inkscape:showpageshadow="0"
     inkscape:pageopacity="0"
     inkscape:pagecheckerboard="1"
     inkscape:deskcolor="#d1d1d1"
     inkscape:document-units="px"
     showgrid="false" /><defs
     id="defs2"><clipPath
       clipPathUnits="userSpaceOnUse"
       id="clipPath29"><path
         d="M 0,283.465 H 283.465 V 0 H 0 Z"
         id="path27" /></clipPath></defs><g
     id="g19"
     transform="matrix(1.3333333,0,0,-1.3333333,96.461101,227.0796)"><path
       d="M 0,0 45.301,-29.716"
       style="fill:none;stroke:#1d1d1b;stroke-width:4;stroke-linecap:butt;stroke-linejoin:miter;stroke-miterlimit:10;stroke-dasharray:none;stroke-opacity:1"
       id="path21" /></g><g
     id="g23"
     transform="matrix(1.3333333,0,0,-1.3333333,-17.634403,371.61066)"><g
       id="g25"
       clip-path="url(#clipPath29)"><g
         id="g31"
         transform="translate(104.3214,10.2386)"><path
           d="m 0,0 h -79.618 v 99.561 c 0,15.224 12.342,27.566 27.567,27.566 h 24.485 C -12.342,127.127 0,114.785 0,99.561 Z"
           style="fill:#6371b5;fill-opacity:1;fill-rule:nonzero;stroke:none"
           id="path33" /></g><g
         id="g35"
         transform="translate(104.3214,10.2386)"><path
           d="m 0,0 h -79.618 v 99.561 c 0,15.224 12.342,27.566 27.567,27.566 h 24.485 C -12.342,127.127 0,114.785 0,99.561 Z"
           style="fill:none;stroke:#1d1d1b;stroke-width:4;stroke-linecap:butt;stroke-linejoin:miter;stroke-miterlimit:10;stroke-dasharray:none;stroke-opacity:1"
           id="path37" /></g><g
         id="g39"
         transform="translate(258.7603,6.7565)"><path
           d="m 0,0 h -79.617 v 105.78 c 0,15.636 12.676,28.311 28.312,28.311 h 22.994 C -12.675,134.091 0,121.416 0,105.78 Z"
           style="fill:#c46673;fill-opacity:1;fill-rule:nonzero;stroke:none"
           id="path41" /></g><g
         id="g43"
         transform="translate(258.7603,6.7565)"><path
           d="m 0,0 h -79.617 v 105.78 c 0,15.636 12.676,28.311 28.312,28.311 h 22.994 C -12.675,134.091 0,121.416 0,105.78 Z"
           style="fill:none;stroke:#1d1d1b;stroke-width:4;stroke-linecap:butt;stroke-linejoin:miter;stroke-miterlimit:10;stroke-dasharray:none;stroke-opacity:1"
           id="path45" /></g><g
         id="g47"
         transform="translate(268.2385,169.768)"><path
           d="m 0,0 c 0,-27.22 -22.066,-49.287 -49.287,-49.287 -27.22,0 -49.286,22.067 -49.286,49.287 0,27.22 22.066,49.287 49.286,49.287 C -22.066,49.287 0,27.22 0,0"
           style="fill:#ffffff;fill-opacity:1;fill-rule:nonzero;stroke:none"
           id="path49" /></g><g
         id="g51"
         transform="translate(268.2385,169.768)"><path
           d="m 0,0 c 0,-27.22 -22.066,-49.287 -49.287,-49.287 -27.22,0 -49.286,22.067 -49.286,49.287 0,27.22 22.066,49.287 49.286,49.287 C -22.066,49.287 0,27.22 0,0 Z"
           style="fill:none;stroke:#1d1d1b;stroke-width:4;stroke-linecap:butt;stroke-linejoin:miter;stroke-miterlimit:10;stroke-dasharray:none;stroke-opacity:1"
           id="path53" /></g><g
         id="g55"
         transform="translate(98.0568,145.6428)"><path
           d="m 0,0 -33.152,12.263 34.429,8.004 14.453,3.36 c 10e-4,0.167 0.012,0.331 0.012,0.498 0,27.22 -22.066,49.287 -49.286,49.287 -27.22,0 -49.287,-22.067 -49.287,-49.287 0,-27.22 22.067,-49.286 49.287,-49.286 17.261,0 32.439,8.88 41.243,22.313 z"
           style="fill:#ffffff;fill-opacity:1;fill-rule:nonzero;stroke:none"
           id="path57" /></g><g
         id="g59"
         transform="translate(98.0568,145.6428)"><path
           d="m 0,0 -33.152,12.263 34.429,8.004 14.453,3.36 c 10e-4,0.167 0.012,0.331 0.012,0.498 0,27.22 -22.066,49.287 -49.286,49.287 -27.22,0 -49.287,-22.067 -49.287,-49.287 0,-27.22 22.067,-49.286 49.287,-49.286 17.261,0 32.439,8.88 41.243,22.313 z"
           style="fill:none;stroke:#1d1d1b;stroke-width:4;stroke-linecap:butt;stroke-linejoin:miter;stroke-miterlimit:10;stroke-dasharray:none;stroke-opacity:1"
           id="path61" /></g><g
         id="g63"
         transform="translate(92.0733,185.2865)"><path
           d="m 0,0 c 0,-3.428 -2.779,-6.207 -6.207,-6.207 -3.429,0 -6.208,2.779 -6.208,6.207 0,3.428 2.779,6.207 6.208,6.207 C -2.779,6.207 0,3.428 0,0"
           style="fill:#1d1d1b;fill-opacity:1;fill-rule:nonzero;stroke:none"
           id="path65" /></g><g
         id="g67"
         transform="translate(92.0733,185.2865)"><path
           d="m 0,0 c 0,-3.428 -2.779,-6.207 -6.207,-6.207 -3.429,0 -6.208,2.779 -6.208,6.207 0,3.428 2.779,6.207 6.208,6.207 C -2.779,6.207 0,3.428 0,0 Z"
           style="fill:none;stroke:#1d1d1b;stroke-width:4;stroke-linecap:butt;stroke-linejoin:miter;stroke-miterlimit:10;stroke-dasharray:none;stroke-opacity:1"
           id="path69" /></g><g
         id="g71"
         transform="translate(205.544,185.2865)"><path
           d="m 0,0 c 0,-3.428 -2.779,-6.207 -6.207,-6.207 -3.429,0 -6.208,2.779 -6.208,6.207 0,3.428 2.779,6.207 6.208,6.207 C -2.779,6.207 0,3.428 0,0"
           style="fill:#1d1d1b;fill-opacity:1;fill-rule:nonzero;stroke:none"
           id="path73" /></g><g
         id="g75"
         transform="translate(205.544,185.2865)"><path
           d="m 0,0 c 0,-3.428 -2.779,-6.207 -6.207,-6.207 -3.429,0 -6.208,2.779 -6.208,6.207 0,3.428 2.779,6.207 6.208,6.207 C -2.779,6.207 0,3.428 0,0 Z"
           style="fill:none;stroke:#1d1d1b;stroke-width:4;stroke-linecap:butt;stroke-linejoin:miter;stroke-miterlimit:10;stroke-dasharray:none;stroke-opacity:1"
           id="path77" /></g><g
         id="g79"
         transform="translate(173.4198,150.8805)"><path
           d="M 0,0 C 0,-1.184 19.26,-2.277 29.802,1.882"
           style="fill:none;stroke:#1d1d1b;stroke-width:4;stroke-linecap:butt;stroke-linejoin:miter;stroke-miterlimit:10;stroke-dasharray:none;stroke-opacity:1"
           id="path81" /></g><g
         id="g83"
         transform="translate(72.6241,88.6599)"><path
           d="M 0,0 45.301,-29.716"
           style="fill:none;stroke:#1d1d1b;stroke-width:4;stroke-linecap:butt;stroke-linejoin:miter;stroke-miterlimit:10;stroke-dasharray:none;stroke-opacity:1"
           id="path85" /></g><g
         id="g87"
         transform="translate(218.952,97.4599)"><path
           d="M 0,0 V -51.37"
           style="fill:none;stroke:#1d1d1b;stroke-width:4;stroke-linecap:butt;stroke-linejoin:miter;stroke-miterlimit:10;stroke-dasharray:none;stroke-opacity:1"
           id="path89" /></g><g
         id="g91"
         transform="translate(155.1063,276.708)"><path
           d="m 0,0 c -23.051,0 -41.737,-12.906 -41.737,-28.827 0,-3.308 0.818,-6.483 2.303,-9.443 l -11.351,-15.931 19.149,6.584 c 7.654,-6.142 18.983,-10.036 31.636,-10.036 23.051,0 41.737,12.906 41.737,28.826 C 41.737,-12.906 23.051,0 0,0"
           style="fill:#ffffff;fill-opacity:1;fill-rule:nonzero;stroke:none"
           id="path93" /></g><g
         id="g95"
         transform="translate(155.1063,276.708)"><path
           d="m 0,0 c -23.051,0 -41.737,-12.906 -41.737,-28.827 0,-3.308 0.818,-6.483 2.303,-9.443 l -11.351,-15.931 19.149,6.584 c 7.654,-6.142 18.983,-10.036 31.636,-10.036 23.051,0 41.737,12.906 41.737,28.826 C 41.737,-12.906 23.051,0 0,0 Z"
           style="fill:none;stroke:#1d1d1b;stroke-width:4;stroke-linecap:butt;stroke-linejoin:miter;stroke-miterlimit:10;stroke-dasharray:none;stroke-opacity:1"
           id="path97" /></g></g></g><path
     style="fill:#ffffff;stroke-width:1.59204"
     d="m 18.534751,287.62624 c 0,-68.47508 0.335,-72.65447 6.53871,-81.57492 l 2.86763,-4.12342 11.04589,5.48294 c 19.26021,9.56034 43.89351,8.82661 63.273339,-1.88466 l 6.51165,-3.599 3.83661,5.59311 c 3.66789,5.34714 3.85836,6.91125 4.33112,35.56657 0.27197,16.4854 0.11113,29.97345 -0.35743,29.97345 -0.46856,0 -8.46094,-5.01492 -17.760839,-11.14428 -9.2999,-6.12935 -17.48032,-11.14428 -18.17871,-11.14428 -1.86594,0 -3.51478,5.12553 -2.06066,6.40571 0.68542,0.60343 9.66413,6.56114 19.95269,13.23935 l 18.706459,12.1422 v 35.84766 35.84767 H 67.887981 18.534751 Z"
     id="path439" /><path
     style="fill:#ffffff;stroke-width:1.59204"
     d="m 224.21764,286.19464 c 0.48271,-72.30479 0.51271,-72.88534 4.11412,-79.62828 l 3.62786,-6.79247 5.92438,4.04838 c 18.92327,12.93107 48.17474,13.52028 70.41012,1.41826 8.07526,-4.3951 8.34455,-4.43231 10.52252,-1.45374 4.80271,6.56809 5.37214,15.54165 5.38087,84.79591 l 0.009,70.44776 H 273.969 223.73149 Z m 53.81959,-9.95025 v -35.02487 h -3.9801 -3.9801 v 33.96351 c 0,18.67993 0.47762,34.44113 1.06136,35.02488 0.58375,0.58374 2.3748,1.06136 3.9801,1.06136 2.74185,0 2.91874,-2.12272 2.91874,-35.02488 z"
     id="path441" /></svg>
