<?xml version="1.0" encoding="UTF-8" standalone="no"?>
<!-- Created with Inkscape (http://www.inkscape.org/) -->

<svg
   version="1.1"
   id="svg1508"
   width="1122.528"
   height="793.72803"
   viewBox="0 0 1122.528 793.72803"
   sodipodi:docname="handshake-3530517.ai"
   inkscape:export-filename="handshake.svg"
   inkscape:export-xdpi="96"
   inkscape:export-ydpi="96"
   xmlns:inkscape="http://www.inkscape.org/namespaces/inkscape"
   xmlns:sodipodi="http://sodipodi.sourceforge.net/DTD/sodipodi-0.dtd"
   xmlns="http://www.w3.org/2000/svg"
   xmlns:svg="http://www.w3.org/2000/svg">
  <defs
     id="defs1512">
    <clipPath
       clipPathUnits="userSpaceOnUse"
       id="clipPath1530">
      <path
         d="M 0,595.296 H 841.896 V 0 H 0 Z"
         id="path1528" />
    </clipPath>
  </defs>
  <sodipodi:namedview
     id="namedview1510"
     pagecolor="#ffffff"
     bordercolor="#111111"
     borderopacity="1"
     inkscape:showpageshadow="0"
     inkscape:pageopacity="0"
     inkscape:pagecheckerboard="1"
     inkscape:deskcolor="#d1d1d1"
     showgrid="false" />
  <g
     id="g1516"
     inkscape:groupmode="layer"
     inkscape:label="Page 1"
     transform="matrix(1.3333333,0,0,-1.3333333,0,793.728)">
    <g
       id="g1524">
      <g
         id="g1526"
         clip-path="url(#clipPath1530)">
        <g
           id="g1532"
           transform="translate(619.792,175.463)">
          <path
             d="m 0,0 c 0,0 -0.03,0 -0.08,0.01 -0.23,0.01 -0.93,0.059 -2.06,0.07 -0.37,0 -0.8,0 -1.27,-0.011 -0.45,0 -0.95,-0.019 -1.49,-0.04 -3.01,-0.139 -7.32,-0.569 -12.59,-1.689 -2.25,-0.481 -4.67,-1.101 -7.26,-1.88 -14.99,-4.521 -35.03,-14.57 -55.02,-36.681 -0.68,-0.75 -1.37,-1.46 -2.06,-2.119 -1.75,5.76 -3.96,11.63 -5.98,16.869 -4.91,12.731 -21.32,18.301 -38.21,38.651 -20.11,31.27 -50.04,41.48 -56.75,45.139 -2.84,3.071 -11.22,7.601 -21.28,12.16 -16.66,7.571 -37.93,15.241 -46.23,16.641 -0.06,0.01 -0.11,0.02 -0.16,0.029 0.03,0.09 0.06,0.181 0.1,0.271 0.09,0.24 0.18,0.479 0.28,0.71 1.23,3.059 3.15,5.79 6.07,7.939 14.53,10.721 50.06,42.901 81.56,20.561 12.51,-5.59 39.99,-16.53 49.82,-26.811 4.38,-0.979 23.83,-0.659 38.43,2.83 5.52,1.33 10.35,3.101 13.41,5.431 8.75,0.19 36.42,-23.02 52.25,-66.07 0.11,-0.3 0.23,-0.63 0.34,-0.95 0.01,-0.04 0.03,-0.071 0.04,-0.11 0.11,-0.29 0.21,-0.591 0.32,-0.881 C -6.2,25.47 -4.71,20.66 -3.38,15.62 -2.08,10.62 -0.94,5.42 0,0"
             style="fill:#dfb28b;fill-opacity:1;fill-rule:nonzero;stroke:none"
             id="path1534" />
        </g>
        <g
           id="g1536"
           transform="translate(367.332,262.8331)">
          <path
             d="M 0,0 C -0.01,-0.011 -0.02,-0.021 -0.02,-0.021 -0.91,0.229 -0.64,0.17 0,0"
             style="fill:#d8aa8b;fill-opacity:1;fill-rule:nonzero;stroke:none"
             id="path1538" />
        </g>
        <g
           id="g1540"
           transform="translate(369.3521,262.1632)">
          <path
             d="M 0,0 C 0.01,0.029 0.02,0.05 0.03,0.079 0.31,-0.011 0.38,-0.061 0,0"
             style="fill:#d8aa8b;fill-opacity:1;fill-rule:nonzero;stroke:none"
             id="path1542" />
        </g>
        <g
           id="g1544"
           transform="translate(369.7319,263.5929)">
          <path
             d="m 0,0 c 0.07,0.02 0.14,0.05 0.21,0.07 -0.11,-0.26 -0.22,-0.51 -0.32,-0.78 -0.04,-0.101 -0.08,-0.2 -0.11,-0.3 -0.05,-0.11 -0.09,-0.22 -0.13,-0.341 -0.04,0.011 -0.08,0.031 -0.13,0.04 -0.04,0.021 -0.09,0.031 -0.14,0.051 -0.47,0.14 -1.19,0.34 -1.71,0.48 0.5,-0.01 1.11,-0.06 1.84,-0.18 0.07,0.16 0.11,0.24 0.11,0.24 0.03,0 0.07,0 0.1,0.01 C -0.19,-0.47 -0.1,-0.23 0,0"
             style="fill:#d8aa8b;fill-opacity:1;fill-rule:nonzero;stroke:none"
             id="path1546" />
        </g>
        <g
           id="g1548"
           transform="translate(619.792,175.463)">
          <path
             d="m 0,0 c 0,0 -0.709,0.069 -2.028,0.08 -0.006,0.004 -0.011,0.008 -0.016,0.012 -0.403,1.869 -0.869,3.717 -1.336,5.528 -1.33,5.04 -2.82,9.85 -4.44,14.449 -0.11,0.29 -0.21,0.591 -0.32,0.88 -0.01,0.04 -0.03,0.071 -0.04,0.111 -0.11,0.32 -0.23,0.65 -0.34,0.95 -12.862,34.978 -33.54,56.858 -45.536,63.732 -3.167,1.815 -7.024,1.769 -10.317,0.194 -2.748,-1.316 -6.124,-2.399 -9.807,-3.287 -7.872,-1.881 -17.154,-2.841 -24.724,-3.173 -7.212,-0.316 -14.367,1.677 -20.314,5.769 -12.382,8.52 -32.891,16.773 -43.212,21.385 -31.5,22.34 -67.76,-5.641 -82.29,-16.36 -0.09,-0.071 -2.92,-0.93 -5.13,-1.621 1.24,2.84 3.11,5.391 5.86,7.42 14.53,10.721 50.06,42.901 81.56,20.561 12.51,-5.59 39.99,-16.53 49.82,-26.811 4.38,-0.979 23.83,-0.659 38.43,2.83 5.52,1.33 10.35,3.101 13.41,5.431 8.75,0.19 36.42,-23.02 52.25,-66.07 0.11,-0.3 0.23,-0.63 0.34,-0.95 0.01,-0.04 0.03,-0.071 0.04,-0.111 0.11,-0.289 0.21,-0.59 0.32,-0.88 C -6.2,25.47 -4.71,20.66 -3.38,15.62 -2.12,10.76 -1.01,5.72 -0.08,0.46 -0.05,0.31 -0.03,0.149 0,0"
             style="fill:#d8aa8b;fill-opacity:1;fill-rule:nonzero;stroke:none"
             id="path1550" />
        </g>
        <g
           id="g1552"
           transform="translate(667.6875,178.0372)">
          <path
             d="m 0,0 c -8.929,-2.065 -21.557,-3.379 -26.557,-3.808 -0.429,-0.522 -0.912,-0.992 -1.474,-1.407 -7.441,-1.837 -23.26,2.641 -23.26,2.641 0,0.026 -0.014,0.04 -0.014,0.067 2.2,0.04 1.327,10.55 0.028,15.551 -1.327,5.04 -2.816,9.853 -4.438,14.451 l -0.322,0.885 c -0.013,0.04 -0.026,0.067 -0.04,0.107 -0.108,0.375 -0.228,0.684 -0.335,0.952 -15.832,43.046 -43.502,66.252 -52.257,66.065 0,0 5.698,9.611 16.758,11.287 0,0 27.59,0.671 44.012,-15.752 7.038,-7.038 18.085,-27.401 29.895,-51.935 0.014,-0.012 0.014,-0.04 0.026,-0.053 3.902,-8.137 7.911,-16.717 11.865,-25.431 C -6.1,13.58 -6.086,13.54 -6.06,13.513 -4.021,9.021 -1.997,4.504 0,0"
             style="fill:#4d61ac;fill-opacity:1;fill-rule:nonzero;stroke:none"
             id="path1554" />
        </g>
        <g
           id="g1556"
           transform="translate(639.6562,172.8224)">
          <path
             d="m 0,0 c -4.384,-3.312 -12.629,-3.446 -21.53,-2.226 -0.778,1.89 -1.395,3.607 -1.73,4.867 0,0 15.82,-4.478 23.26,-2.641"
             style="fill:#973594;fill-opacity:1;fill-rule:nonzero;stroke:none"
             id="path1558" />
        </g>
        <g
           id="g1560"
           transform="translate(537.958,133.1271)">
          <path
             d="m 0,0 c -7.266,-7.012 -15.108,-9.237 -23.058,-8.178 h -0.013 c -35.446,4.652 -73.17,74.215 -73.17,74.215 l -26.142,43.543 c 0,0 -5.134,-48.932 -34.185,-37.081 -9.384,6.033 -11.167,19.064 -10.724,24.493 0.348,4.237 -5.524,20.457 -1.314,32.496 13.111,-2.132 60.098,-20.632 67.673,-28.837 6.703,-3.659 36.638,-13.861 56.747,-45.137 16.892,-20.35 33.3,-25.913 38.207,-38.65 C -3.954,11.623 -1.742,5.751 0,0"
             style="fill:#d3bab7;fill-opacity:1;fill-rule:nonzero;stroke:none"
             id="path1562" />
        </g>
        <g
           id="g1564"
           transform="translate(540.6924,111.5528)">
          <path
             d="m 0,0 c -2.221,-9.15 -12.061,-9.61 -15.42,-8.271 -0.341,0.141 -0.631,0.021 -0.87,-0.33 -2.091,-2.969 -1.69,-21.809 -22.521,-26.759 -4.28,-7.86 -12.79,-19.27 -23.969,-21.38 -4.25,-5.37 -9.38,-16.09 -21.22,-10.96 -11.851,5.139 -17.881,15.86 -17.881,15.86 0,0 14.761,38.21 14.53,47.819 -0.219,8.841 -7.379,27.041 -27.479,8.491 -0.63,-0.58 -1.25,-1.21 -1.88,-1.88 -13.94,-14.92 -26.95,-51.08 -26.95,-51.08 l -1,-2.74 c 0.05,0.47 0.099,0.73 0.099,0.73 0,0 -1.429,-1.14 -3.81,-2.76 -2.129,-1.47 -5.02,-3.33 -8.329,-5.11 0,0 0.099,0.19 0.3,0.54 0.009,0.01 0.02,0.019 0.02,0.03 3.06,5.41 27.06,47.89 35.259,63.61 1.391,2.65 2.33,4.54 2.641,5.36 0.48,1.29 1.03,3.71 1.219,6.559 v 0.011 c 0.571,8.69 -2.209,21.449 -20.38,18.77 -1.67,-0.25 -3.319,-0.97 -4.949,-2.06 -0.011,-0.011 -0.02,-0.011 -0.031,-0.03 -3.719,-2.49 -7.359,-6.9 -11.039,-11.99 -2.56,-3.56 -5.151,-7.451 -7.8,-11.26 -9.27,-13.33 -28.07,-12.62 -42.181,-9.59 -4.079,0.87 -8.119,2.01 -12.049,3.41 -1.331,0.47 -2.65,0.97 -3.94,1.54 -2.681,1.17 -4.92,4.56 -7.27,6.5 -2.431,1.99 -4.871,3.97 -7.3,5.949 -5.85,4.75 -11.71,9.491 -17.51,14.291 -0.49,0.41 -8.431,7.23 -8.431,7.41 0.04,0.04 0.071,0.049 0.071,0.049 l -23.91,15.811 -11.24,23.95 c 0,0 11.24,20.06 11.909,21.4 0.67,1.339 4.701,6.93 5.141,7.81 0.45,0.9 15.2,24.14 16.76,26.15 1.559,2.01 11.389,12.96 11.389,12.96 l 10.951,4.919 c 0,0 17.199,-13.859 30.61,-10.509 13.399,3.35 25.66,8.04 35.08,8.04 h 0.089 c 0.5,-0.01 1.111,-0.06 1.841,-0.18 0.03,-0.01 0.07,-0.01 0.11,-0.02 0.049,-0.01 0.1,-0.02 0.16,-0.03 8.3,-1.4 29.57,-9.07 46.23,-16.64 10.059,-4.56 18.439,-9.09 21.28,-12.161 6.71,-3.659 36.64,-13.869 56.75,-45.139 C -30.03,56.74 -13.62,51.17 -8.71,38.439 -6.69,33.2 -4.48,27.33 -2.73,21.57 -0.23,13.36 1.31,5.39 0,0"
             style="fill:#fcc9a1;fill-opacity:1;fill-rule:nonzero;stroke:none"
             id="path1566" />
        </g>
        <g
           id="g1568"
           transform="translate(378.8008,124.628)">
          <path
             d="m 0,0 c -0.29,-0.44 -0.6,-0.87 -0.9,-1.311 -9.27,-13.33 -28.07,-12.62 -42.18,-9.589 -4.08,0.87 -8.12,2.009 -12.05,3.41 -1.33,0.469 -2.65,0.969 -3.94,1.54 -2.68,1.17 -4.92,4.559 -7.27,6.5 -2.43,1.99 -4.87,3.97 -7.3,5.95 -5.85,4.75 -11.71,9.489 -17.51,14.29 -0.49,0.409 -8.43,7.23 -8.43,7.409 0.04,0.04 0.07,0.051 0.07,0.051 l -23.91,15.81 -11.24,23.95 c 0,0 11.24,20.059 11.91,21.399 0.67,1.341 4.7,6.931 5.14,7.811 0.45,0.899 15.2,24.139 16.76,26.149 1.56,2.011 11.39,12.961 11.39,12.961 l 0.22,0.1 c -2.38,-2.691 -4.72,-5.37 -5.42,-6.271 -1.56,-2.01 -16.31,-25.25 -16.76,-26.149 -0.44,-0.88 -4.47,-6.47 -5.14,-7.811 -0.67,-1.34 -11.91,-21.399 -11.91,-21.399 l 11.24,-23.95 23.91,-15.81 c 0,0 -0.03,-0.011 -0.07,-0.051 0,-0.179 7.94,-7 8.43,-7.409 5.8,-4.801 11.66,-9.54 17.51,-14.29 2.43,-1.98 4.87,-3.96 7.3,-5.95 2.35,-1.941 4.59,-5.33 7.27,-6.5 1.29,-0.57 2.61,-1.07 3.94,-1.54 3.93,-1.401 7.97,-2.54 12.05,-3.41 C -25.1,-6.641 -10.04,-7.551 0,0"
             style="fill:#ecbc9a;fill-opacity:1;fill-rule:nonzero;stroke:none"
             id="path1570" />
        </g>
        <g
           id="g1572"
           transform="translate(423.2119,123.4425)">
          <path
             d="M 0,0 C -0.31,-0.819 -1.25,-2.71 -2.64,-5.359 -2.82,-5.7 -3,-6.05 -3.19,-6.41 c -9.28,-17.63 -35.03,-63.13 -35.03,-63.13 2.82,1.52 5.34,3.101 7.35,4.44 -0.01,-0.02 -0.01,-0.03 -0.02,-0.049 -2.13,-1.471 -5.02,-3.33 -8.33,-5.111 -0.23,-0.13 -0.47,-0.25 -0.71,-0.38 -0.02,-0.02 -0.05,-0.04 -0.08,-0.049 -0.41,-0.221 -0.83,-0.431 -1.25,-0.63 -0.15,-0.091 -0.3,-0.16 -0.45,-0.241 v 0.02 c 7.03,12.45 25.81,45.851 32.88,59.391 1.39,2.649 2.33,4.54 2.64,5.359 0.09,0.25 0.19,0.55 0.28,0.88 0.51,1.761 1.01,4.58 1.01,7.7 V 1.8 c 0,8.43 -3.58,19.04 -20.01,16.81 -0.15,-0.02 -0.29,-0.04 -0.44,-0.06 -2.46,-0.369 -4.87,-1.77 -7.26,-3.85 2.49,3.191 4.97,5.93 7.47,7.83 0.01,0.02 0.02,0.02 0.03,0.031 1.96,1.489 3.94,2.469 5.95,2.779 C 4.97,28.9 1.96,5.24 0,0"
             style="fill:#ecbc9a;fill-opacity:1;fill-rule:nonzero;stroke:none"
             id="path1574" />
        </g>
        <g
           id="g1576"
           transform="translate(349.562,70.0626)">
          <path
             d="M 0,0 C 0.65,0.37 1.25,0.72 1.82,1.061 1.81,1.04 1.81,1.03 1.8,1.01 1.25,0.67 0.65,0.3 0,-0.07 c -0.6,-0.36 -1.24,-0.72 -1.91,-1.09 -0.01,-0.01 -0.02,-0.01 -0.03,-0.02 0,0.04 0,0.08 0.01,0.11 0.01,0.01 0.02,0.01 0.03,0.02 0.66,0.35 1.3,0.71 1.9,1.05"
             style="fill:#ecbc9a;fill-opacity:1;fill-rule:nonzero;stroke:none"
             id="path1578" />
        </g>
        <g
           id="g1580"
           transform="translate(471.0098,46.9171)">
          <path
             d="m 0,0 c -3.899,-5.431 -9.1,-11.91 -18.83,-7.7 -11.85,5.139 -17.88,15.86 -17.88,15.86 0,0 14.761,38.21 14.53,47.819 -0.219,8.71 -7.179,26.521 -26.62,9.271 1.14,1.5 2.29,2.89 3.45,4.13 0.63,0.67 1.25,1.3 1.88,1.88 20.1,18.55 27.26,0.349 27.48,-8.49 0.23,-9.61 -14.53,-47.82 -14.53,-47.82 0,0 6.03,-10.721 17.88,-15.86 C -7.199,-3.271 -3.17,-2.28 0,0"
             style="fill:#ecbc9a;fill-opacity:1;fill-rule:nonzero;stroke:none"
             id="path1582" />
        </g>
        <g
           id="g1584"
           transform="translate(500.5508,76.7872)">
          <path
             d="M 0,0 C 0.82,0.19 1.61,0.41 2.36,0.65 0.3,-2.279 -2.19,-5.25 -5.05,-7.81 -3,-5.119 -1.3,-2.39 0,0"
             style="fill:#ecbc9a;fill-opacity:1;fill-rule:nonzero;stroke:none"
             id="path1586" />
        </g>
        <g
           id="g1588"
           transform="translate(540.6924,111.5245)">
          <path
             d="m 0,0 c -1.33,-5.48 -5.391,-7.841 -9.16,-8.57 0.05,0.189 0.099,0.38 0.149,0.57 1.311,5.39 -0.229,13.359 -2.729,21.569 -1.75,5.761 -3.96,11.63 -5.981,16.87 -4.91,12.731 -21.319,18.3 -38.21,38.651 -20.109,31.269 -50.04,41.479 -56.75,45.139 -2.84,3.071 -11.219,7.601 -21.279,12.161 -16.661,7.57 -37.931,15.24 -46.23,16.639 -0.06,0.011 -0.11,0.021 -0.161,0.031 -0.04,0.009 -0.079,0.009 -0.109,0.02 -0.73,0.119 -1.34,0.17 -1.84,0.18 h -0.091 c -9.42,0 -21.679,-4.691 -35.079,-8.04 -13.41,-3.351 -30.611,10.509 -30.611,10.509 l -7.81,-3.509 c 2.921,3.309 5.87,6.59 5.87,6.59 l 10.951,4.919 c 0,0 17.199,-13.86 30.61,-10.509 13.399,3.349 25.66,8.04 35.08,8.04 h 0.089 c 0.5,-0.01 1.111,-0.061 1.841,-0.18 0.03,-0.011 0.07,-0.011 0.11,-0.02 0.049,-0.01 0.1,-0.02 0.16,-0.031 8.3,-1.399 29.57,-9.069 46.23,-16.639 10.059,-4.56 18.439,-9.09 21.28,-12.161 6.71,-3.66 36.64,-13.87 56.75,-45.139 16.89,-20.351 33.3,-25.92 38.21,-38.651 2.02,-5.24 4.23,-11.109 5.98,-16.87 C -0.23,13.359 1.31,5.39 0,0"
             style="fill:#ecbc9a;fill-opacity:1;fill-rule:nonzero;stroke:none"
             id="path1590" />
        </g>
        <g
           id="g1592"
           transform="translate(190.5791,147.9767)">
          <path
             d="m 0,0 c 0,0 33.292,-27.036 43.123,-18.769 9.83,8.267 26.364,45.426 26.364,45.426 l 2.905,13.783 c 0,0 -55.635,11.842 -62.561,7.374 C 2.904,43.346 0,0 0,0"
             style="fill:#667ebe;fill-opacity:1;fill-rule:nonzero;stroke:none"
             id="path1594" />
        </g>
        <g
           id="g1596"
           transform="translate(284.6016,208.2218)">
          <path
             d="m 0,0 c 1.477,4.371 3.129,8.672 5.116,12.836 6.363,13.334 19.322,42.233 14.365,46.679 -6.48,5.808 -36.196,17.874 -36.196,17.874 l -64.348,-98.757 c 0,0 60.809,-38.582 81.063,21.368"
             style="fill:#4d61ac;fill-opacity:1;fill-rule:nonzero;stroke:none"
             id="path1598" />
        </g>
        <g
           id="g1600"
           transform="translate(0.2622,425.5909)">
          <path
             d="m 0,0 v -205.111 c 0,0 185.239,-93.841 190.267,-92.836 4.189,5.195 30.33,75.744 40.72,86.468 7.876,12.568 37.872,67.198 37.872,67.198 0,0 5.362,6.032 -4.19,10.389 l -137.243,68.538 c 0,0 -36.95,21.726 -54.869,25.66 -7.736,1.698 -15.256,4.286 -22.187,8.117 C 28.928,-19.726 0,0 0,0"
             style="fill:#1d2755;fill-opacity:1;fill-rule:nonzero;stroke:none"
             id="path1602" />
        </g>
        <g
           id="g1604"
           transform="translate(270.1221,281.3106)">
          <path
             d="m 0,0 c 0,0 -2.72,-4.96 -6.74,-12.229 -0.75,0.549 -1.68,1.099 -2.83,1.62 L -146.81,57.93 c 0,0 -36.95,21.73 -54.87,25.66 -7.74,1.7 -15.26,4.29 -22.19,8.12 -15.78,8.72 -35.62,21.71 -44.99,27.95 v 24.62 c 0,0 28.93,-19.72 50.37,-31.57 6.93,-3.83 14.45,-6.42 22.19,-8.12 17.92,-3.93 54.87,-25.66 54.87,-25.66 L -4.19,10.391 C 5.36,6.04 0,0 0,0"
             style="fill:#162042;fill-opacity:1;fill-rule:nonzero;stroke:none"
             id="path1606" />
        </g>
        <g
           id="g1608"
           transform="translate(474.5615,163.505)">
          <path
             d="m 0,0 c 0.194,-0.827 0.905,-1.382 1.488,-1.95 0.616,-0.56 1.267,-1.083 1.924,-1.597 1.317,-1.025 2.668,-2.01 4.018,-2.995 2.689,-1.986 5.38,-3.978 8.027,-6.029 5.291,-4.108 10.356,-8.527 15.061,-13.322 4.636,-4.849 8.92,-10.092 12.334,-15.895 1.701,-2.9 3.185,-5.929 4.392,-9.064 1.174,-3.145 2.084,-6.391 2.599,-9.699 -1.436,6.541 -4.145,12.721 -7.651,18.365 -3.508,5.654 -7.736,10.84 -12.391,15.599 -4.607,4.814 -9.652,9.195 -14.821,13.417 -2.581,2.118 -5.216,4.173 -7.846,6.24 -1.306,1.046 -2.613,2.092 -3.889,3.179 -0.636,0.545 -1.266,1.098 -1.86,1.692 -0.293,0.301 -0.583,0.607 -0.84,0.94 C 0.299,-0.785 0.04,-0.424 0,0"
             style="fill:#b3b194;fill-opacity:1;fill-rule:nonzero;stroke:none"
             id="path1610" />
        </g>
        <g
           id="g1612"
           transform="translate(501.876,76.1983)">
          <path
             d="m 0,0 c -1.824,5.922 -3.975,11.735 -6.661,17.29 -2.685,5.551 -5.85,10.874 -9.657,15.713 -3.74,4.89 -8.112,9.282 -12.927,13.126 -4.815,3.85 -10.109,7.1 -15.665,9.841 l 4.239,-1.914 4.12,-2.173 c 1.322,-0.816 2.658,-1.612 3.966,-2.452 1.268,-0.9 2.568,-1.758 3.812,-2.695 4.967,-3.758 9.397,-8.218 13.244,-13.121 3.788,-4.949 7.004,-10.332 9.562,-16 C -3.404,11.946 -1.427,6.031 0,0"
             style="fill:#b3b194;fill-opacity:1;fill-rule:nonzero;stroke:none"
             id="path1614" />
        </g>
        <g
           id="g1616"
           transform="translate(426.8223,100.0128)">
          <path
             d="m 0,0 c -1.45,3.15 -0.9,6.689 0.479,10.02 0.701,1.68 1.611,3.29 2.581,4.77 0.089,0.14 0.169,0.28 0.259,0.41 0.891,1.34 1.83,2.55 2.681,3.58 h 0.01 c 0.769,0.96 1.49,1.76 2.05,2.35 0.53,0.58 1.21,0.94 1.94,1.059 0.25,0.04 0.52,0.051 0.779,0.031 0.731,-0.06 1.41,-0.16 2.061,-0.3 C 21.35,20.11 23.08,11.96 23.41,8.27 23.51,7.16 23.189,6.06 22.54,5.229 L 21.91,4.41 14.2,-5.54 c -0.79,-1.03 -1.93,-1.62 -3.14,-1.67 -0.31,-0.01 -0.64,-0.02 -1,0 -0.11,0 -0.23,0.01 -0.35,0.02 C 6.939,-7 3.08,-5.76 0.479,-0.96 0.319,-0.66 0.16,-0.33 0,0 m 27.89,10.229 c -0.01,0.171 -0.02,0.341 -0.04,0.511 -0.01,0.239 -0.04,0.489 -0.08,0.73 -0.041,0.32 -0.1,0.64 -0.161,0.96 -0.12,0.62 -0.279,1.23 -0.479,1.83 -0.03,0.1 -0.061,0.21 -0.101,0.31 -0.079,0.25 -0.179,0.5 -0.269,0.74 -0.01,0.02 -0.01,0.03 -0.021,0.05 -0.109,0.28 -0.229,0.56 -0.359,0.829 -0.151,0.321 -0.311,0.641 -0.49,0.961 v 0.01 C 22.34,23.66 14.529,27.77 5.93,22.38 4.84,21.689 3.729,20.85 2.609,19.84 1.43,18.76 0.229,17.49 -0.96,16.01 -1.5,15.34 -2.21,14.8 -2.84,14.13 -3.391,13.54 -3.95,12.91 -4.5,12.25 -17.79,-3.61 -29.79,-36.95 -29.79,-36.95 l -1,-2.74 v -0.02 c -0.22,-1.72 -0.56,-6.17 0.91,-10.64 0.55,-1.7 1.359,-3.41 2.55,-4.97 0.15,-0.201 0.3,-0.39 0.45,-0.58 0.31,-0.371 0.65,-0.74 1.01,-1.09 0.18,-0.18 0.36,-0.35 0.55,-0.52 14.03,-6.83 23.549,-1.94 29.46,4.35 0.259,0.29 0.52,0.58 0.78,0.87 0.38,0.43 0.74,0.87 1.09,1.31 0.58,0.73 1.11,1.47 1.599,2.2 0.42,0.62 0.811,1.24 1.17,1.84 0.061,0.09 0.111,0.19 0.171,0.28 0.239,0.41 0.46,0.81 0.68,1.2 1.2,2.2 1.92,3.98 2.22,4.75 0.02,0.05 0.03,0.09 0.049,0.13 0.021,0.08 0.04,0.14 0.061,0.19 0,0.02 0.01,0.04 0.01,0.05 0.019,0.029 0.019,0.04 0.019,0.04 0,0 0.131,0.34 0.361,0.95 0.31,0.829 0.799,2.15 1.42,3.84 0.16,0.43 0.32,0.87 0.5,1.34 0.509,1.399 1.1,2.99 1.719,4.72 0.211,0.57 0.421,1.16 0.641,1.76 0.33,0.91 0.66,1.84 1,2.8 0.2,0.55 0.399,1.119 0.609,1.69 0.031,0.1 0.061,0.19 0.101,0.29 0.11,0.31 0.22,0.62 0.33,0.94 1.05,2.97 2.13,6.08 3.17,9.14 0.34,1.019 0.689,2.04 1.019,3.04 0.111,0.33 0.221,0.67 0.33,1 0.221,0.66 0.431,1.31 0.641,1.96 0.63,1.94 1.21,3.8 1.73,5.53 0.169,0.58 0.339,1.14 0.5,1.68 0.08,0.28 0.16,0.54 0.23,0.809 0.149,0.521 0.29,1.031 0.42,1.521 0.069,0.25 0.13,0.49 0.189,0.72 0.121,0.47 0.231,0.92 0.33,1.34 0.25,1.07 0.441,1.99 0.541,2.73 0.089,0.64 0.14,1.3 0.14,1.95 0,0.26 0,0.52 -0.02,0.779"
             style="fill:#dfb28b;fill-opacity:1;fill-rule:nonzero;stroke:none"
             id="path1618" />
        </g>
        <g
           id="g1620"
           transform="translate(454.7119,110.2423)">
          <path
             d="M 0,0 C -0.01,0.171 -0.02,0.341 -0.04,0.511 -0.05,0.75 -0.08,1 -0.12,1.24 -0.16,1.561 -0.22,1.881 -0.28,2.2 -0.4,2.82 -0.56,3.431 -0.76,4.03 -0.79,4.131 -0.82,4.24 -0.86,4.341 -0.939,4.591 -1.04,4.841 -1.13,5.08 -1.14,5.101 -1.14,5.11 -1.15,5.131 -1.26,5.41 -1.38,5.69 -1.51,5.96 -1.66,6.28 -1.82,6.601 -2,6.921 -1.61,5.16 -1.51,3.37 -1.76,1.61 -1.78,1.46 -1.8,1.311 -1.83,1.15 V 1.141 c -0.81,-4.851 -4.38,-15.72 -7.92,-25.821 -3.91,-11.229 -7.79,-21.509 -7.79,-21.509 0,0 0,-0.021 -0.02,-0.04 -0.01,-0.061 -0.05,-0.191 -0.12,-0.38 -1.38,-3.59 -12.009,-29.05 -37.17,-16.8 -0.77,0.689 -1.44,1.409 -2.01,2.189 -0.51,0.67 -0.95,1.37 -1.32,2.08 0.12,-0.479 0.25,-0.96 0.41,-1.439 0.55,-1.7 1.36,-3.41 2.55,-4.971 0.15,-0.2 0.3,-0.389 0.45,-0.58 0.31,-0.37 0.65,-0.739 1.01,-1.09 0.18,-0.179 0.36,-0.349 0.55,-0.519 14.03,-6.83 23.55,-1.941 29.46,4.349 0.271,0.29 0.53,0.58 0.78,0.87 0.38,0.43 0.741,0.871 1.09,1.31 0.58,0.731 1.11,1.471 1.6,2.2 0.42,0.62 0.81,1.231 1.18,1.83 0.05,0.101 0.11,0.191 0.161,0.29 0.25,0.411 0.469,0.811 0.679,1.201 1.21,2.2 1.93,3.979 2.23,4.75 0.02,0.049 0.03,0.089 0.04,0.129 0.03,0.081 0.051,0.14 0.06,0.191 0.01,0.019 0.02,0.04 0.02,0.05 0.01,0.029 0.01,0.04 0.01,0.04 0,0 0.13,0.34 0.36,0.95 0.311,0.829 0.8,2.149 1.42,3.84 0.16,0.429 0.33,0.87 0.5,1.34 0.51,1.399 1.1,2.99 1.72,4.719 0.211,0.571 0.421,1.16 0.64,1.76 0.33,0.91 0.66,1.841 1,2.801 0.09,0.239 0.18,0.479 0.27,0.729 0.1,0.311 0.22,0.64 0.34,0.96 0.03,0.101 0.06,0.191 0.1,0.29 0.111,0.311 0.22,0.62 0.33,0.941 1.05,2.97 2.14,6.08 3.17,9.139 0.35,1.02 0.69,2.04 1.02,3.04 0.11,0.331 0.22,0.67 0.33,1 0.221,0.661 0.43,1.31 0.64,1.96 0.63,1.941 1.21,3.8 1.73,5.531 0.18,0.58 0.34,1.139 0.5,1.679 0.08,0.281 0.16,0.54 0.23,0.81 0.15,0.52 0.29,1.03 0.42,1.52 0.07,0.25 0.13,0.491 0.19,0.72 0.12,0.471 0.23,0.92 0.33,1.34 0.26,1.07 0.44,1.99 0.55,2.731 0.09,0.639 0.131,1.29 0.131,1.95 0,0.259 0,0.519 -0.021,0.779"
             style="fill:#d8aa8b;fill-opacity:1;fill-rule:nonzero;stroke:none"
             id="path1622" />
        </g>
        <g
           id="g1624"
           transform="translate(390.4121,127.8829)">
          <path
             d="M 0,0 C 0.03,0.22 0.07,0.45 0.12,0.68 0.57,2.92 1.56,5.17 2.8,7.29 2.9,7.46 3,7.63 3.11,7.8 c 0.14,0.24 0.28,0.47 0.44,0.7 0.27,0.439 0.56,0.87 0.86,1.29 0.45,0.64 0.92,1.27 1.39,1.87 0.23,0.3 0.46,0.59 0.7,0.88 0.12,0.14 0.23,0.279 0.35,0.42 0.35,0.42 0.69,0.83 1.04,1.21 0.05,0.059 0.1,0.12 0.15,0.17 0.24,0.28 0.48,0.54 0.71,0.79 0.49,0.519 0.95,1 1.38,1.43 0.13,0.14 0.26,0.27 0.39,0.39 0.13,0.13 0.25,0.25 0.37,0.36 0.12,0.12 0.23,0.23 0.34,0.33 0.93,0.9 2.2,1.35 3.48,1.25 C 27.86,17.93 30.36,7.479 30.83,2.95 30.97,1.68 30.57,0.43 29.73,-0.53 L 27.9,-2.641 V -2.65 l -6.07,-7.031 -2.75,-3.17 c -1.01,-1.17 -2.47,-1.849 -4.01,-1.909 -0.34,-0.011 -0.68,-0.011 -1.06,0 H 14 c -0.02,-0.011 -0.02,-0.011 -0.03,0 -3.77,0.1 -9.53,1.48 -13.03,8.25 C -0.12,-4.45 -0.34,-2.23 0,0 M 12.64,20.18 C 10.97,19.93 9.32,19.21 7.69,18.12 7.68,18.109 7.67,18.109 7.66,18.09 3.94,15.6 0.3,11.189 -3.38,6.1 -3.45,6 -3.52,5.91 -3.59,5.81 -3.6,5.78 -3.61,5.75 -3.64,5.729 -3.65,5.72 -3.65,5.71 -3.66,5.7 -4.55,4.45 -5.45,3.16 -6.35,1.859 -6.96,0.979 -7.56,0.1 -8.17,-0.79 c -0.34,-0.5 -0.68,-1 -1.03,-1.5 -0.33,-0.5 -0.67,-0.99 -1.02,-1.49 -0.32,-0.46 -0.64,-0.92 -0.96,-1.38 -1.66,-2.39 -3.3,-4.74 -4.9,-7.05 -13.48,-19.431 -24.5,-35.49 -24.88,-36.061 h -0.01 l -0.02,-0.059 v -0.01 l -0.15,-0.48 c -0.02,-0.06 -0.04,-0.13 -0.06,-0.201 -0.27,-0.949 -0.75,-2.739 -1.12,-5.04 -0.03,-0.239 -0.07,-0.479 -0.1,-0.729 -0.18,-1.25 -0.31,-2.641 -0.36,-4.101 -0.01,-0.029 -0.01,-0.069 -0.01,-0.109 -0.22,-6.58 1.26,-14.641 8.52,-19.44 1.64,-1.09 3.46,-1.75 5.39,-2.081 0.28,-0.04 0.55,-0.089 0.83,-0.12 1.43,-0.17 2.92,-0.17 4.44,-0.019 0.23,0.01 0.45,0.04 0.68,0.07 0.62,0.069 1.24,0.17 1.88,0.29 0.54,0.1 1.1,0.22 1.65,0.36 0.16,0.03 0.32,0.07 0.48,0.12 0.88,0.219 1.76,0.48 2.64,0.77 1.94,0.64 3.86,1.42 5.72,2.27 0.36,0.17 0.72,0.33 1.07,0.509 0.19,0.09 0.39,0.191 0.58,0.291 0.15,0.07 0.3,0.14 0.45,0.22 0.42,0.199 0.84,0.409 1.25,0.63 0.03,0.01 0.06,0.029 0.08,0.05 0.24,0.13 0.48,0.25 0.71,0.38 0,0 0.1,0.19 0.3,0.54 0.01,0.01 0.02,0.019 0.02,0.03 3.06,5.41 27.06,47.89 35.26,63.609 1.39,2.651 2.33,4.541 2.64,5.361 0.48,1.29 1.03,3.71 1.22,6.559 V 1.41 c 0.57,8.69 -2.21,21.449 -20.38,18.77"
             style="fill:#dfb28b;fill-opacity:1;fill-rule:nonzero;stroke:none"
             id="path1626" />
        </g>
        <g
           id="g1628"
           transform="translate(423.4316,129.2931)">
          <path
             d="M 0,0 V -0.011 C -0.479,-1 -1.22,-2.46 -2.16,-4.261 c -1.069,-2.04 -2.42,-4.59 -3.97,-7.5 -11.26,-21.08 -33.3,-61.09 -35.78,-62.559 -7.54,-4.441 -17.17,-6.09 -23.67,-1.79 -5.37,3.549 -7.58,10.46 -8.29,16.809 v 0.071 c -0.22,1.99 -0.279,3.929 -0.25,5.69 0.02,1.47 0.11,2.819 0.25,3.97 -0.049,-0.071 -0.08,-0.111 -0.08,-0.111 l -0.029,-0.049 v -0.02 l -0.151,-0.48 c -0.25,-0.871 -0.769,-2.741 -1.16,-5.161 -0.03,-0.259 -0.07,-0.529 -0.109,-0.799 -0.181,-1.25 -0.321,-2.63 -0.371,-4.09 0,-0.04 -0.01,-0.071 -0.01,-0.111 -0.23,-6.58 1.25,-14.639 8.53,-19.45 1.63,-1.079 3.44,-1.75 5.351,-2.09 0.279,-0.04 0.549,-0.09 0.829,-0.12 1.43,-0.17 2.921,-0.17 4.44,-0.019 0.231,0.009 0.45,0.04 0.68,0.07 0.62,0.069 1.241,0.17 1.88,0.29 0.54,0.1 1.1,0.22 1.651,0.359 0.159,0.031 0.319,0.071 0.48,0.121 0.879,0.219 1.759,0.48 2.639,0.77 1.94,0.64 3.861,1.42 5.72,2.27 0.36,0.169 0.72,0.33 1.07,0.509 0.19,0.09 0.39,0.181 0.58,0.271 0.15,0.08 0.3,0.149 0.451,0.24 0.419,0.199 0.839,0.409 1.25,0.63 0.029,0.01 0.06,0.029 0.08,0.05 0.409,0.219 0.75,0.54 1.009,0.92 0.01,0.009 0.02,0.019 0.02,0.03 0.06,0.08 0.11,0.16 0.161,0.239 3.569,6.321 27.02,47.83 35.119,63.351 0,0.01 0.01,0.01 0.01,0.019 1.4,2.66 2.34,4.551 2.641,5.361 0.49,1.309 1.04,3.759 1.229,6.65 C 0.03,0.06 0.021,0.029 0,0"
             style="fill:#d8aa8b;fill-opacity:1;fill-rule:nonzero;stroke:none"
             id="path1630" />
        </g>
        <g
           id="g1632"
           transform="translate(423.9824,114.1427)">
          <path
             d="m 0,0 c -13.94,-14.92 -26.95,-51.08 -26.95,-51.08 l -1,-2.74 c 0.05,0.47 0.099,0.73 0.099,0.73 0,0 -1.429,-1.139 -3.81,-2.76 -2.13,-1.47 -5.02,-3.33 -8.329,-5.11 0,0 0.099,0.19 0.3,0.54 0.009,0.01 0.02,0.02 0.02,0.03 3.06,5.411 27.06,47.89 35.259,63.61 L -4.391,3.2 -3.96,2.89 Z"
             style="fill:#eebf9c;fill-opacity:1;fill-rule:nonzero;stroke:none"
             id="path1634" />
        </g>
        <g
           id="g1636"
           transform="translate(388.3921,140.8526)">
          <path
             d="m 0,0 c -0.02,-0.54 -0.07,-1.09 -0.14,-1.65 -0.17,-1.38 -0.53,-2.98 -1.07,-4.74 -0.09,-0.27 -0.2,-0.53 -0.36,-0.77 -0.01,-0.029 -0.02,-0.06 -0.05,-0.08 -0.01,-0.01 -0.01,-0.02 -0.02,-0.03 -0.89,-1.25 -1.79,-2.54 -2.69,-3.84 -0.61,-0.88 -1.21,-1.76 -1.82,-2.65 -0.34,-0.5 -0.68,-1 -1.03,-1.5 -0.33,-0.5 -0.67,-0.99 -1.02,-1.49 -0.32,-0.46 -0.64,-0.92 -0.96,-1.38 -1.66,-2.39 -3.3,-4.74 -4.9,-7.05 -13.48,-19.43 -24.5,-35.49 -24.88,-36.06 h -0.01 l -0.02,-0.06 v -0.01 c -0.04,-0.06 -0.1,-0.16 -0.19,-0.3 -0.04,-0.07 -0.1,-0.15 -0.16,-0.24 -0.18,-0.26 -0.41,-0.6 -0.71,-1.01 -0.12,-0.16 -0.24,-0.32 -0.39,-0.5 0,-0.01 -0.01,-0.03 -0.03,-0.05 -0.2,-0.25 -0.42,-0.529 -0.66,-0.819 -0.7,-0.831 -1.56,-1.781 -2.58,-2.771 -4.85,-4.61 -13.31,-9.76 -24.97,-6.09 -1.61,0.51 -3.04,1.21 -4.3,2.08 -0.41,0.29 -0.81,0.6 -1.19,0.92 -0.39,0.33 -0.75,0.68 -1.1,1.04 -1.55,1.611 -2.74,3.56 -3.59,5.74 0,0.01 -0.01,0.01 -0.01,0.01 -1.45,3.66 -1.98,7.96 -1.76,12.39 0.01,0.02 0.01,0.05 0,0.08 0.04,0.91 0.12,1.82 0.23,2.73 0.04,0.31 0.08,0.63 0.12,0.94 0.12,0.94 0.28,1.89 0.47,2.82 0.24,1.25 0.54,2.5 0.9,3.72 0.254,0.899 0.54,1.784 0.844,2.659 0.005,0.017 0.01,0.034 0.016,0.051 -0.001,-0.004 -0.001,-0.008 -0.002,-0.011 1.806,5.195 4.439,9.875 7.582,13.121 0.09,0.09 0.9,0.96 2.27,2.41 0.01,0.01 0.03,0.03 0.05,0.05 1.52,1.611 3.73,3.93 6.36,6.66 7.98,8.26 19.93,20.28 29.04,27.9 0.01,0.01 0.02,0.02 0.03,0.03 5.13,4.28 9.35,7.17 11.46,7.22 C -15.03,19.6 -5.1,15.89 -1.42,7.7 -0.41,5.47 0.13,2.91 0,0"
             style="fill:#dfb28b;fill-opacity:1;fill-rule:nonzero;stroke:none"
             id="path1638" />
        </g>
        <g
           id="g1640"
           transform="translate(314.2803,124.2218)">
          <path
             d="m 0,0 c -0.429,-0.066 -0.845,-0.228 -1.234,-0.456 -5.923,-3.585 -12.127,-7.86 -19.172,-8.72 -7.12,-0.868 -12.642,3.506 -16.577,9.045 -4.353,6.127 -8.384,15.697 -3.516,22.667 1.855,2.655 4.277,5.006 6.77,7.065 0.04,0.04 0.066,0.053 0.066,0.053 0,0 12.964,9.545 22.187,3.177 C -2.708,26.771 4.558,15.538 0,0"
             style="fill:#dfb28b;fill-opacity:1;fill-rule:nonzero;stroke:none"
             id="path1642" />
        </g>
        <g
           id="g1644"
           transform="translate(314.1958,124.2267)">
          <path
             d="m 0,0 c -0.43,-0.07 -0.84,-0.23 -1.23,-0.46 -5.93,-3.58 -12.13,-7.86 -19.17,-8.721 -7.13,-0.87 -12.65,3.51 -16.58,9.05 -3.48,4.901 -6.76,12 -5.44,18.2 0.79,-4.41 3.07,-8.779 5.44,-12.12 3.93,-5.54 9.45,-9.92 16.58,-9.05 7.04,0.861 13.24,5.141 19.17,8.72 C -0.84,5.85 -0.43,6.01 0,6.079 0.64,8.25 1.04,10.35 1.24,12.35 1.65,8.6 1.31,4.479 0,0"
             style="fill:#d8aa8b;fill-opacity:1;fill-rule:nonzero;stroke:none"
             id="path1646" />
        </g>
        <g
           id="g1648"
           transform="translate(372.7124,125.8331)">
          <path
             d="m 0,0 10.653,12.313 c 0.833,0.961 1.238,2.218 1.107,3.484 C 11.292,20.337 8.781,30.776 -4.369,31.745 -5.65,31.84 -6.915,31.385 -7.844,30.496 -11.872,26.643 -22.67,15.133 -18.134,6.335 -14.284,-1.132 -7.672,-2.043 -4.01,-1.908 -2.464,-1.852 -1.013,-1.171 0,0"
             style="fill:#e5e5e4;fill-opacity:1;fill-rule:nonzero;stroke:none"
             id="path1650" />
        </g>
        <g
           id="g1652"
           transform="translate(292.2437,124.7667)">
          <path
             d="m 0,0 12.939,6.102 c 1.011,0.476 1.769,1.338 2.09,2.393 1.151,3.785 2.617,12.99 -7.883,18.357 C 6.122,27.375 4.927,27.454 3.861,27.069 -0.76,25.402 -13.546,19.991 -12.788,11.389 -12.145,4.087 -7.009,1.05 -3.948,-0.121 -2.655,-0.616 -1.23,-0.58 0,0"
             style="fill:#e5e5e4;fill-opacity:1;fill-rule:nonzero;stroke:none"
             id="path1654" />
        </g>
        <g
           id="g1656"
           transform="translate(420.147,127.3487)">
          <path
             d="m 0,0 -7.91,-9.143 -2.748,-3.177 c -1.005,-1.166 -2.467,-1.85 -4.009,-1.904 -0.334,-0.013 -0.683,-0.013 -1.058,0 h -0.014 c 0,0 -0.013,-0.013 -0.027,0 -3.767,0.094 -9.531,1.475 -13.03,8.245 -4.531,8.794 6.26,20.31 10.296,24.158 0.925,0.898 2.198,1.341 3.472,1.247 C -1.877,18.46 0.63,8.017 1.099,3.485 1.233,2.212 0.831,0.966 0,0"
             style="fill:#e5e5e4;fill-opacity:1;fill-rule:nonzero;stroke:none"
             id="path1658" />
        </g>
        <g
           id="g1660"
           transform="translate(477.6895,57.0392)">
          <path
             d="m 0,0 c -0.479,1.775 -1.018,3.528 -1.679,5.236 -0.298,0.866 -0.661,1.706 -0.988,2.559 -0.354,0.842 -0.739,1.671 -1.107,2.506 -1.555,3.303 -3.365,6.478 -5.471,9.443 -0.543,0.729 -1.018,1.511 -1.615,2.197 l -1.735,2.106 c -0.591,0.69 -1.245,1.323 -1.865,1.989 l -0.941,0.988 -1.014,0.913 c -0.681,0.605 -1.345,1.233 -2.041,1.82 l -2.196,1.635 c -0.367,0.272 -0.717,0.572 -1.098,0.823 l -1.166,0.723 c -0.78,0.479 -1.557,0.97 -2.332,1.47 3.307,-1.583 6.57,-3.417 9.341,-5.892 l 1.079,-0.88 0.986,-0.98 c 0.65,-0.661 1.334,-1.292 1.954,-1.98 l 1.794,-2.128 c 0.615,-0.697 1.108,-1.486 1.665,-2.227 2.126,-3.037 3.948,-6.29 5.356,-9.712 C -1.67,7.191 -0.553,3.643 0,0"
             style="fill:#b3b194;fill-opacity:1;fill-rule:nonzero;stroke:none"
             id="path1662" />
        </g>
        <g
           id="g1664"
           transform="translate(425.9687,244.0519)">
          <path
             d="m 0,0 c 1.373,1.4 2.743,2.798 4.067,4.239 1.344,1.421 2.667,2.861 3.954,4.33 2.578,2.935 5.114,5.908 7.406,9.059 2.345,3.106 4.496,6.37 6.218,9.847 0.864,1.734 1.609,3.533 2.109,5.405 0.519,1.865 0.753,3.822 0.527,5.774 0.452,-1.92 0.32,-3.945 -0.05,-5.886 -0.414,-1.941 -1.094,-3.812 -1.89,-5.621 C 21.555,25.33 20.575,23.606 19.54,21.93 18.5,20.253 17.4,18.614 16.229,17.032 13.845,13.896 11.3,10.892 8.586,8.051 5.864,5.219 3.031,2.493 0,0"
             style="fill:#b3b194;fill-opacity:1;fill-rule:nonzero;stroke:none"
             id="path1666" />
        </g>
        <g
           id="g1668"
           transform="translate(674.9805,178.0372)">
          <path
             d="m 0,0 c -1.568,-0.295 -3.23,-0.577 -4.934,-0.832 -10.228,-1.595 -22.307,-2.613 -27.548,-2.976 -0.658,-0.67 -1.65,-1.126 -2.842,-1.407 0.562,0.415 1.045,0.885 1.474,1.407 5,0.429 17.628,1.743 26.557,3.808 -1.997,4.504 -4.021,9.021 -6.06,13.513 -0.026,0.027 -0.04,0.067 -0.053,0.107 -3.954,8.714 -7.963,17.294 -11.865,25.431 0.899,0.041 1.999,0.053 3.245,0.053 4.786,-8.15 9.692,-16.756 14.546,-25.484 0.013,-0.04 0.04,-0.08 0.067,-0.107 C -4.92,9.021 -2.439,4.504 0,0"
             style="fill:#8070b3;fill-opacity:1;fill-rule:nonzero;stroke:none"
             id="path1670" />
        </g>
        <g
           id="g1672"
           transform="translate(705.0898,93.6603)">
          <path
             d="M 0,0 C -0.335,-0.402 -0.75,-0.697 -1.287,-0.872 Z"
             style="fill:#d3bab7;fill-opacity:1;fill-rule:nonzero;stroke:none"
             id="path1674" />
        </g>
        <g
           id="g1676"
           transform="translate(843.1582,413.8609)">
          <path
             d="m 0,0 v -226.95 l -123.576,-83.465 -14.479,-9.773 c 5.751,6.689 -12.374,42.778 -27.214,69.604 -1.327,2.4 -2.627,4.732 -3.874,6.958 -1.649,2.935 -3.231,5.684 -4.678,8.204 -3.499,6.059 -6.261,10.725 -7.709,13.111 -0.027,0.027 -0.04,0.067 -0.054,0.107 -3.968,8.728 -7.977,17.334 -11.891,25.485 -11.81,24.533 -22.857,44.896 -29.895,51.934 -16.422,16.423 -44.012,15.752 -44.012,15.752 l 55.97,23.461 z"
             style="fill:#1d2755;fill-opacity:1;fill-rule:nonzero;stroke:none"
             id="path1678" />
        </g>
        <g
           id="g1680"
           transform="translate(843.1572,414.3712)">
          <path
             d="m 0,0 v -17.52 l -197.41,-98.58 -42.88,-17.97 c -13.68,5.37 -27.09,5.04 -27.09,5.04 l 55.97,23.46 z"
             style="fill:#162042;fill-opacity:1;fill-rule:nonzero;stroke:none"
             id="path1682" />
        </g>
        <g
           id="g1684"
           transform="translate(667.6875,178.0372)">
          <path
             d="M 0,0 C 0.054,-0.135 0.121,-0.269 0.175,-0.402 0.054,-0.095 -0.08,0.2 -0.215,0.482 -0.147,0.321 -0.067,0.16 0,0"
             style="fill:#491f3d;fill-opacity:1;fill-rule:nonzero;stroke:none"
             id="path1686" />
        </g>
        <g
           id="g1688"
           transform="translate(705.0898,93.6603)">
          <path
             d="M 0,0 C -0.335,-0.402 -0.75,-0.697 -1.287,-0.872 Z"
             style="fill:#d3bab7;fill-opacity:1;fill-rule:nonzero;stroke:none"
             id="path1690" />
        </g>
        <g
           id="g1692"
           transform="translate(705.1035,93.673)">
          <path
             d="m 0,0 -0.014,-0.013 -1.287,-0.872 c -14.746,-5.027 -20.778,4.974 -40.553,24.573 -17.374,11.677 -29.748,26.746 -38.032,39.548 -0.55,0.831 -1.072,1.649 -1.568,2.467 -1.73,2.788 -3.955,7.36 -5.524,11.221 -0.777,1.889 -1.394,3.606 -1.729,4.866 10.376,-1.515 16.69,0.281 24.894,2.574 8.058,2.4 21.678,10.577 20.337,13.513 1.449,-2.386 4.21,-7.052 7.709,-13.111 0.228,-0.402 0.469,-0.818 0.71,-1.234 1.247,-2.171 2.588,-4.504 3.969,-6.97 1.246,-2.226 2.547,-4.558 3.874,-6.958 C -12.374,42.778 5.751,6.689 0,0"
             style="fill:#0f162d;fill-opacity:1;fill-rule:nonzero;stroke:none"
             id="path1694" />
        </g>
        <g
           id="g1696"
           transform="translate(667.6875,178.0372)">
          <path
             d="M 0,0 C 0.054,-0.135 0.121,-0.269 0.175,-0.402 0.054,-0.095 -0.08,0.2 -0.215,0.482 -0.147,0.321 -0.067,0.16 0,0"
             style="fill:#491f3d;fill-opacity:1;fill-rule:nonzero;stroke:none"
             id="path1698" />
        </g>
        <g
           id="g1700"
           transform="translate(388.4019,140.8732)">
          <path
             d="M 0,0 C -0.02,-0.54 -0.07,-1.101 -0.14,-1.671 -0.31,-3.051 -0.68,-4.65 -1.21,-6.41 -1.3,-6.681 -1.41,-6.94 -1.58,-7.181 -1.59,-7.21 -1.6,-7.24 -1.63,-7.261 c 0,-0.01 0,-0.019 -0.01,-0.029 -0.89,-1.25 -1.79,-2.54 -2.7,-3.841 -0.61,-0.88 -1.21,-1.76 -1.82,-2.649 -0.34,-0.5 -0.68,-1 -1.03,-1.5 -0.33,-0.5 -0.67,-0.991 -1.02,-1.491 -0.31,-0.459 -0.63,-0.919 -0.95,-1.379 -1.69,-2.43 -3.36,-4.84 -4.99,-7.191 -13.68,-19.71 -24.8,-35.92 -24.8,-35.92 l -0.03,-0.059 v -0.01 c -0.04,-0.061 -0.1,-0.16 -0.19,-0.301 -0.04,-0.069 -0.1,-0.149 -0.16,-0.239 -0.17,-0.261 -0.41,-0.601 -0.71,-1.011 -0.12,-0.159 -0.24,-0.319 -0.39,-0.5 0,-0.01 -0.01,-0.029 -0.03,-0.05 -0.2,-0.25 -0.42,-0.529 -0.66,-0.819 -0.69,-0.841 -1.56,-1.79 -2.58,-2.771 -4.85,-4.61 -13.31,-9.759 -24.97,-6.089 -1.61,0.509 -3.04,1.21 -4.3,2.08 -0.41,0.29 -0.81,0.599 -1.19,0.92 -0.39,0.33 -0.75,0.679 -1.1,1.04 -1.55,1.62 -2.73,3.57 -3.59,5.74 0,0.01 -0.01,0.01 -0.01,0.01 -1.44,3.66 -1.96,7.95 -1.76,12.389 0.01,0.021 0.01,0.05 0,0.08 0.05,0.901 0.13,1.821 0.23,2.731 0.04,0.309 0.08,0.63 0.12,0.939 0.13,0.941 0.29,1.891 0.47,2.821 0.25,1.25 0.55,2.49 0.9,3.719 0.26,0.911 0.55,1.821 0.86,2.71 -2.01,-11.83 0.65,-24.009 11.37,-27.38 18.57,-5.849 29.02,10.691 29.69,11.781 v 0.009 l 0.03,0.061 c 0,0 8.14,11.88 19.07,27.659 0.56,0.811 1.14,1.641 1.72,2.481 1.16,1.679 2.36,3.41 3.58,5.16 0.38,0.559 0.77,1.12 1.17,1.689 1.39,2.011 2.81,4.05 4.25,6.12 1.83,2.63 3.64,5.3 5.42,7.871 0.58,0.83 1.15,1.65 1.73,2.459 0,0.01 0.01,0.01 0.01,0.021"
             style="fill:#d8aa8b;fill-opacity:1;fill-rule:nonzero;stroke:none"
             id="path1702" />
        </g>
        <g
           id="g1704"
           transform="translate(421.2695,78.8624)">
          <path
             d="m 0,0 4.014,28.654 7.468,14.876 8.177,1.521 c 0,0 6.029,-2.709 5.682,-4.188 -0.349,-1.478 3.976,-5.242 3.639,-7.237 -0.336,-1.995 1.556,-1.877 0.019,-4.972 -1.536,-3.093 -0.34,-4.214 -2.34,-7.003 -2,-2.788 -2.333,-4.324 -6,-7.722 C 16.992,10.53 22.283,12.363 14.805,8.863 7.326,5.363 4.362,4.187 4.362,4.187 Z"
             style="fill:#dfb28b;fill-opacity:1;fill-rule:nonzero;stroke:none"
             id="path1706" />
        </g>
        <g
           id="g1708"
           transform="translate(446.2158,102.7423)">
          <path
             d="m 0,0 -7.991,-8.665 c -0.759,-0.832 -1.794,-1.261 -2.853,-1.228 -2.388,0.078 -6.539,1.015 -8.846,6.05 -0.122,0.276 -0.242,0.562 -0.361,0.859 -1.061,2.794 -0.351,5.787 1.072,8.543 2.058,3.976 5.586,7.426 7.346,9.013 0.684,0.618 1.577,0.897 2.45,0.75 C -0.231,13.917 0.9,5.97 0.96,2.548 0.981,1.588 0.629,0.668 0,0"
             style="fill:#e5e5e4;fill-opacity:1;fill-rule:nonzero;stroke:none"
             id="path1710" />
        </g>
        <g
           id="g1712"
           transform="translate(415.7422,245.9425)">
          <path
             d="m 0,0 c 0,0 -2.28,-32.99 -19.3,-40.87 -1.78,-0.609 -3.45,-1.01 -5.02,-1.23 -0.04,0 -0.07,-0.009 -0.11,-0.009 -18.02,-2.391 -21.87,20.089 -20.82,28.679 -5.21,17.91 -2.27,27.531 -1.38,29.821 0.05,0.119 0.1,0.219 0.13,0.299 0.07,0.161 0.11,0.241 0.11,0.241 0.03,0 0.07,0 0.1,0.009 0.06,0 0.11,0.01 0.17,0 C -30.84,17.99 -15.33,12.141 0,0"
             style="fill:#dfb28b;fill-opacity:1;fill-rule:nonzero;stroke:none"
             id="path1714" />
        </g>
        <g
           id="g1716"
           transform="translate(415.8398,245.9454)">
          <path
             d="m 0,0 c 0,0 -2.28,-32.99 -19.3,-40.87 -17.52,-6.03 -24.2,8.41 -25.74,19.47 2.7,-9.86 9.75,-19.65 24.73,-14.5 13.43,6.22 17.69,28.08 18.88,37.02 C -0.95,0.75 -0.48,0.38 0,0"
             style="fill:#d8aa8b;fill-opacity:1;fill-rule:nonzero;stroke:none"
             id="path1718" />
        </g>
        <g
           id="g1720"
           transform="translate(378.8398,219.0978)">
          <path
             d="m 0,0 c 1.444,-2.299 4.441,-3.05 6.749,-1.619 6.331,3.928 17.528,12.493 12.782,21.658 -6.479,12.512 -19.215,2.458 -20.555,0 C -2.233,17.824 -7.07,11.253 0,0"
             style="fill:#e5e5e4;fill-opacity:1;fill-rule:nonzero;stroke:none"
             id="path1722" />
        </g>
        <g
           id="g1724"
           transform="translate(205.751,201.1954)">
          <path
             d="M 0,0 C -4.511,-10.458 -16.645,-15.278 -27.103,-10.768 -37.56,-6.257 -42.381,5.877 -37.87,16.334 -33.359,26.792 -21.225,31.612 -10.768,27.103 -0.31,22.592 4.511,10.457 0,0"
             style="fill:#4d61ac;fill-opacity:1;fill-rule:nonzero;stroke:none"
             id="path1726" />
        </g>
        <g
           id="g1728"
           transform="translate(163.498,219.0792)">
          <path
             d="M 0,0 C -4.511,-10.458 -16.645,-15.279 -27.103,-10.769 -37.56,-6.258 -42.381,5.877 -37.87,16.334 -33.359,26.792 -21.225,31.612 -10.768,27.102 -0.31,22.591 4.511,10.457 0,0"
             style="fill:#4d61ac;fill-opacity:1;fill-rule:nonzero;stroke:none"
             id="path1730" />
        </g>
        <g
           id="g1732"
           transform="translate(121.2451,238.8976)">
          <path
             d="M 0,0 C -4.511,-10.457 -16.645,-15.278 -27.102,-10.768 -37.56,-6.257 -42.38,5.878 -37.87,16.335 -33.359,26.793 -21.225,31.613 -10.768,27.103 -0.31,22.592 4.511,10.458 0,0"
             style="fill:#4d61ac;fill-opacity:1;fill-rule:nonzero;stroke:none"
             id="path1734" />
        </g>
        <g
           id="g1736"
           transform="translate(104.9688,245.7413)">
          <path
             d="m 0,0 c -0.731,-1.468 -2.514,-2.065 -3.982,-1.335 -1.469,0.731 -2.066,2.515 -1.335,3.982 0.731,1.469 2.514,2.067 3.983,1.335 C 0.134,3.251 0.731,1.469 0,0"
             style="fill:#1d2755;fill-opacity:1;fill-rule:nonzero;stroke:none"
             id="path1738" />
        </g>
        <g
           id="g1740"
           transform="translate(147.2217,225.922)">
          <path
             d="m 0,0 c -0.731,-1.468 -2.514,-2.065 -3.982,-1.334 -1.469,0.73 -2.066,2.514 -1.335,3.982 0.731,1.468 2.514,2.066 3.983,1.334 C 0.134,3.252 0.731,1.469 0,0"
             style="fill:#1d2755;fill-opacity:1;fill-rule:nonzero;stroke:none"
             id="path1742" />
        </g>
        <g
           id="g1744"
           transform="translate(189.4746,208.0382)">
          <path
             d="m 0,0 c -0.731,-1.468 -2.514,-2.065 -3.982,-1.334 -1.469,0.73 -2.066,2.514 -1.335,3.982 0.731,1.468 2.514,2.066 3.982,1.334 C 0.133,3.252 0.731,1.469 0,0"
             style="fill:#1d2755;fill-opacity:1;fill-rule:nonzero;stroke:none"
             id="path1746" />
        </g>
      </g>
    </g>
  </g>
</svg>
