
        <svg xmlns="http://www.w3.org/2000/svg" xmlns:xlink="http://www.w3.org/1999/xlink" version="1.1" width="3147.783251231527" height="591.1330049261084" viewBox="0 0 3147.783251231527 591.1330049261084">
			
			<g transform="scale(7.389162561576355) translate(10, 10)">
				<defs id="SvgjsDefs4487"/><g id="SvgjsG4488" featureKey="symbolFeature-0" transform="matrix(0.47425478275050154,0,0,0.47425478275050154,-2.371280245736988,6.477654730703968)" fill="#000"><path xmlns="http://www.w3.org/2000/svg" d="M77.6179,49.1785h-3.3847c-0.5822,0-1.0547-0.4725-1.0547-1.0547s0.4725-1.0547,1.0547-1.0547h3.3847  c0.5822,0,1.0547,0.4725,1.0547,1.0547C78.6725,48.706,78.2001,49.1785,77.6179,49.1785z M82.548,52.1512  c0-0.5822-0.4725-1.0547-1.0546-1.0547h-3.3861c-0.5822,0-1.0547,0.4725-1.0547,1.0547s0.4725,1.0547,1.0547,1.0547h3.3861  C82.077,53.2058,82.548,52.7333,82.548,52.1512z M87.6259,59.4311c0-0.5822-0.4725-1.0547-1.0547-1.0547h-3.3847  c-0.5822,0-1.0547,0.4725-1.0547,1.0547s0.4725,1.0547,1.0547,1.0547h3.3847C87.1534,60.4844,87.6259,60.0133,87.6259,59.4311z   M18.1916,58.0783c0-0.5822-0.4725-1.0547-1.0547-1.0547h-3.3861c-0.5822,0-1.0547,0.4725-1.0547,1.0547  s0.4725,1.0547,1.0547,1.0547h3.3861C17.7191,59.1316,18.1916,58.6605,18.1916,58.0783z M21.5764,53.6558  c0-0.5822-0.4725-1.0547-1.0547-1.0547H17.137c-0.5822,0-1.0547,0.4725-1.0547,1.0547s0.4725,1.0547,1.0547,1.0547h3.3847  C21.1053,54.7105,21.5764,54.2394,21.5764,53.6558z M5.0703,31.2732c-0.2067-0.5456,0.0675-1.1531,0.6117-1.3612  c6.671-2.5368,13.8961-4.483,21.4714-5.7879c0.5779-0.0942,1.0624,0.324,1.2192,0.8606c0.0337,0.1153,0.0464,0.2966,0.0464,0.4169  v7.1176c4.2777-0.7003,8.62-1.1756,12.9891-1.4526v-6.4882c-2.6704,0.1716-5.3422,0.4205-8.0041,0.7523  c-0.5765,0.0816-1.1053-0.3375-1.177-0.9154c-0.0717-0.5779,0.3375-1.1053,0.9154-1.177c21.1775-2.6394,42.8991-0.27,61.1686,6.6753  c0.5442,0.2081,0.8184,0.8156,0.6117,1.3612c-0.1603,0.4205-0.5597,0.6792-0.9857,0.6792c-0.1252,0-0.2503-0.0225-0.3741-0.0689  c-1.5721-0.5976-3.1808-1.1489-4.8036-1.6776v6.3898c1.6804,0.5358,3.3426,1.1067,4.978,1.717  c0.5456,0.2039,0.8226,0.8114,0.6201,1.357c-0.1603,0.4247-0.5611,0.6862-0.9886,0.6862c-0.1223,0-0.2475-0.0211-0.3684-0.0675  c-26.1203-9.7478-59.8777-9.7464-85.9965,0c-0.547,0.2039-1.1545-0.0731-1.357-0.6187C5.443,39.1255,5.72,38.518,6.2656,38.3141  c1.6298-0.6089,3.2863-1.1756,4.9611-1.7114v-6.401c-1.627,0.5287-3.2286,1.087-4.7952,1.6832  c-0.1237,0.0464-0.2503,0.0689-0.3755,0.0689C5.6314,31.9538,5.2306,31.6951,5.0703,31.2732z M71.5712,32.5163v-6.4756  c-4.2453-0.7017-8.5764-1.1868-12.9554-1.4639v6.4896C62.9737,31.3435,67.3048,31.8174,71.5712,32.5163z M86.6528,29.5295  c-4.1919-1.2726-8.5343-2.3034-12.9737-3.1162v6.47c4.4197,0.8001,8.755,1.8351,12.9737,3.0922  C86.6528,35.9756,86.6528,29.5295,86.6528,29.5295z M43.5174,30.9329c4.3255-0.2067,8.6665-0.2053,12.9905,0.0014v-6.484  c-4.3016-0.2039-8.6439-0.1927-12.9905,0.0183V30.9329z M26.3082,32.8862v-6.4475c-4.4731,0.8156-8.8057,1.866-12.9723,3.1288  v6.4137C17.5546,34.7227,21.8885,33.6863,26.3082,32.8862z M6.0561,47.5866c0.1252,0,0.2517-0.0225,0.3755-0.0689  c26.4648-10.0586,60.6665-10.0614,87.1313,0c0.547,0.2067,1.1531-0.0661,1.3598-0.6117c0.2081-0.5456-0.0675-1.1545-0.6117-1.3612  c-26.919-10.233-61.7085-10.2301-88.6304,0c-0.5442,0.2081-0.8184,0.8156-0.6117,1.3612  C5.2306,47.3265,5.6314,47.5866,6.0561,47.5866z M93.9439,71.277c-3.1274,0-4.7431,1.2993-6.169,2.4482  c-1.3162,1.0589-2.4552,1.9757-4.8233,1.9757c-0.6033,0-1.1362-0.0802-1.6439-0.1997C79.2266,60.4197,65.9183,49.1292,50,49.1292  c-15.9197,0-29.2336,11.2989-31.3092,26.3861c-0.4851,0.1167-1.0251,0.1856-1.6593,0.1856c-2.3709,0-3.5085-0.9168-4.8247-1.9785  c-1.4217-1.1461-3.0318-2.444-6.1479-2.444c-0.5822,0-1.0547,0.4725-1.0547,1.0547c0,0.5822,0.4725,1.0546,1.0547,1.0546  c2.3709,0,3.5085,0.9168,4.8247,1.9785c1.4217,1.1461,3.0332,2.444,6.1493,2.444s4.7263-1.2979,6.1479-2.444  c1.3162-1.0631,2.4538-1.9785,4.8247-1.9785c2.3849,0,3.5254,0.9183,4.8472,1.9828c1.4217,1.1446,3.0346,2.4412,6.1465,2.4412  c3.1162,0,4.7277-1.2979,6.1493-2.444c1.3162-1.0631,2.4538-1.9785,4.8247-1.9785c2.3849,0,3.5254,0.9183,4.8472,1.9827  c1.4217,1.1446,3.0332,2.4412,6.1451,2.4412c3.1162,0,4.7277-1.2993,6.1507-2.444c1.3162-1.0631,2.4524-1.9785,4.8233-1.9785  c0.7622,0,1.4329,0.0942,2.0474,0.2869c0.5583,0.173,1.1489-0.1392,1.3218-0.6933c0.173-0.5569-0.1378-1.1489-0.6933-1.3218  c-0.8226-0.2559-1.6973-0.3797-2.676-0.3797c-3.1161,0-4.7263,1.2979-6.1493,2.444c-1.3162,1.0603-2.4524,1.9785-4.8247,1.9785  c-2.3695,0-3.5071-0.9168-4.8233-1.9757c-1.4259-1.1489-3.0416-2.4482-6.169-2.4482c-3.1162,0-4.7263,1.2979-6.1479,2.444  c-1.3162,1.0631-2.4538,1.9785-4.8247,1.9785c-2.3695,0-3.5057-0.9168-4.8233-1.9757c-1.4259-1.1489-3.0416-2.4482-6.169-2.4482  c-3.1162,0-4.7277,1.2979-6.1493,2.444c-0.2855,0.2306-0.5625,0.4514-0.8451,0.6595C23.5633,61.0553,35.6483,51.24,50.0042,51.24  c15.1026,0,27.7107,10.8475,29.3278,25.233c0.0042-0.0014,0.0056-0.0028,0.0084-0.0042c0.0436,0.3895,0.2967,0.7425,0.6933,0.8803  c0.8887,0.3108,1.8435,0.4598,2.9193,0.4598c3.1119,0,4.7234-1.2965,6.1451-2.4412c1.3218-1.0645,2.4637-1.9827,4.8472-1.9827  c0.5822,0,1.0547-0.4725,1.0547-1.0547C94.9986,71.7481,94.5261,71.277,93.9439,71.277z"/></g><g id="SvgjsG4489" featureKey="textGroupContainer" transform="matrix(1,0,0,1,405,0)" fill="#000"><rect xmlns="http://www.w3.org/2000/svg" y="0" height="1" width="1" opacity="0"/><rect xmlns="http://www.w3.org/2000/svg" y="0" x="-342" width="3" height="60"/></g><g id="SvgjsG4490" featureKey="vMvB0T-0" transform="matrix(1.4937705237883916,0,0,1.4937705237883916,79.84755551950443,14.504068160459983)" fill="#000"><path d="M4.6582 4.297000000000001 l0 -0.0097656 c2.1582 0 4.1992 0.77148 5.7422 2.3145 c2.8125 2.8125 2.8125 8.291 0 11.094 c-1.543 1.5332 -3.584 2.3047 -5.7422 2.3047 l-3.8867 0 l0 -15.703 l3.8867 0 z M4.668 16.8457 l0.0097656 0 c1.2891 0 2.4805 -0.36133 3.3984 -1.2793 s1.2793 -2.1289 1.2793 -3.4277 c0 -1.2891 -0.36133 -2.5 -1.2891 -3.4277 c-0.91797 -0.92773 -2.1289 -1.2891 -3.418 -1.2891 l-0.72266 0 l0 9.4238 l0.74219 0 z M13.681640625 20 l0 -15.742 l3.1543 0 l0 15.742 l-3.1543 0 z M18.3984375 4.257999999999999 l9.4434 0 l0 3.1445 l-6.2891 0 l0 3.1543 l4.7168 0 l0 3.1445 l-4.7168 0 l0 3.1445 l6.2891 0 l0 3.1543 l-6.2891 0 l-3.1543 0 l0 -15.742 z M39.091765625 4.307 l-0.0097656 0 c2.1094 0 3.877 1.748 3.916 3.8379 c0 0.41992 -0.14648 0.9082 -0.27344 1.2988 c1.7969 0.78125 3.4082 2.5586 3.4082 5.0488 c0 1.5039 -0.53711 2.793 -1.6113 3.8672 s-2.3633 1.6113 -3.8672 1.6113 l-5.4785 0 l0 -15.664 l3.916 0 z M38.300765625 9.316 l0.78125 0 c0.52734 0 0.94727 -0.40039 0.94727 -0.91797 c0 -0.52734 -0.41992 -0.9668 -0.94727 -0.9668 l-0.78125 0 l0 1.8848 z M40.644565625 16.8359 c1.2891 0 2.3535 -1.0547 2.3535 -2.334 c0 -0.6543 -0.23438 -1.2109 -0.69336 -1.6699 s-1.0156 -0.48828 -1.6602 -0.48828 l-2.3438 0 l0 4.4922 l2.3438 0 z M47.314453125 20 l-0.0097656 -15.762 l5.1172 0 c1.5137 0 3.0078 0.52734 4.0918 1.6113 s1.5234 2.0996 1.5234 3.6133 l0 0.48828 c0 1.1719 -0.33203 2.0313 -0.99609 2.9688 s-1.2207 1.2109 -2.2559 1.6016 l3.5547 5.4785 l-3.8477 0 l-4.0234 -6.1523 l0 6.1523 l-3.1543 0 z M50.459003125 11.8164 l2.2559 0.0097656 c0.6543 0 0.98633 -0.16602 1.4453 -0.625 s0.625 -0.98633 0.625 -1.6406 c0 -0.64453 -0.16602 -1.0742 -0.625 -1.543 s-1.2793 -0.63477 -1.9336 -0.63477 l-1.7676 0 l0 4.4336 z M63.9746375 0.33200000000000074 c0.64453 0 1.1719 0.52734 1.1719 1.1719 s-0.52734 1.1719 -1.1719 1.1719 s-1.1719 -0.52734 -1.1719 -1.1719 s0.52734 -1.1719 1.1719 -1.1719 z M68.3496375 0.33200000000000074 c0.64453 0 1.1719 0.52734 1.1719 1.1719 s-0.52734 1.1719 -1.1719 1.1719 s-1.1719 -0.52734 -1.1719 -1.1719 s0.52734 -1.1719 1.1719 -1.1719 z M69.2874375 4.257999999999999 l3.1738 0 l0 6.3281 l0 3.1641 c0 1.748 -0.61523 3.2422 -1.8555 4.4824 s-2.7344 1.8555 -4.4727 1.8555 c-1.748 0 -3.2422 -0.61523 -4.4824 -1.8555 s-1.8555 -2.7344 -1.8555 -4.4824 l0 -3.1641 l0 -6.3281 l3.1738 0 l0 6.3281 l0 2.832 l0 0.32227 c0 0.86914 0.3125 1.6113 0.92773 2.2266 s1.3574 0.92773 2.2266 0.92773 c0.85938 0 1.6016 -0.3125 2.2266 -0.92773 s0.9375 -1.3574 0.9375 -2.2266 l0 -0.32227 l0 -2.832 l0 -6.3281 z M81.572221875 4.18 l-0.0097656 0.039063 c1.0938 0 2.1191 0.20508 3.0859 0.625 s1.8164 0.98633 2.5488 1.6992 l-2.2461 2.2461 c-0.94727 -0.9375 -2.0703 -1.4063 -3.3691 -1.4063 c-1.3184 0 -2.4414 0.46875 -3.3691 1.4063 s-1.3965 2.0605 -1.3965 3.3691 c0 1.3184 0.46875 2.4414 1.3965 3.3691 s2.0508 1.3965 3.3691 1.3965 s2.4414 -0.46875 3.3789 -1.4063 l2.2461 2.2461 c-0.73242 0.72266 -1.582 1.2891 -2.5488 1.709 s-1.9922 0.625 -3.0859 0.625 c-2.1875 0 -4.0625 -0.78125 -5.6152 -2.334 s-2.334 -3.4277 -2.334 -5.6152 s0.78125 -4.0625 2.334 -5.625 s3.4277 -2.3438 5.6152 -2.3438 z M88.369140625 4.257999999999999 l3.1543 0 l0 5.9766 l3.4668 -5.9766 l3.6426 0 l-4.6484 7.998 l5.4004 7.7441 l-3.8379 0 l-4.0234 -5.7813 l0 5.7813 l-3.1543 0 l0 -15.742 z M100.556640625 4.257999999999999 l9.4434 0 l0 3.1445 l-6.2891 0 l0 3.1543 l4.7168 0 l0 3.1445 l-4.7168 0 l0 3.1445 l6.2891 0 l0 3.1543 l-6.2891 0 l-3.1543 0 l0 -15.742 z M111.46484375 3.965 l9.4434 8.9941 l0 -8.7012 l3.1543 0 l0 16.035 l-9.4434 -9.0039 l0 8.7109 l-3.1543 0 l0 -16.035 z M129.55075 4.307 l-0.0097656 0 c2.1094 0 3.877 1.748 3.916 3.8379 c0 0.41992 -0.14648 0.9082 -0.27344 1.2988 c1.7969 0.78125 3.4082 2.5586 3.4082 5.0488 c0 1.5039 -0.53711 2.793 -1.6113 3.8672 s-2.3633 1.6113 -3.8672 1.6113 l-5.4785 0 l0 -15.664 l3.916 0 z M128.75975 9.316 l0.78125 0 c0.52734 0 0.94727 -0.40039 0.94727 -0.91797 c0 -0.52734 -0.41992 -0.9668 -0.94727 -0.9668 l-0.78125 0 l0 1.8848 z M131.10355 16.8359 c1.2891 0 2.3535 -1.0547 2.3535 -2.334 c0 -0.6543 -0.23438 -1.2109 -0.69336 -1.6699 s-1.0156 -0.48828 -1.6602 -0.48828 l-2.3438 0 l0 4.4922 l2.3438 0 z M143.1249875 14.7949 l2.7832 0 l-1.3867 -3.2715 z M141.8359875 17.5781 l-0.019531 -0.0097656 c-0.35156 0.80078 -0.71289 1.5918 -1.0742 2.3926 l-3.3887 0 l7.1387 -15.996 l7.1582 15.996 l-3.3984 0 c-0.35156 -0.79102 -0.70313 -1.5918 -1.0547 -2.3828 l-5.3613 0 z M161.06478125 4.257999999999999 l3.1738 0 l0 6.3281 l0 3.1641 c0 1.748 -0.61523 3.2422 -1.8555 4.4824 s-2.7344 1.8555 -4.4727 1.8555 c-1.748 0 -3.2422 -0.61523 -4.4824 -1.8555 s-1.8555 -2.7344 -1.8555 -4.4824 l0 -3.1641 l0 -6.3281 l3.1738 0 l0 6.3281 l0 2.832 l0 0.32227 c0 0.86914 0.3125 1.6113 0.92773 2.2266 s1.3574 0.92773 2.2266 0.92773 c0.85938 0 1.6016 -0.3125 2.2266 -0.92773 s0.9375 -1.3574 0.9375 -2.2266 l0 -0.32227 l0 -2.832 l0 -6.3281 z M165.791015625 4.257999999999999 l9.4434 0 l0 3.1445 l-6.2891 0 l0 3.1543 l4.7168 0 l0 3.1445 l-4.7168 0 l0 3.1445 l6.2891 0 l0 3.1543 l-6.2891 0 l-3.1543 0 l0 -15.742 z M176.69921875 20 l-0.0097656 -15.762 l5.1172 0 c1.5137 0 3.0078 0.52734 4.0918 1.6113 s1.5234 2.0996 1.5234 3.6133 l0 0.48828 c0 1.1719 -0.33203 2.0313 -0.99609 2.9688 s-1.2207 1.2109 -2.2559 1.6016 l3.5547 5.4785 l-3.8477 0 l-4.0234 -6.1523 l0 6.1523 l-3.1543 0 z M179.84376875 11.8164 l2.2559 0.0097656 c0.6543 0 0.98633 -0.16602 1.4453 -0.625 s0.625 -0.98633 0.625 -1.6406 c0 -0.64453 -0.16602 -1.0742 -0.625 -1.543 s-1.2793 -0.63477 -1.9336 -0.63477 l-1.7676 0 l0 4.4336 z M189.189453125 20 l0 -15.742 l3.1543 0 l0 15.742 l-3.1543 0 z M193.90625 3.965 l9.4434 8.9941 l0 -8.7012 l3.1543 0 l0 16.035 l-9.4434 -9.0039 l0 8.7109 l-3.1543 0 l0 -16.035 z"/></g>
			</g>
		</svg>
	