<?xml version="1.0" encoding="UTF-8"?>
<svg viewBox="0 0 137.85458 152.48663" xmlns="http://www.w3.org/2000/svg" fill="#364635">
 <g transform="translate(-221.22 -366.41)">
  <path d="m306.11 366.87c-31.017 0.02009-55.833 25.719-62.424 58.748h-17.254l-4.7455 10.882h20.535c-0.16155 2.1912-0.24899 4.405-0.24899 6.6349 0 2.4426 0.11674 4.8531 0.32223 7.2355h-15.862l-4.2622 11.219h21.868c7.446 32.69 34.19 56.829 65.72 56.829 15.406 0 31.442-6.6617 44.965-17.415l-0.16112-16.507c-10.419 14.656-26.566 22.38-44.804 22.38-26.018 0-47.771-18.613-54.72-45.288h77.437l3.9693-11.219h-83.384c-0.22762-2.3682-0.35152-4.7825-0.35152-7.2355 0-2.2445 0.10104-4.4575 0.27829-6.6349h88.495l4.2622-10.882h-91.102c6.222-27.31 26.876-46.708 53.211-46.708 18.22 0 35.448 7.8618 46.401 22.629l4.3501-12.186c-14.519-12.405-32.614-21.907-50.751-22.453-0.58081-0.0175-1.1664-0.02967-1.743-0.0293z" fill-rule="evenodd" stroke="#000" stroke-width=".93739"/>
 </g>
</svg>
